<ttFont>
<head>
    <!-- Most of this table will be recalculated by the compiler -->
    <tableVersion value="1.0"/>
    <fontRevision value="1.004"/>
    <checkSumAdjustment value="0x3a481a7"/>
    <magicNumber value="0x5f0f3cf5"/>
    <flags value="00000000 00011111"/>
    <unitsPerEm value="2048"/>
    <created value="Mon Feb 28 20:04:13 2011"/>
    <modified value="Mon Feb 28 20:04:13 2011"/>
    <xMin value="-428"/>
    <yMin value="-512"/>
    <xMax value="3172"/>
    <yMax value="2048"/>
    <macStyle value="00000000 00000000"/>
    <lowestRecPPEM value="8"/>
    <fontDirectionHint value="2"/>
    <indexToLocFormat value="0"/>
    <glyphDataFormat value="0"/>
  </head>
    <TTGlyph name="A" xMin="18" yMin="-233" xMax="1417" yMax="1536">
      <contour>
        <pt x="438" y="70" on="1"/>
        <pt x="418" y="-39" on="0"/>
        <pt x="418" y="-194" on="0"/>
        <pt x="446" y="-233" on="1"/>
        <pt x="325" y="-233" on="0"/>
        <pt x="276" y="-208" on="1"/>
        <pt x="172" y="-156" on="0"/>
        <pt x="172" y="-16" on="1"/>
        <pt x="172" y="196" on="0"/>
        <pt x="350" y="580" on="1"/>
        <pt x="406" y="700" on="0"/>
        <pt x="473" y="817" on="1"/>
        <pt x="377" y="811" on="0"/>
        <pt x="254" y="764" on="0"/>
        <pt x="233" y="711" on="1"/>
        <pt x="242" y="711" on="0"/>
        <pt x="260" y="670" on="0"/>
        <pt x="260" y="610" on="0"/>
        <pt x="193" y="567" on="0"/>
        <pt x="156" y="567" on="1"/>
        <pt x="89" y="567" on="0"/>
        <pt x="18" y="630" on="0"/>
        <pt x="18" y="684" on="1"/>
        <pt x="18" y="790" on="0"/>
        <pt x="137" y="864" on="1"/>
        <pt x="258" y="938" on="0"/>
        <pt x="436" y="938" on="1"/>
        <pt x="477" y="938" on="0"/>
        <pt x="543" y="932" on="1"/>
        <pt x="709" y="1193" on="0"/>
        <pt x="1082" y="1536" on="0"/>
        <pt x="1255" y="1536" on="1"/>
        <pt x="1359" y="1536" on="0"/>
        <pt x="1417" y="1507" on="1"/>
        <pt x="1096" y="0" on="1"/>
        <pt x="801" y="0" on="1"/>
        <pt x="958" y="743" on="1"/>
        <pt x="822" y="805" on="0"/>
        <pt x="684" y="817" on="1"/>
        <pt x="500" y="410" on="0"/>
      </contour>
      <contour>
        <pt x="727" y="905" on="1"/>
        <pt x="870" y="877" on="0"/>
        <pt x="977" y="834" on="1"/>
        <pt x="1096" y="1391" on="1"/>
        <pt x="920" y="1295" on="0"/>
      </contour>
    </TTGlyph>
    <TTGlyph name="A.salt" xMin="16" yMin="-231" xMax="1262" yMax="1538">
      <contour>
        <pt x="645" y="0" on="1"/>
        <pt x="803" y="750" on="1"/>
        <pt x="479" y="750" on="1"/>
        <pt x="328" y="382" on="0"/>
        <pt x="278" y="58" on="1"/>
        <pt x="262" y="-43" on="0"/>
        <pt x="262" y="-156" on="0"/>
        <pt x="271" y="-197" on="0"/>
        <pt x="282" y="-217" on="0"/>
        <pt x="291" y="-225" on="0"/>
        <pt x="291" y="-231" on="1"/>
        <pt x="151" y="-226" on="0"/>
        <pt x="107" y="-200" on="1"/>
        <pt x="16" y="-147" on="0"/>
        <pt x="16" y="-2" on="1"/>
        <pt x="16" y="144" on="0"/>
        <pt x="116" y="402" on="1"/>
        <pt x="277" y="814" on="0"/>
        <pt x="542" y="1154" on="1"/>
        <pt x="726" y="1390" on="0"/>
        <pt x="912" y="1488" on="1"/>
        <pt x="1007" y="1538" on="0"/>
        <pt x="1098" y="1538" on="1"/>
        <pt x="1190" y="1538" on="0"/>
        <pt x="1262" y="1509" on="1"/>
        <pt x="1260" y="1507" on="1"/>
        <pt x="1262" y="1507" on="1"/>
        <pt x="940" y="0" on="1"/>
      </contour>
      <contour>
        <pt x="940" y="1397" on="1"/>
        <pt x="730" y="1299" on="0"/>
        <pt x="524" y="856" on="1"/>
        <pt x="825" y="856" on="1"/>
      </contour>
    </TTGlyph>
    <TTGlyph name="AE" xMin="18" yMin="-231" xMax="1862" yMax="1538">
      <contour>
        <pt x="958" y="743" on="1"/>
        <pt x="810" y="809" on="0"/>
        <pt x="682" y="817" on="1"/>
        <pt x="502" y="423" on="0"/>
        <pt x="438" y="73" on="1"/>
        <pt x="418" y="-36" on="0"/>
        <pt x="418" y="-156" on="0"/>
        <pt x="427" y="-197" on="0"/>
        <pt x="437" y="-217" on="0"/>
        <pt x="446" y="-225" on="0"/>
        <pt x="446" y="-231" on="1"/>
        <pt x="307" y="-226" on="0"/>
        <pt x="263" y="-200" on="1"/>
        <pt x="172" y="-147" on="0"/>
        <pt x="172" y="-2" on="1"/>
        <pt x="172" y="202" on="0"/>
        <pt x="350" y="582" on="1"/>
        <pt x="406" y="700" on="0"/>
        <pt x="473" y="817" on="1"/>
        <pt x="381" y="811" on="0"/>
        <pt x="256" y="766" on="0"/>
        <pt x="233" y="711" on="1"/>
        <pt x="242" y="711" on="0"/>
        <pt x="260" y="670" on="0"/>
        <pt x="260" y="614" on="0"/>
        <pt x="201" y="567" on="0"/>
        <pt x="90" y="567" on="0"/>
        <pt x="54" y="597" on="1"/>
        <pt x="18" y="627" on="0"/>
        <pt x="18" y="685" on="1"/>
        <pt x="18" y="790" on="0"/>
        <pt x="260" y="932" on="0"/>
        <pt x="418" y="932" on="1"/>
        <pt x="471" y="932" on="0"/>
        <pt x="539" y="926" on="1"/>
        <pt x="797" y="1347" on="0"/>
        <pt x="1069" y="1489" on="1"/>
        <pt x="1163" y="1538" on="0"/>
        <pt x="1253" y="1538" on="1"/>
        <pt x="1295" y="1538" on="0"/>
        <pt x="1338" y="1532" on="1"/>
        <pt x="1426" y="1518" on="1"/>
        <pt x="1550" y="1497" on="0"/>
        <pt x="1622" y="1497" on="1"/>
        <pt x="1745" y="1497" on="0"/>
        <pt x="1862" y="1536" on="1"/>
        <pt x="1839" y="1462" on="1"/>
        <pt x="1793" y="1311" on="0"/>
        <pt x="1642" y="1311" on="1"/>
        <pt x="1564" y="1311" on="0"/>
        <pt x="1506" y="1332" on="1"/>
        <pt x="1389" y="1376" on="1"/>
        <pt x="1278" y="858" on="1"/>
        <pt x="1595" y="858" on="1"/>
        <pt x="1554" y="707" on="1"/>
        <pt x="1245" y="707" on="1"/>
        <pt x="1141" y="217" on="1"/>
        <pt x="1599" y="217" on="1"/>
        <pt x="1556" y="0" on="1"/>
        <pt x="801" y="0" on="1"/>
      </contour>
      <contour>
        <pt x="723" y="903" on="1"/>
        <pt x="854" y="879" on="0"/>
        <pt x="977" y="834" on="1"/>
        <pt x="1096" y="1391" on="1"/>
        <pt x="912" y="1289" on="0"/>
      </contour>
    </TTGlyph>
    <TTGlyph name="Aacute" xMin="18" yMin="-233" xMax="1417" yMax="2048">
      <contour>
        <pt x="438" y="70" on="1"/>
        <pt x="418" y="-39" on="0"/>
        <pt x="418" y="-194" on="0"/>
        <pt x="446" y="-233" on="1"/>
        <pt x="325" y="-233" on="0"/>
        <pt x="276" y="-208" on="1"/>
        <pt x="172" y="-156" on="0"/>
        <pt x="172" y="-16" on="1"/>
        <pt x="172" y="196" on="0"/>
        <pt x="350" y="580" on="1"/>
        <pt x="406" y="700" on="0"/>
        <pt x="473" y="817" on="1"/>
        <pt x="377" y="811" on="0"/>
        <pt x="254" y="764" on="0"/>
        <pt x="233" y="711" on="1"/>
        <pt x="242" y="711" on="0"/>
        <pt x="260" y="670" on="0"/>
        <pt x="260" y="610" on="0"/>
        <pt x="193" y="567" on="0"/>
        <pt x="156" y="567" on="1"/>
        <pt x="89" y="567" on="0"/>
        <pt x="18" y="630" on="0"/>
        <pt x="18" y="684" on="1"/>
        <pt x="18" y="790" on="0"/>
        <pt x="137" y="864" on="1"/>
        <pt x="258" y="938" on="0"/>
        <pt x="436" y="938" on="1"/>
        <pt x="477" y="938" on="0"/>
        <pt x="543" y="932" on="1"/>
        <pt x="709" y="1193" on="0"/>
        <pt x="1082" y="1536" on="0"/>
        <pt x="1255" y="1536" on="1"/>
        <pt x="1359" y="1536" on="0"/>
        <pt x="1417" y="1507" on="1"/>
        <pt x="1096" y="0" on="1"/>
        <pt x="801" y="0" on="1"/>
        <pt x="958" y="743" on="1"/>
        <pt x="822" y="805" on="0"/>
        <pt x="684" y="817" on="1"/>
        <pt x="500" y="410" on="0"/>
      </contour>
      <contour>
        <pt x="727" y="905" on="1"/>
        <pt x="870" y="877" on="0"/>
        <pt x="977" y="834" on="1"/>
        <pt x="1096" y="1391" on="1"/>
        <pt x="920" y="1295" on="0"/>
      </contour>
      <contour>
        <pt x="996" y="1661" on="1"/>
        <pt x="1182" y="2048" on="1"/>
        <pt x="1397" y="2048" on="1"/>
        <pt x="1149" y="1661" on="1"/>
      </contour>
    </TTGlyph>
    <TTGlyph name="Acircumflex" xMin="18" yMin="-233" xMax="1434" yMax="2048">
      <contour>
        <pt x="438" y="70" on="1"/>
        <pt x="418" y="-39" on="0"/>
        <pt x="418" y="-194" on="0"/>
        <pt x="446" y="-233" on="1"/>
        <pt x="325" y="-233" on="0"/>
        <pt x="276" y="-208" on="1"/>
        <pt x="172" y="-156" on="0"/>
        <pt x="172" y="-16" on="1"/>
        <pt x="172" y="196" on="0"/>
        <pt x="350" y="580" on="1"/>
        <pt x="406" y="700" on="0"/>
        <pt x="473" y="817" on="1"/>
        <pt x="377" y="811" on="0"/>
        <pt x="254" y="764" on="0"/>
        <pt x="233" y="711" on="1"/>
        <pt x="242" y="711" on="0"/>
        <pt x="260" y="670" on="0"/>
        <pt x="260" y="610" on="0"/>
        <pt x="193" y="567" on="0"/>
        <pt x="156" y="567" on="1"/>
        <pt x="89" y="567" on="0"/>
        <pt x="18" y="630" on="0"/>
        <pt x="18" y="684" on="1"/>
        <pt x="18" y="790" on="0"/>
        <pt x="137" y="864" on="1"/>
        <pt x="258" y="938" on="0"/>
        <pt x="436" y="938" on="1"/>
        <pt x="477" y="938" on="0"/>
        <pt x="543" y="932" on="1"/>
        <pt x="709" y="1193" on="0"/>
        <pt x="1082" y="1536" on="0"/>
        <pt x="1255" y="1536" on="1"/>
        <pt x="1359" y="1536" on="0"/>
        <pt x="1417" y="1507" on="1"/>
        <pt x="1096" y="0" on="1"/>
        <pt x="801" y="0" on="1"/>
        <pt x="958" y="743" on="1"/>
        <pt x="822" y="805" on="0"/>
        <pt x="684" y="817" on="1"/>
        <pt x="500" y="410" on="0"/>
      </contour>
      <contour>
        <pt x="727" y="905" on="1"/>
        <pt x="870" y="877" on="0"/>
        <pt x="977" y="834" on="1"/>
        <pt x="1096" y="1391" on="1"/>
        <pt x="920" y="1295" on="0"/>
      </contour>
      <contour>
        <pt x="1369" y="1661" on="1"/>
        <pt x="1246" y="1825" on="1"/>
        <pt x="924" y="1661" on="1"/>
        <pt x="834" y="1661" on="1"/>
        <pt x="1268" y="2048" on="1"/>
        <pt x="1311" y="2048" on="1"/>
        <pt x="1434" y="1661" on="1"/>
      </contour>
    </TTGlyph>
    <TTGlyph name="Adieresis" xMin="18" yMin="-233" xMax="1499" yMax="1935">
      <contour>
        <pt x="438" y="70" on="1"/>
        <pt x="418" y="-39" on="0"/>
        <pt x="418" y="-194" on="0"/>
        <pt x="446" y="-233" on="1"/>
        <pt x="325" y="-233" on="0"/>
        <pt x="276" y="-208" on="1"/>
        <pt x="172" y="-156" on="0"/>
        <pt x="172" y="-16" on="1"/>
        <pt x="172" y="196" on="0"/>
        <pt x="350" y="580" on="1"/>
        <pt x="406" y="700" on="0"/>
        <pt x="473" y="817" on="1"/>
        <pt x="377" y="811" on="0"/>
        <pt x="254" y="764" on="0"/>
        <pt x="233" y="711" on="1"/>
        <pt x="242" y="711" on="0"/>
        <pt x="260" y="670" on="0"/>
        <pt x="260" y="610" on="0"/>
        <pt x="193" y="567" on="0"/>
        <pt x="156" y="567" on="1"/>
        <pt x="89" y="567" on="0"/>
        <pt x="18" y="630" on="0"/>
        <pt x="18" y="684" on="1"/>
        <pt x="18" y="790" on="0"/>
        <pt x="137" y="864" on="1"/>
        <pt x="258" y="938" on="0"/>
        <pt x="436" y="938" on="1"/>
        <pt x="477" y="938" on="0"/>
        <pt x="543" y="932" on="1"/>
        <pt x="709" y="1193" on="0"/>
        <pt x="1082" y="1536" on="0"/>
        <pt x="1255" y="1536" on="1"/>
        <pt x="1359" y="1536" on="0"/>
        <pt x="1417" y="1507" on="1"/>
        <pt x="1096" y="0" on="1"/>
        <pt x="801" y="0" on="1"/>
        <pt x="958" y="743" on="1"/>
        <pt x="822" y="805" on="0"/>
        <pt x="684" y="817" on="1"/>
        <pt x="500" y="410" on="0"/>
      </contour>
      <contour>
        <pt x="727" y="905" on="1"/>
        <pt x="870" y="877" on="0"/>
        <pt x="977" y="834" on="1"/>
        <pt x="1096" y="1391" on="1"/>
        <pt x="920" y="1295" on="0"/>
      </contour>
      <contour>
        <pt x="1094" y="1721" on="1"/>
        <pt x="1056" y="1686" on="0"/>
        <pt x="1018" y="1686" on="1"/>
        <pt x="952" y="1686" on="0"/>
        <pt x="881" y="1757" on="0"/>
        <pt x="881" y="1861" on="0"/>
        <pt x="916" y="1898" on="1"/>
        <pt x="952" y="1935" on="0"/>
        <pt x="1057" y="1935" on="0"/>
        <pt x="1131" y="1862" on="0"/>
        <pt x="1131" y="1757" on="0"/>
      </contour>
      <contour>
        <pt x="1462" y="1721" on="1"/>
        <pt x="1424" y="1686" on="0"/>
        <pt x="1386" y="1686" on="1"/>
        <pt x="1321" y="1686" on="0"/>
        <pt x="1249" y="1756" on="0"/>
        <pt x="1249" y="1862" on="0"/>
        <pt x="1321" y="1935" on="0"/>
        <pt x="1425" y="1935" on="0"/>
        <pt x="1499" y="1862" on="0"/>
        <pt x="1499" y="1757" on="0"/>
      </contour>
    </TTGlyph>
    <TTGlyph name="Agrave" xMin="18" yMin="-233" xMax="1417" yMax="2048">
      <contour>
        <pt x="438" y="70" on="1"/>
        <pt x="418" y="-39" on="0"/>
        <pt x="418" y="-194" on="0"/>
        <pt x="446" y="-233" on="1"/>
        <pt x="325" y="-233" on="0"/>
        <pt x="276" y="-208" on="1"/>
        <pt x="172" y="-156" on="0"/>
        <pt x="172" y="-16" on="1"/>
        <pt x="172" y="196" on="0"/>
        <pt x="350" y="580" on="1"/>
        <pt x="406" y="700" on="0"/>
        <pt x="473" y="817" on="1"/>
        <pt x="377" y="811" on="0"/>
        <pt x="254" y="764" on="0"/>
        <pt x="233" y="711" on="1"/>
        <pt x="242" y="711" on="0"/>
        <pt x="260" y="670" on="0"/>
        <pt x="260" y="610" on="0"/>
        <pt x="193" y="567" on="0"/>
        <pt x="156" y="567" on="1"/>
        <pt x="89" y="567" on="0"/>
        <pt x="18" y="630" on="0"/>
        <pt x="18" y="684" on="1"/>
        <pt x="18" y="790" on="0"/>
        <pt x="137" y="864" on="1"/>
        <pt x="258" y="938" on="0"/>
        <pt x="436" y="938" on="1"/>
        <pt x="477" y="938" on="0"/>
        <pt x="543" y="932" on="1"/>
        <pt x="709" y="1193" on="0"/>
        <pt x="1082" y="1536" on="0"/>
        <pt x="1255" y="1536" on="1"/>
        <pt x="1359" y="1536" on="0"/>
        <pt x="1417" y="1507" on="1"/>
        <pt x="1096" y="0" on="1"/>
        <pt x="801" y="0" on="1"/>
        <pt x="958" y="743" on="1"/>
        <pt x="822" y="805" on="0"/>
        <pt x="684" y="817" on="1"/>
        <pt x="500" y="410" on="0"/>
      </contour>
      <contour>
        <pt x="727" y="905" on="1"/>
        <pt x="870" y="877" on="0"/>
        <pt x="977" y="834" on="1"/>
        <pt x="1096" y="1391" on="1"/>
        <pt x="920" y="1295" on="0"/>
      </contour>
      <contour>
        <pt x="1016" y="1661" on="1"/>
        <pt x="895" y="2048" on="1"/>
        <pt x="1110" y="2048" on="1"/>
        <pt x="1170" y="1661" on="1"/>
      </contour>
    </TTGlyph>
    <TTGlyph name="Aogonek" xMin="18" yMin="-395" xMax="1417" yMax="1536">
      <contour>
        <pt x="739" y="-236" on="1"/>
        <pt x="739" y="-116" on="0"/>
        <pt x="884" y="0" on="1"/>
        <pt x="801" y="0" on="1"/>
        <pt x="958" y="743" on="1"/>
        <pt x="822" y="805" on="0"/>
        <pt x="684" y="817" on="1"/>
        <pt x="500" y="410" on="0"/>
        <pt x="438" y="70" on="1"/>
        <pt x="418" y="-39" on="0"/>
        <pt x="418" y="-194" on="0"/>
        <pt x="446" y="-233" on="1"/>
        <pt x="325" y="-233" on="0"/>
        <pt x="276" y="-208" on="1"/>
        <pt x="172" y="-156" on="0"/>
        <pt x="172" y="-16" on="1"/>
        <pt x="172" y="196" on="0"/>
        <pt x="350" y="580" on="1"/>
        <pt x="406" y="700" on="0"/>
        <pt x="473" y="817" on="1"/>
        <pt x="377" y="811" on="0"/>
        <pt x="254" y="764" on="0"/>
        <pt x="233" y="711" on="1"/>
        <pt x="242" y="711" on="0"/>
        <pt x="260" y="670" on="0"/>
        <pt x="260" y="610" on="0"/>
        <pt x="193" y="567" on="0"/>
        <pt x="156" y="567" on="1"/>
        <pt x="89" y="567" on="0"/>
        <pt x="18" y="630" on="0"/>
        <pt x="18" y="684" on="1"/>
        <pt x="18" y="790" on="0"/>
        <pt x="137" y="864" on="1"/>
        <pt x="258" y="938" on="0"/>
        <pt x="436" y="938" on="1"/>
        <pt x="477" y="938" on="0"/>
        <pt x="543" y="932" on="1"/>
        <pt x="709" y="1193" on="0"/>
        <pt x="1082" y="1536" on="0"/>
        <pt x="1255" y="1536" on="1"/>
        <pt x="1359" y="1536" on="0"/>
        <pt x="1417" y="1507" on="1"/>
        <pt x="1096" y="0" on="1"/>
        <pt x="1018" y="0" on="1"/>
        <pt x="955" y="-32" on="0"/>
        <pt x="921" y="-113" on="1"/>
        <pt x="909" y="-142" on="0"/>
        <pt x="909" y="-207" on="0"/>
        <pt x="946" y="-274" on="0"/>
        <pt x="1027" y="-274" on="0"/>
        <pt x="1062" y="-249" on="1"/>
        <pt x="1128" y="-205" on="1"/>
        <pt x="1124" y="-241" on="0"/>
        <pt x="1124" y="-268" on="1"/>
        <pt x="1084" y="-308" on="1"/>
        <pt x="996" y="-395" on="0"/>
        <pt x="824" y="-395" on="0"/>
        <pt x="739" y="-297" on="0"/>
      </contour>
      <contour>
        <pt x="727" y="905" on="1"/>
        <pt x="870" y="877" on="0"/>
        <pt x="977" y="834" on="1"/>
        <pt x="1096" y="1391" on="1"/>
        <pt x="920" y="1295" on="0"/>
      </contour>
    </TTGlyph>
    <TTGlyph name="Aring" xMin="18" yMin="-233" xMax="1417" yMax="1972">
      <contour>
        <pt x="438" y="70" on="1"/>
        <pt x="418" y="-39" on="0"/>
        <pt x="418" y="-194" on="0"/>
        <pt x="446" y="-233" on="1"/>
        <pt x="325" y="-233" on="0"/>
        <pt x="276" y="-208" on="1"/>
        <pt x="172" y="-156" on="0"/>
        <pt x="172" y="-16" on="1"/>
        <pt x="172" y="196" on="0"/>
        <pt x="350" y="580" on="1"/>
        <pt x="406" y="700" on="0"/>
        <pt x="473" y="817" on="1"/>
        <pt x="377" y="811" on="0"/>
        <pt x="254" y="764" on="0"/>
        <pt x="233" y="711" on="1"/>
        <pt x="242" y="711" on="0"/>
        <pt x="260" y="670" on="0"/>
        <pt x="260" y="610" on="0"/>
        <pt x="193" y="567" on="0"/>
        <pt x="156" y="567" on="1"/>
        <pt x="89" y="567" on="0"/>
        <pt x="18" y="630" on="0"/>
        <pt x="18" y="684" on="1"/>
        <pt x="18" y="790" on="0"/>
        <pt x="137" y="864" on="1"/>
        <pt x="258" y="938" on="0"/>
        <pt x="436" y="938" on="1"/>
        <pt x="477" y="938" on="0"/>
        <pt x="543" y="932" on="1"/>
        <pt x="709" y="1193" on="0"/>
        <pt x="1082" y="1536" on="0"/>
        <pt x="1255" y="1536" on="1"/>
        <pt x="1359" y="1536" on="0"/>
        <pt x="1417" y="1507" on="1"/>
        <pt x="1096" y="0" on="1"/>
        <pt x="801" y="0" on="1"/>
        <pt x="958" y="743" on="1"/>
        <pt x="822" y="805" on="0"/>
        <pt x="684" y="817" on="1"/>
        <pt x="500" y="410" on="0"/>
      </contour>
      <contour>
        <pt x="727" y="905" on="1"/>
        <pt x="870" y="877" on="0"/>
        <pt x="977" y="834" on="1"/>
        <pt x="1096" y="1391" on="1"/>
        <pt x="920" y="1295" on="0"/>
      </contour>
      <contour>
        <pt x="993" y="1770" on="1"/>
        <pt x="993" y="1899" on="0"/>
        <pt x="1087" y="1953" on="1"/>
        <pt x="1120" y="1972" on="0"/>
        <pt x="1243" y="1972" on="0"/>
        <pt x="1315" y="1879" on="0"/>
        <pt x="1315" y="1747" on="0"/>
        <pt x="1234" y="1642" on="0"/>
        <pt x="1071" y="1642" on="0"/>
        <pt x="1032" y="1684" on="1"/>
        <pt x="993" y="1726" on="0"/>
      </contour>
      <contour>
        <pt x="1145" y="1714" on="1"/>
        <pt x="1239" y="1714" on="0"/>
        <pt x="1239" y="1808" on="1"/>
        <pt x="1239" y="1875" on="0"/>
        <pt x="1209" y="1896" on="1"/>
        <pt x="1195" y="1905" on="0"/>
        <pt x="1171" y="1905" on="1"/>
        <pt x="1119" y="1905" on="0"/>
        <pt x="1075" y="1829" on="0"/>
        <pt x="1075" y="1790" on="1"/>
        <pt x="1075" y="1714" on="0"/>
      </contour>
    </TTGlyph>
    <TTGlyph name="Atilde" xMin="18" yMin="-233" xMax="1659" yMax="1905">
      <contour>
        <pt x="438" y="70" on="1"/>
        <pt x="418" y="-39" on="0"/>
        <pt x="418" y="-194" on="0"/>
        <pt x="446" y="-233" on="1"/>
        <pt x="325" y="-233" on="0"/>
        <pt x="276" y="-208" on="1"/>
        <pt x="172" y="-156" on="0"/>
        <pt x="172" y="-16" on="1"/>
        <pt x="172" y="196" on="0"/>
        <pt x="350" y="580" on="1"/>
        <pt x="406" y="700" on="0"/>
        <pt x="473" y="817" on="1"/>
        <pt x="377" y="811" on="0"/>
        <pt x="254" y="764" on="0"/>
        <pt x="233" y="711" on="1"/>
        <pt x="242" y="711" on="0"/>
        <pt x="260" y="670" on="0"/>
        <pt x="260" y="610" on="0"/>
        <pt x="193" y="567" on="0"/>
        <pt x="156" y="567" on="1"/>
        <pt x="89" y="567" on="0"/>
        <pt x="18" y="630" on="0"/>
        <pt x="18" y="684" on="1"/>
        <pt x="18" y="790" on="0"/>
        <pt x="137" y="864" on="1"/>
        <pt x="258" y="938" on="0"/>
        <pt x="436" y="938" on="1"/>
        <pt x="477" y="938" on="0"/>
        <pt x="543" y="932" on="1"/>
        <pt x="709" y="1193" on="0"/>
        <pt x="1082" y="1536" on="0"/>
        <pt x="1255" y="1536" on="1"/>
        <pt x="1359" y="1536" on="0"/>
        <pt x="1417" y="1507" on="1"/>
        <pt x="1096" y="0" on="1"/>
        <pt x="801" y="0" on="1"/>
        <pt x="958" y="743" on="1"/>
        <pt x="822" y="805" on="0"/>
        <pt x="684" y="817" on="1"/>
        <pt x="500" y="410" on="0"/>
      </contour>
      <contour>
        <pt x="727" y="905" on="1"/>
        <pt x="870" y="877" on="0"/>
        <pt x="977" y="834" on="1"/>
        <pt x="1096" y="1391" on="1"/>
        <pt x="920" y="1295" on="0"/>
      </contour>
      <contour>
        <pt x="1398" y="1858" on="0"/>
        <pt x="1474" y="1837" on="0"/>
        <pt x="1598" y="1837" on="0"/>
        <pt x="1647" y="1884" on="1"/>
        <pt x="1659" y="1882" on="1"/>
        <pt x="1642" y="1808" on="0"/>
        <pt x="1441" y="1677" on="0"/>
        <pt x="1329" y="1677" on="1"/>
        <pt x="1260" y="1677" on="0"/>
        <pt x="1108" y="1729" on="0"/>
        <pt x="1028" y="1753" on="0"/>
        <pt x="985" y="1753" on="1"/>
        <pt x="908" y="1753" on="0"/>
        <pt x="850" y="1700" on="1"/>
        <pt x="838" y="1704" on="1"/>
        <pt x="937" y="1905" on="0"/>
        <pt x="1180" y="1905" on="1"/>
        <pt x="1259" y="1905" on="0"/>
      </contour>
    </TTGlyph>
    <TTGlyph name="B" xMin="25" yMin="-35" xMax="1241" yMax="1536">
      <contour>
        <pt x="956" y="530" on="1"/>
        <pt x="956" y="791" on="0"/>
        <pt x="762" y="791" on="1"/>
        <pt x="717" y="791" on="0"/>
        <pt x="668" y="784" on="1"/>
        <pt x="500" y="0" on="1"/>
        <pt x="205" y="0" on="1"/>
        <pt x="483" y="1303" on="1"/>
        <pt x="786" y="1343" on="1"/>
        <pt x="690" y="889" on="1"/>
        <pt x="702" y="889" on="1"/>
        <pt x="820" y="889" on="0"/>
        <pt x="997" y="1101" on="0"/>
        <pt x="997" y="1221" on="1"/>
        <pt x="997" y="1371" on="0"/>
        <pt x="852" y="1424" on="1"/>
        <pt x="800" y="1442" on="0"/>
        <pt x="667" y="1442" on="0"/>
        <pt x="544" y="1415" on="0"/>
        <pt x="488" y="1388" on="1"/>
        <pt x="363" y="1327" on="0"/>
        <pt x="215" y="1102" on="0"/>
        <pt x="215" y="944" on="1"/>
        <pt x="215" y="863" on="0"/>
        <pt x="240" y="819" on="1"/>
        <pt x="244" y="811" on="0"/>
        <pt x="244" y="805" on="1"/>
        <pt x="82" y="805" on="0"/>
        <pt x="40" y="905" on="1"/>
        <pt x="25" y="941" on="0"/>
        <pt x="25" y="993" on="1"/>
        <pt x="25" y="1101" on="0"/>
        <pt x="147" y="1294" on="0"/>
        <pt x="250" y="1370" on="1"/>
        <pt x="479" y="1536" on="0"/>
        <pt x="768" y="1536" on="1"/>
        <pt x="982" y="1536" on="0"/>
        <pt x="1204" y="1347" on="0"/>
        <pt x="1204" y="1210" on="1"/>
        <pt x="1204" y="1118" on="0"/>
        <pt x="1152" y="1030" on="1"/>
        <pt x="1100" y="942" on="0"/>
        <pt x="999" y="885" on="1"/>
        <pt x="1123" y="860" on="0"/>
        <pt x="1241" y="680" on="0"/>
        <pt x="1241" y="555" on="1"/>
        <pt x="1241" y="482" on="0"/>
        <pt x="1220" y="380" on="1"/>
        <pt x="1172" y="154" on="0"/>
        <pt x="1008" y="29" on="1"/>
        <pt x="923" y="-35" on="0"/>
        <pt x="658" y="-35" on="0"/>
        <pt x="610" y="40" on="1"/>
        <pt x="590" y="70" on="0"/>
        <pt x="590" y="167" on="0"/>
        <pt x="616" y="236" on="1"/>
        <pt x="685" y="162" on="0"/>
        <pt x="748" y="162" on="1"/>
        <pt x="856" y="162" on="0"/>
        <pt x="911" y="288" on="1"/>
        <pt x="956" y="390" on="0"/>
      </contour>
    </TTGlyph>
    <TTGlyph name="B.salt" xMin="12" yMin="-57" xMax="1225" yMax="1536">
      <contour>
        <pt x="743" y="-57" on="1"/>
        <pt x="612" y="-57" on="0"/>
        <pt x="500" y="61" on="1"/>
        <pt x="487" y="0" on="1"/>
        <pt x="193" y="0" on="1"/>
        <pt x="471" y="1303" on="1"/>
        <pt x="774" y="1343" on="1"/>
        <pt x="678" y="889" on="1"/>
        <pt x="690" y="889" on="1"/>
        <pt x="814" y="889" on="0"/>
        <pt x="898" y="996" on="1"/>
        <pt x="981" y="1104" on="0"/>
        <pt x="981" y="1233" on="1"/>
        <pt x="981" y="1442" on="0"/>
        <pt x="723" y="1442" on="1"/>
        <pt x="503" y="1442" on="0"/>
        <pt x="203" y="1170" on="0"/>
        <pt x="203" y="944" on="1"/>
        <pt x="203" y="861" on="0"/>
        <pt x="226" y="819" on="1"/>
        <pt x="231" y="811" on="0"/>
        <pt x="231" y="805" on="1"/>
        <pt x="69" y="805" on="0"/>
        <pt x="27" y="905" on="1"/>
        <pt x="12" y="941" on="0"/>
        <pt x="12" y="993" on="1"/>
        <pt x="12" y="1100" on="0"/>
        <pt x="138" y="1297" on="0"/>
        <pt x="242" y="1372" on="1"/>
        <pt x="470" y="1536" on="0"/>
        <pt x="750" y="1536" on="1"/>
        <pt x="961" y="1536" on="0"/>
        <pt x="1078" y="1440" on="1"/>
        <pt x="1196" y="1343" on="0"/>
        <pt x="1196" y="1206" on="1"/>
        <pt x="1196" y="1115" on="0"/>
        <pt x="1091" y="945" on="0"/>
        <pt x="991" y="885" on="1"/>
        <pt x="1115" y="863" on="0"/>
        <pt x="1225" y="691" on="0"/>
        <pt x="1225" y="582" on="1"/>
        <pt x="1225" y="359" on="0"/>
        <pt x="1080" y="156" on="1"/>
        <pt x="1014" y="63" on="0"/>
        <pt x="927" y="3" on="1"/>
        <pt x="840" y="-57" on="0"/>
      </contour>
      <contour>
        <pt x="528" y="190" on="1"/>
        <pt x="585" y="131" on="0"/>
        <pt x="648" y="131" on="1"/>
        <pt x="758" y="131" on="0"/>
        <pt x="839" y="274" on="1"/>
        <pt x="920" y="416" on="0"/>
        <pt x="920" y="570" on="1"/>
        <pt x="920" y="725" on="0"/>
        <pt x="829" y="774" on="1"/>
        <pt x="796" y="791" on="0"/>
        <pt x="706" y="791" on="0"/>
        <pt x="655" y="784" on="1"/>
      </contour>
    </TTGlyph>
    <TTGlyph name="C" xMin="39" yMin="-34" xMax="1096" yMax="1536">
      <contour>
        <pt x="1096" y="1262" on="1"/>
        <pt x="1096" y="1073" on="0"/>
        <pt x="952" y="1073" on="1"/>
        <pt x="880" y="1073" on="0"/>
        <pt x="836" y="1126" on="1"/>
        <pt x="873" y="1146" on="0"/>
        <pt x="930" y="1256" on="0"/>
        <pt x="930" y="1365" on="0"/>
        <pt x="873" y="1440" on="0"/>
        <pt x="748" y="1440" on="0"/>
        <pt x="641" y="1356" on="0"/>
        <pt x="594" y="1284" on="1"/>
        <pt x="499" y="1140" on="0"/>
        <pt x="379" y="692" on="0"/>
        <pt x="379" y="327" on="0"/>
        <pt x="486" y="164" on="0"/>
        <pt x="616" y="164" on="1"/>
        <pt x="872" y="164" on="0"/>
        <pt x="1024" y="369" on="1"/>
        <pt x="1071" y="348" on="1"/>
        <pt x="973" y="100" on="0"/>
        <pt x="698" y="4" on="1"/>
        <pt x="590" y="-34" on="0"/>
        <pt x="486" y="-34" on="1"/>
        <pt x="483" y="-34" on="0"/>
        <pt x="480" y="-34" on="1"/>
        <pt x="253" y="-32" on="0"/>
        <pt x="39" y="200" on="0"/>
        <pt x="39" y="714" on="0"/>
        <pt x="124" y="970" on="1"/>
        <pt x="223" y="1272" on="0"/>
        <pt x="416" y="1422" on="1"/>
        <pt x="564" y="1536" on="0"/>
        <pt x="754" y="1536" on="1"/>
        <pt x="992" y="1536" on="0"/>
        <pt x="1069" y="1387" on="1"/>
        <pt x="1096" y="1335" on="0"/>
      </contour>
    </TTGlyph>
    <TTGlyph name="Cacute" xMin="39" yMin="-34" xMax="1096" yMax="2048">
      <contour>
        <pt x="1096" y="1262" on="1"/>
        <pt x="1096" y="1073" on="0"/>
        <pt x="952" y="1073" on="1"/>
        <pt x="880" y="1073" on="0"/>
        <pt x="836" y="1126" on="1"/>
        <pt x="873" y="1146" on="0"/>
        <pt x="930" y="1256" on="0"/>
        <pt x="930" y="1365" on="0"/>
        <pt x="873" y="1440" on="0"/>
        <pt x="748" y="1440" on="0"/>
        <pt x="641" y="1356" on="0"/>
        <pt x="594" y="1284" on="1"/>
        <pt x="499" y="1140" on="0"/>
        <pt x="379" y="692" on="0"/>
        <pt x="379" y="327" on="0"/>
        <pt x="486" y="164" on="0"/>
        <pt x="616" y="164" on="1"/>
        <pt x="872" y="164" on="0"/>
        <pt x="1024" y="369" on="1"/>
        <pt x="1071" y="348" on="1"/>
        <pt x="973" y="100" on="0"/>
        <pt x="698" y="4" on="1"/>
        <pt x="590" y="-34" on="0"/>
        <pt x="486" y="-34" on="1"/>
        <pt x="483" y="-34" on="0"/>
        <pt x="480" y="-34" on="1"/>
        <pt x="253" y="-32" on="0"/>
        <pt x="39" y="200" on="0"/>
        <pt x="39" y="714" on="0"/>
        <pt x="124" y="970" on="1"/>
        <pt x="223" y="1272" on="0"/>
        <pt x="416" y="1422" on="1"/>
        <pt x="564" y="1536" on="0"/>
        <pt x="754" y="1536" on="1"/>
        <pt x="992" y="1536" on="0"/>
        <pt x="1069" y="1387" on="1"/>
        <pt x="1096" y="1335" on="0"/>
      </contour>
      <contour>
        <pt x="690" y="1661" on="1"/>
        <pt x="876" y="2048" on="1"/>
        <pt x="1091" y="2048" on="1"/>
        <pt x="843" y="1661" on="1"/>
      </contour>
    </TTGlyph>
    <TTGlyph name="Ccaron" xMin="39" yMin="-34" xMax="1198" yMax="2048">
      <contour>
        <pt x="1096" y="1262" on="1"/>
        <pt x="1096" y="1073" on="0"/>
        <pt x="952" y="1073" on="1"/>
        <pt x="880" y="1073" on="0"/>
        <pt x="836" y="1126" on="1"/>
        <pt x="873" y="1146" on="0"/>
        <pt x="930" y="1256" on="0"/>
        <pt x="930" y="1365" on="0"/>
        <pt x="873" y="1440" on="0"/>
        <pt x="748" y="1440" on="0"/>
        <pt x="641" y="1356" on="0"/>
        <pt x="594" y="1284" on="1"/>
        <pt x="499" y="1140" on="0"/>
        <pt x="379" y="692" on="0"/>
        <pt x="379" y="327" on="0"/>
        <pt x="486" y="164" on="0"/>
        <pt x="616" y="164" on="1"/>
        <pt x="872" y="164" on="0"/>
        <pt x="1024" y="369" on="1"/>
        <pt x="1071" y="348" on="1"/>
        <pt x="973" y="100" on="0"/>
        <pt x="698" y="4" on="1"/>
        <pt x="590" y="-34" on="0"/>
        <pt x="486" y="-34" on="1"/>
        <pt x="483" y="-34" on="0"/>
        <pt x="480" y="-34" on="1"/>
        <pt x="253" y="-32" on="0"/>
        <pt x="39" y="200" on="0"/>
        <pt x="39" y="714" on="0"/>
        <pt x="124" y="970" on="1"/>
        <pt x="223" y="1272" on="0"/>
        <pt x="416" y="1422" on="1"/>
        <pt x="564" y="1536" on="0"/>
        <pt x="754" y="1536" on="1"/>
        <pt x="992" y="1536" on="0"/>
        <pt x="1069" y="1387" on="1"/>
        <pt x="1096" y="1335" on="0"/>
      </contour>
      <contour>
        <pt x="764" y="1661" on="1"/>
        <pt x="721" y="1661" on="1"/>
        <pt x="598" y="2048" on="1"/>
        <pt x="663" y="2048" on="1"/>
        <pt x="786" y="1884" on="1"/>
        <pt x="1108" y="2048" on="1"/>
        <pt x="1198" y="2048" on="1"/>
      </contour>
    </TTGlyph>
    <TTGlyph name="Ccedilla" xMin="39" yMin="-446" xMax="1096" yMax="1536">
      <contour>
        <pt x="1096" y="1262" on="1"/>
        <pt x="1096" y="1073" on="0"/>
        <pt x="952" y="1073" on="1"/>
        <pt x="880" y="1073" on="0"/>
        <pt x="836" y="1126" on="1"/>
        <pt x="873" y="1146" on="0"/>
        <pt x="930" y="1256" on="0"/>
        <pt x="930" y="1365" on="0"/>
        <pt x="873" y="1440" on="0"/>
        <pt x="748" y="1440" on="0"/>
        <pt x="641" y="1356" on="0"/>
        <pt x="594" y="1284" on="1"/>
        <pt x="499" y="1140" on="0"/>
        <pt x="379" y="692" on="0"/>
        <pt x="379" y="327" on="0"/>
        <pt x="486" y="164" on="0"/>
        <pt x="616" y="164" on="1"/>
        <pt x="872" y="164" on="0"/>
        <pt x="1024" y="369" on="1"/>
        <pt x="1071" y="348" on="1"/>
        <pt x="973" y="100" on="0"/>
        <pt x="698" y="4" on="1"/>
        <pt x="624" y="-22" on="0"/>
        <pt x="547" y="-30" on="1"/>
        <pt x="505" y="-135" on="1"/>
        <pt x="569" y="-119" on="0"/>
        <pt x="614" y="-119" on="1"/>
        <pt x="741" y="-119" on="0"/>
        <pt x="741" y="-325" on="0"/>
        <pt x="592" y="-446" on="0"/>
        <pt x="418" y="-446" on="0"/>
        <pt x="345" y="-421" on="0"/>
        <pt x="322" y="-410" on="1"/>
        <pt x="276" y="-389" on="1"/>
        <pt x="314" y="-324" on="0"/>
        <pt x="352" y="-324" on="1"/>
        <pt x="405" y="-324" on="0"/>
        <pt x="482" y="-379" on="0"/>
        <pt x="536" y="-379" on="0"/>
        <pt x="571" y="-326" on="0"/>
        <pt x="571" y="-264" on="0"/>
        <pt x="534" y="-219" on="0"/>
        <pt x="435" y="-219" on="0"/>
        <pt x="385" y="-244" on="1"/>
        <pt x="460" y="-32" on="1"/>
        <pt x="250" y="-28" on="0"/>
        <pt x="39" y="200" on="0"/>
        <pt x="39" y="714" on="0"/>
        <pt x="124" y="970" on="1"/>
        <pt x="223" y="1272" on="0"/>
        <pt x="416" y="1422" on="1"/>
        <pt x="564" y="1536" on="0"/>
        <pt x="754" y="1536" on="1"/>
        <pt x="992" y="1536" on="0"/>
        <pt x="1069" y="1387" on="1"/>
        <pt x="1096" y="1335" on="0"/>
      </contour>
    </TTGlyph>
    <TTGlyph name="Ccircumflex" xMin="39" yMin="-34" xMax="1096" yMax="2048">
      <contour>
        <pt x="1096" y="1262" on="1"/>
        <pt x="1096" y="1073" on="0"/>
        <pt x="952" y="1073" on="1"/>
        <pt x="880" y="1073" on="0"/>
        <pt x="836" y="1126" on="1"/>
        <pt x="873" y="1146" on="0"/>
        <pt x="930" y="1256" on="0"/>
        <pt x="930" y="1365" on="0"/>
        <pt x="873" y="1440" on="0"/>
        <pt x="748" y="1440" on="0"/>
        <pt x="641" y="1356" on="0"/>
        <pt x="594" y="1284" on="1"/>
        <pt x="499" y="1140" on="0"/>
        <pt x="379" y="692" on="0"/>
        <pt x="379" y="327" on="0"/>
        <pt x="486" y="164" on="0"/>
        <pt x="616" y="164" on="1"/>
        <pt x="872" y="164" on="0"/>
        <pt x="1024" y="369" on="1"/>
        <pt x="1071" y="348" on="1"/>
        <pt x="973" y="100" on="0"/>
        <pt x="698" y="4" on="1"/>
        <pt x="590" y="-34" on="0"/>
        <pt x="486" y="-34" on="1"/>
        <pt x="483" y="-34" on="0"/>
        <pt x="480" y="-34" on="1"/>
        <pt x="253" y="-32" on="0"/>
        <pt x="39" y="200" on="0"/>
        <pt x="39" y="714" on="0"/>
        <pt x="124" y="970" on="1"/>
        <pt x="223" y="1272" on="0"/>
        <pt x="416" y="1422" on="1"/>
        <pt x="564" y="1536" on="0"/>
        <pt x="754" y="1536" on="1"/>
        <pt x="992" y="1536" on="0"/>
        <pt x="1069" y="1387" on="1"/>
        <pt x="1096" y="1335" on="0"/>
      </contour>
      <contour>
        <pt x="949" y="1661" on="1"/>
        <pt x="826" y="1825" on="1"/>
        <pt x="504" y="1661" on="1"/>
        <pt x="414" y="1661" on="1"/>
        <pt x="848" y="2048" on="1"/>
        <pt x="891" y="2048" on="1"/>
        <pt x="1014" y="1661" on="1"/>
      </contour>
    </TTGlyph>
    <TTGlyph name="D" xMin="12" yMin="-27" xMax="1321" yMax="1536">
      <contour>
        <pt x="969" y="59" on="1"/>
        <pt x="865" y="-27" on="0"/>
        <pt x="630" y="-27" on="0"/>
        <pt x="504" y="82" on="1"/>
        <pt x="487" y="0" on="1"/>
        <pt x="193" y="0" on="1"/>
        <pt x="471" y="1303" on="1"/>
        <pt x="774" y="1343" on="1"/>
        <pt x="528" y="195" on="1"/>
        <pt x="584" y="154" on="0"/>
        <pt x="645" y="154" on="1"/>
        <pt x="737" y="154" on="0"/>
        <pt x="810" y="236" on="1"/>
        <pt x="951" y="395" on="0"/>
        <pt x="1010" y="739" on="1"/>
        <pt x="1038" y="897" on="0"/>
        <pt x="1038" y="1055" on="1"/>
        <pt x="1038" y="1442" on="0"/>
        <pt x="739" y="1442" on="1"/>
        <pt x="505" y="1442" on="0"/>
        <pt x="203" y="1172" on="0"/>
        <pt x="203" y="944" on="1"/>
        <pt x="203" y="861" on="0"/>
        <pt x="226" y="819" on="1"/>
        <pt x="231" y="811" on="0"/>
        <pt x="231" y="805" on="1"/>
        <pt x="69" y="805" on="0"/>
        <pt x="27" y="906" on="1"/>
        <pt x="12" y="943" on="0"/>
        <pt x="12" y="1065" on="0"/>
        <pt x="67" y="1200" on="0"/>
        <pt x="117" y="1260" on="1"/>
        <pt x="219" y="1383" on="0"/>
        <pt x="571" y="1536" on="0"/>
        <pt x="774" y="1536" on="1"/>
        <pt x="1143" y="1536" on="0"/>
        <pt x="1268" y="1238" on="1"/>
        <pt x="1321" y="1111" on="0"/>
        <pt x="1321" y="768" on="0"/>
        <pt x="1274" y="594" on="1"/>
        <pt x="1177" y="231" on="0"/>
      </contour>
    </TTGlyph>
    <TTGlyph name="E" xMin="14" yMin="-37" xMax="1010" yMax="1540">
      <contour>
        <pt x="393" y="854" on="1"/>
        <pt x="268" y="945" on="0"/>
        <pt x="268" y="1265" on="0"/>
        <pt x="528" y="1540" on="0"/>
        <pt x="717" y="1540" on="1"/>
        <pt x="844" y="1540" on="0"/>
        <pt x="1010" y="1407" on="0"/>
        <pt x="1010" y="1192" on="0"/>
        <pt x="920" y="1071" on="0"/>
        <pt x="802" y="1071" on="0"/>
        <pt x="762" y="1126" on="1"/>
        <pt x="798" y="1140" on="0"/>
        <pt x="852" y="1248" on="0"/>
        <pt x="852" y="1367" on="0"/>
        <pt x="816" y="1393" on="1"/>
        <pt x="779" y="1419" on="0"/>
        <pt x="736" y="1419" on="1"/>
        <pt x="650" y="1419" on="0"/>
        <pt x="530" y="1242" on="0"/>
        <pt x="530" y="1130" on="1"/>
        <pt x="530" y="976" on="0"/>
        <pt x="642" y="898" on="1"/>
        <pt x="682" y="870" on="0"/>
        <pt x="737" y="856" on="1"/>
        <pt x="581" y="822" on="0"/>
        <pt x="371" y="516" on="0"/>
        <pt x="371" y="367" on="1"/>
        <pt x="371" y="281" on="0"/>
        <pt x="461" y="160" on="0"/>
        <pt x="667" y="160" on="0"/>
        <pt x="888" y="270" on="0"/>
        <pt x="944" y="369" on="1"/>
        <pt x="991" y="348" on="1"/>
        <pt x="910" y="170" on="0"/>
        <pt x="579" y="-37" on="0"/>
        <pt x="204" y="-37" on="0"/>
        <pt x="14" y="170" on="0"/>
        <pt x="14" y="494" on="0"/>
        <pt x="224" y="812" on="0"/>
      </contour>
    </TTGlyph>
    <TTGlyph name="E.salt" xMin="18" yMin="0" xMax="1241" yMax="1536">
      <contour>
        <pt x="1047" y="1290" on="1"/>
        <pt x="936" y="1290" on="0"/>
        <pt x="760" y="1329" on="1"/>
        <pt x="659" y="858" on="1"/>
        <pt x="975" y="858" on="1"/>
        <pt x="934" y="707" on="1"/>
        <pt x="627" y="707" on="1"/>
        <pt x="518" y="207" on="1"/>
        <pt x="977" y="207" on="1"/>
        <pt x="936" y="0" on="1"/>
        <pt x="180" y="0" on="1"/>
        <pt x="475" y="1368" on="1"/>
        <pt x="345" y="1364" on="0"/>
        <pt x="277" y="1270" on="1"/>
        <pt x="209" y="1177" on="0"/>
        <pt x="209" y="944" on="1"/>
        <pt x="209" y="863" on="0"/>
        <pt x="234" y="819" on="1"/>
        <pt x="238" y="811" on="0"/>
        <pt x="238" y="805" on="1"/>
        <pt x="73" y="805" on="0"/>
        <pt x="32" y="910" on="1"/>
        <pt x="18" y="948" on="0"/>
        <pt x="18" y="1106" on="0"/>
        <pt x="94" y="1298" on="0"/>
        <pt x="178" y="1372" on="1"/>
        <pt x="363" y="1536" on="0"/>
        <pt x="717" y="1536" on="1"/>
        <pt x="784" y="1536" on="0"/>
        <pt x="958" y="1511" on="0"/>
        <pt x="1164" y="1511" on="0"/>
        <pt x="1241" y="1536" on="1"/>
        <pt x="1222" y="1467" on="1"/>
        <pt x="1185" y="1320" on="0"/>
      </contour>
    </TTGlyph>
    <TTGlyph name="E_x" xMin="14" yMin="-33" xMax="1718" yMax="1540">
      <contour>
        <pt x="1348" y="1042" on="1"/>
        <pt x="1348" y="1139" on="0"/>
        <pt x="1473" y="1139" on="1"/>
        <pt x="1532" y="1139" on="0"/>
        <pt x="1602" y="1032" on="0"/>
        <pt x="1602" y="857" on="0"/>
        <pt x="1460" y="629" on="0"/>
        <pt x="1309" y="469" on="1"/>
        <pt x="1327" y="367" on="1"/>
        <pt x="1340" y="306" on="1"/>
        <pt x="1364" y="186" on="0"/>
        <pt x="1448" y="186" on="1"/>
        <pt x="1507" y="186" on="0"/>
        <pt x="1558" y="237" on="1"/>
        <pt x="1609" y="288" on="0"/>
        <pt x="1632" y="367" on="1"/>
        <pt x="1718" y="367" on="1"/>
        <pt x="1586" y="-12" on="0"/>
        <pt x="1296" y="-12" on="1"/>
        <pt x="1198" y="-12" on="0"/>
        <pt x="1095" y="116" on="0"/>
        <pt x="1061" y="258" on="1"/>
        <pt x="953" y="131" on="0"/>
        <pt x="579" y="-33" on="0"/>
        <pt x="403" y="-33" on="1"/>
        <pt x="133" y="-33" on="0"/>
        <pt x="45" y="159" on="1"/>
        <pt x="14" y="227" on="0"/>
        <pt x="14" y="316" on="1"/>
        <pt x="14" y="494" on="0"/>
        <pt x="224" y="812" on="0"/>
        <pt x="393" y="854" on="1"/>
        <pt x="268" y="945" on="0"/>
        <pt x="268" y="1265" on="0"/>
        <pt x="528" y="1540" on="0"/>
        <pt x="717" y="1540" on="1"/>
        <pt x="844" y="1540" on="0"/>
        <pt x="1010" y="1407" on="0"/>
        <pt x="1010" y="1192" on="0"/>
        <pt x="920" y="1071" on="0"/>
        <pt x="802" y="1071" on="0"/>
        <pt x="762" y="1126" on="1"/>
        <pt x="798" y="1140" on="0"/>
        <pt x="852" y="1248" on="0"/>
        <pt x="852" y="1367" on="0"/>
        <pt x="816" y="1393" on="1"/>
        <pt x="779" y="1419" on="0"/>
        <pt x="736" y="1419" on="1"/>
        <pt x="650" y="1419" on="0"/>
        <pt x="530" y="1242" on="0"/>
        <pt x="530" y="1130" on="1"/>
        <pt x="530" y="976" on="0"/>
        <pt x="642" y="898" on="1"/>
        <pt x="682" y="870" on="0"/>
        <pt x="737" y="856" on="1"/>
        <pt x="581" y="822" on="0"/>
        <pt x="371" y="516" on="0"/>
        <pt x="371" y="257" on="0"/>
        <pt x="488" y="158" on="0"/>
        <pt x="562" y="158" on="1"/>
        <pt x="690" y="158" on="0"/>
        <pt x="943" y="282" on="0"/>
        <pt x="1034" y="385" on="1"/>
        <pt x="932" y="946" on="1"/>
        <pt x="1221" y="946" on="1"/>
        <pt x="1286" y="582" on="1"/>
        <pt x="1481" y="790" on="0"/>
        <pt x="1481" y="907" on="1"/>
        <pt x="1481" y="922" on="0"/>
        <pt x="1479" y="932" on="1"/>
        <pt x="1459" y="928" on="0"/>
        <pt x="1444" y="928" on="1"/>
        <pt x="1348" y="928" on="0"/>
      </contour>
    </TTGlyph>
    <TTGlyph name="Eacute" xMin="14" yMin="-37" xMax="1077" yMax="2048">
      <contour>
        <pt x="393" y="854" on="1"/>
        <pt x="268" y="945" on="0"/>
        <pt x="268" y="1265" on="0"/>
        <pt x="528" y="1540" on="0"/>
        <pt x="717" y="1540" on="1"/>
        <pt x="844" y="1540" on="0"/>
        <pt x="1010" y="1407" on="0"/>
        <pt x="1010" y="1192" on="0"/>
        <pt x="920" y="1071" on="0"/>
        <pt x="802" y="1071" on="0"/>
        <pt x="762" y="1126" on="1"/>
        <pt x="798" y="1140" on="0"/>
        <pt x="852" y="1248" on="0"/>
        <pt x="852" y="1367" on="0"/>
        <pt x="816" y="1393" on="1"/>
        <pt x="779" y="1419" on="0"/>
        <pt x="736" y="1419" on="1"/>
        <pt x="650" y="1419" on="0"/>
        <pt x="530" y="1242" on="0"/>
        <pt x="530" y="1130" on="1"/>
        <pt x="530" y="976" on="0"/>
        <pt x="642" y="898" on="1"/>
        <pt x="682" y="870" on="0"/>
        <pt x="737" y="856" on="1"/>
        <pt x="581" y="822" on="0"/>
        <pt x="371" y="516" on="0"/>
        <pt x="371" y="367" on="1"/>
        <pt x="371" y="281" on="0"/>
        <pt x="461" y="160" on="0"/>
        <pt x="667" y="160" on="0"/>
        <pt x="888" y="270" on="0"/>
        <pt x="944" y="369" on="1"/>
        <pt x="991" y="348" on="1"/>
        <pt x="910" y="170" on="0"/>
        <pt x="579" y="-37" on="0"/>
        <pt x="204" y="-37" on="0"/>
        <pt x="14" y="170" on="0"/>
        <pt x="14" y="494" on="0"/>
        <pt x="224" y="812" on="0"/>
      </contour>
      <contour>
        <pt x="676" y="1661" on="1"/>
        <pt x="862" y="2048" on="1"/>
        <pt x="1077" y="2048" on="1"/>
        <pt x="829" y="1661" on="1"/>
      </contour>
    </TTGlyph>
    <TTGlyph name="Ecircumflex" xMin="14" yMin="-37" xMax="1014" yMax="2048">
      <contour>
        <pt x="393" y="854" on="1"/>
        <pt x="268" y="945" on="0"/>
        <pt x="268" y="1265" on="0"/>
        <pt x="528" y="1540" on="0"/>
        <pt x="717" y="1540" on="1"/>
        <pt x="844" y="1540" on="0"/>
        <pt x="1010" y="1407" on="0"/>
        <pt x="1010" y="1192" on="0"/>
        <pt x="920" y="1071" on="0"/>
        <pt x="802" y="1071" on="0"/>
        <pt x="762" y="1126" on="1"/>
        <pt x="798" y="1140" on="0"/>
        <pt x="852" y="1248" on="0"/>
        <pt x="852" y="1367" on="0"/>
        <pt x="816" y="1393" on="1"/>
        <pt x="779" y="1419" on="0"/>
        <pt x="736" y="1419" on="1"/>
        <pt x="650" y="1419" on="0"/>
        <pt x="530" y="1242" on="0"/>
        <pt x="530" y="1130" on="1"/>
        <pt x="530" y="976" on="0"/>
        <pt x="642" y="898" on="1"/>
        <pt x="682" y="870" on="0"/>
        <pt x="737" y="856" on="1"/>
        <pt x="581" y="822" on="0"/>
        <pt x="371" y="516" on="0"/>
        <pt x="371" y="367" on="1"/>
        <pt x="371" y="281" on="0"/>
        <pt x="461" y="160" on="0"/>
        <pt x="667" y="160" on="0"/>
        <pt x="888" y="270" on="0"/>
        <pt x="944" y="369" on="1"/>
        <pt x="991" y="348" on="1"/>
        <pt x="910" y="170" on="0"/>
        <pt x="579" y="-37" on="0"/>
        <pt x="204" y="-37" on="0"/>
        <pt x="14" y="170" on="0"/>
        <pt x="14" y="494" on="0"/>
        <pt x="224" y="812" on="0"/>
      </contour>
      <contour>
        <pt x="949" y="1661" on="1"/>
        <pt x="826" y="1825" on="1"/>
        <pt x="504" y="1661" on="1"/>
        <pt x="414" y="1661" on="1"/>
        <pt x="848" y="2048" on="1"/>
        <pt x="891" y="2048" on="1"/>
        <pt x="1014" y="1661" on="1"/>
      </contour>
    </TTGlyph>
    <TTGlyph name="Edieresis" xMin="14" yMin="-37" xMax="1106" yMax="1935">
      <contour>
        <pt x="393" y="854" on="1"/>
        <pt x="268" y="945" on="0"/>
        <pt x="268" y="1265" on="0"/>
        <pt x="528" y="1540" on="0"/>
        <pt x="717" y="1540" on="1"/>
        <pt x="844" y="1540" on="0"/>
        <pt x="1010" y="1407" on="0"/>
        <pt x="1010" y="1192" on="0"/>
        <pt x="920" y="1071" on="0"/>
        <pt x="802" y="1071" on="0"/>
        <pt x="762" y="1126" on="1"/>
        <pt x="798" y="1140" on="0"/>
        <pt x="852" y="1248" on="0"/>
        <pt x="852" y="1367" on="0"/>
        <pt x="816" y="1393" on="1"/>
        <pt x="779" y="1419" on="0"/>
        <pt x="736" y="1419" on="1"/>
        <pt x="650" y="1419" on="0"/>
        <pt x="530" y="1242" on="0"/>
        <pt x="530" y="1130" on="1"/>
        <pt x="530" y="976" on="0"/>
        <pt x="642" y="898" on="1"/>
        <pt x="682" y="870" on="0"/>
        <pt x="737" y="856" on="1"/>
        <pt x="581" y="822" on="0"/>
        <pt x="371" y="516" on="0"/>
        <pt x="371" y="367" on="1"/>
        <pt x="371" y="281" on="0"/>
        <pt x="461" y="160" on="0"/>
        <pt x="667" y="160" on="0"/>
        <pt x="888" y="270" on="0"/>
        <pt x="944" y="369" on="1"/>
        <pt x="991" y="348" on="1"/>
        <pt x="910" y="170" on="0"/>
        <pt x="579" y="-37" on="0"/>
        <pt x="204" y="-37" on="0"/>
        <pt x="14" y="170" on="0"/>
        <pt x="14" y="494" on="0"/>
        <pt x="224" y="812" on="0"/>
      </contour>
      <contour>
        <pt x="701" y="1721" on="1"/>
        <pt x="663" y="1686" on="0"/>
        <pt x="624" y="1686" on="1"/>
        <pt x="558" y="1686" on="0"/>
        <pt x="488" y="1757" on="0"/>
        <pt x="488" y="1861" on="0"/>
        <pt x="523" y="1898" on="1"/>
        <pt x="559" y="1935" on="0"/>
        <pt x="664" y="1935" on="0"/>
        <pt x="738" y="1862" on="0"/>
        <pt x="738" y="1757" on="0"/>
      </contour>
      <contour>
        <pt x="1069" y="1721" on="1"/>
        <pt x="1031" y="1686" on="0"/>
        <pt x="992" y="1686" on="1"/>
        <pt x="928" y="1686" on="0"/>
        <pt x="856" y="1756" on="0"/>
        <pt x="856" y="1862" on="0"/>
        <pt x="928" y="1935" on="0"/>
        <pt x="1032" y="1935" on="0"/>
        <pt x="1106" y="1862" on="0"/>
        <pt x="1106" y="1757" on="0"/>
      </contour>
    </TTGlyph>
    <TTGlyph name="Egrave" xMin="14" yMin="-37" xMax="1010" yMax="2048">
      <contour>
        <pt x="393" y="854" on="1"/>
        <pt x="268" y="945" on="0"/>
        <pt x="268" y="1265" on="0"/>
        <pt x="528" y="1540" on="0"/>
        <pt x="717" y="1540" on="1"/>
        <pt x="844" y="1540" on="0"/>
        <pt x="1010" y="1407" on="0"/>
        <pt x="1010" y="1192" on="0"/>
        <pt x="920" y="1071" on="0"/>
        <pt x="802" y="1071" on="0"/>
        <pt x="762" y="1126" on="1"/>
        <pt x="798" y="1140" on="0"/>
        <pt x="852" y="1248" on="0"/>
        <pt x="852" y="1367" on="0"/>
        <pt x="816" y="1393" on="1"/>
        <pt x="779" y="1419" on="0"/>
        <pt x="736" y="1419" on="1"/>
        <pt x="650" y="1419" on="0"/>
        <pt x="530" y="1242" on="0"/>
        <pt x="530" y="1130" on="1"/>
        <pt x="530" y="976" on="0"/>
        <pt x="642" y="898" on="1"/>
        <pt x="682" y="870" on="0"/>
        <pt x="737" y="856" on="1"/>
        <pt x="581" y="822" on="0"/>
        <pt x="371" y="516" on="0"/>
        <pt x="371" y="367" on="1"/>
        <pt x="371" y="281" on="0"/>
        <pt x="461" y="160" on="0"/>
        <pt x="667" y="160" on="0"/>
        <pt x="888" y="270" on="0"/>
        <pt x="944" y="369" on="1"/>
        <pt x="991" y="348" on="1"/>
        <pt x="910" y="170" on="0"/>
        <pt x="579" y="-37" on="0"/>
        <pt x="204" y="-37" on="0"/>
        <pt x="14" y="170" on="0"/>
        <pt x="14" y="494" on="0"/>
        <pt x="224" y="812" on="0"/>
      </contour>
      <contour>
        <pt x="637" y="1661" on="1"/>
        <pt x="516" y="2048" on="1"/>
        <pt x="731" y="2048" on="1"/>
        <pt x="791" y="1661" on="1"/>
      </contour>
    </TTGlyph>
    <TTGlyph name="Eogonek" xMin="23" yMin="-395" xMax="1022" yMax="1536">
      <contour>
        <pt x="1022" y="1262" on="1"/>
        <pt x="1022" y="1073" on="0"/>
        <pt x="879" y="1073" on="1"/>
        <pt x="807" y="1073" on="0"/>
        <pt x="762" y="1126" on="1"/>
        <pt x="796" y="1137" on="0"/>
        <pt x="852" y="1252" on="0"/>
        <pt x="852" y="1280" on="1"/>
        <pt x="852" y="1446" on="0"/>
        <pt x="717" y="1446" on="1"/>
        <pt x="608" y="1446" on="0"/>
        <pt x="467" y="1298" on="0"/>
        <pt x="467" y="1105" on="0"/>
        <pt x="529" y="1013" on="1"/>
        <pt x="592" y="922" on="0"/>
        <pt x="737" y="856" on="1"/>
        <pt x="553" y="779" on="0"/>
        <pt x="381" y="562" on="0"/>
        <pt x="381" y="332" on="0"/>
        <pt x="522" y="172" on="0"/>
        <pt x="740" y="172" on="0"/>
        <pt x="888" y="271" on="0"/>
        <pt x="944" y="369" on="1"/>
        <pt x="991" y="348" on="1"/>
        <pt x="951" y="227" on="0"/>
        <pt x="853" y="140" on="1"/>
        <pt x="812" y="103" on="0"/>
        <pt x="730" y="44" on="0"/>
        <pt x="697" y="10" on="1"/>
        <pt x="623" y="-65" on="0"/>
        <pt x="623" y="-172" on="1"/>
        <pt x="623" y="-207" on="0"/>
        <pt x="659" y="-274" on="0"/>
        <pt x="740" y="-274" on="0"/>
        <pt x="775" y="-249" on="1"/>
        <pt x="842" y="-205" on="1"/>
        <pt x="838" y="-241" on="0"/>
        <pt x="838" y="-268" on="1"/>
        <pt x="797" y="-308" on="1"/>
        <pt x="709" y="-395" on="0"/>
        <pt x="536" y="-395" on="0"/>
        <pt x="453" y="-297" on="0"/>
        <pt x="453" y="-238" on="1"/>
        <pt x="453" y="-114" on="0"/>
        <pt x="600" y="2" on="1"/>
        <pt x="532" y="-12" on="0"/>
        <pt x="436" y="-12" on="1"/>
        <pt x="246" y="-12" on="0"/>
        <pt x="23" y="230" on="0"/>
        <pt x="23" y="558" on="0"/>
        <pt x="217" y="818" on="0"/>
        <pt x="393" y="854" on="1"/>
        <pt x="190" y="963" on="0"/>
        <pt x="190" y="1165" on="1"/>
        <pt x="190" y="1313" on="0"/>
        <pt x="438" y="1536" on="0"/>
        <pt x="645" y="1536" on="1"/>
        <pt x="802" y="1536" on="0"/>
        <pt x="1022" y="1399" on="0"/>
      </contour>
    </TTGlyph>
    <TTGlyph name="Eth" xMin="12" yMin="-27" xMax="1321" yMax="1536">
      <contour>
        <pt x="1275" y="602" on="1"/>
        <pt x="1178" y="223" on="0"/>
        <pt x="968" y="56" on="1"/>
        <pt x="865" y="-27" on="0"/>
        <pt x="630" y="-27" on="0"/>
        <pt x="504" y="82" on="1"/>
        <pt x="487" y="0" on="1"/>
        <pt x="193" y="0" on="1"/>
        <pt x="344" y="707" on="1"/>
        <pt x="264" y="707" on="1"/>
        <pt x="305" y="858" on="1"/>
        <pt x="377" y="858" on="1"/>
        <pt x="471" y="1303" on="1"/>
        <pt x="774" y="1343" on="1"/>
        <pt x="670" y="858" on="1"/>
        <pt x="831" y="858" on="1"/>
        <pt x="791" y="707" on="1"/>
        <pt x="637" y="707" on="1"/>
        <pt x="528" y="195" on="1"/>
        <pt x="584" y="154" on="0"/>
        <pt x="645" y="154" on="1"/>
        <pt x="737" y="154" on="0"/>
        <pt x="810" y="236" on="1"/>
        <pt x="950" y="393" on="0"/>
        <pt x="1010" y="736" on="1"/>
        <pt x="1038" y="891" on="0"/>
        <pt x="1038" y="1137" on="0"/>
        <pt x="1016" y="1287" on="0"/>
        <pt x="985" y="1338" on="1"/>
        <pt x="922" y="1442" on="0"/>
        <pt x="756" y="1442" on="1"/>
        <pt x="504" y="1442" on="0"/>
        <pt x="354" y="1308" on="1"/>
        <pt x="203" y="1174" on="0"/>
        <pt x="203" y="944" on="1"/>
        <pt x="203" y="861" on="0"/>
        <pt x="226" y="819" on="1"/>
        <pt x="231" y="811" on="0"/>
        <pt x="231" y="805" on="1"/>
        <pt x="67" y="805" on="0"/>
        <pt x="26" y="910" on="1"/>
        <pt x="12" y="948" on="0"/>
        <pt x="12" y="1004" on="1"/>
        <pt x="12" y="1107" on="0"/>
        <pt x="141" y="1298" on="0"/>
        <pt x="243" y="1372" on="1"/>
        <pt x="476" y="1536" on="0"/>
        <pt x="731" y="1536" on="1"/>
        <pt x="1321" y="1536" on="0"/>
        <pt x="1321" y="983" on="1"/>
        <pt x="1321" y="782" on="0"/>
      </contour>
    </TTGlyph>
    <TTGlyph name="Euro" xMin="-6" yMin="-12" xMax="1214" yMax="1536">
      <contour>
        <pt x="1214" y="1262" on="1"/>
        <pt x="1214" y="1073" on="0"/>
        <pt x="1071" y="1073" on="1"/>
        <pt x="999" y="1073" on="0"/>
        <pt x="954" y="1126" on="1"/>
        <pt x="1009" y="1146" on="0"/>
        <pt x="1037" y="1249" on="1"/>
        <pt x="1044" y="1275" on="0"/>
        <pt x="1044" y="1291" on="1"/>
        <pt x="1044" y="1344" on="0"/>
        <pt x="1023" y="1380" on="1"/>
        <pt x="988" y="1440" on="0"/>
        <pt x="913" y="1440" on="1"/>
        <pt x="781" y="1440" on="0"/>
        <pt x="588" y="1143" on="0"/>
        <pt x="535" y="920" on="1"/>
        <pt x="948" y="920" on="1"/>
        <pt x="920" y="817" on="1"/>
        <pt x="512" y="817" on="1"/>
        <pt x="506" y="782" on="0"/>
        <pt x="500" y="717" on="0"/>
        <pt x="496" y="684" on="1"/>
        <pt x="897" y="684" on="1"/>
        <pt x="868" y="582" on="1"/>
        <pt x="489" y="582" on="1"/>
        <pt x="489" y="555" on="1"/>
        <pt x="489" y="344" on="0"/>
        <pt x="599" y="172" on="0"/>
        <pt x="933" y="172" on="0"/>
        <pt x="1014" y="214" on="1"/>
        <pt x="1045" y="230" on="0"/>
        <pt x="1075" y="254" on="1"/>
        <pt x="1079" y="195" on="1"/>
        <pt x="989" y="75" on="0"/>
        <pt x="762" y="-12" on="0"/>
        <pt x="433" y="-12" on="0"/>
        <pt x="315" y="92" on="1"/>
        <pt x="168" y="220" on="0"/>
        <pt x="168" y="510" on="1"/>
        <pt x="168" y="582" on="1"/>
        <pt x="-6" y="582" on="1"/>
        <pt x="23" y="684" on="1"/>
        <pt x="174" y="684" on="1"/>
        <pt x="186" y="786" on="0"/>
        <pt x="190" y="817" on="1"/>
        <pt x="45" y="817" on="1"/>
        <pt x="74" y="920" on="1"/>
        <pt x="211" y="920" on="1"/>
        <pt x="312" y="1349" on="0"/>
        <pt x="605" y="1486" on="1"/>
        <pt x="713" y="1536" on="0"/>
        <pt x="858" y="1536" on="1"/>
        <pt x="1104" y="1536" on="0"/>
        <pt x="1186" y="1387" on="1"/>
        <pt x="1214" y="1335" on="0"/>
      </contour>
    </TTGlyph>
    <TTGlyph name="F" xMin="18" yMin="0" xMax="1241" yMax="1536">
      <contour>
        <pt x="1047" y="1290" on="1"/>
        <pt x="936" y="1290" on="0"/>
        <pt x="760" y="1329" on="1"/>
        <pt x="674" y="922" on="1"/>
        <pt x="973" y="922" on="1"/>
        <pt x="940" y="770" on="1"/>
        <pt x="641" y="770" on="1"/>
        <pt x="475" y="0" on="1"/>
        <pt x="180" y="0" on="1"/>
        <pt x="475" y="1368" on="1"/>
        <pt x="345" y="1364" on="0"/>
        <pt x="277" y="1270" on="1"/>
        <pt x="209" y="1177" on="0"/>
        <pt x="209" y="944" on="1"/>
        <pt x="209" y="863" on="0"/>
        <pt x="234" y="819" on="1"/>
        <pt x="238" y="811" on="0"/>
        <pt x="238" y="805" on="1"/>
        <pt x="73" y="805" on="0"/>
        <pt x="32" y="910" on="1"/>
        <pt x="18" y="948" on="0"/>
        <pt x="18" y="1106" on="0"/>
        <pt x="94" y="1298" on="0"/>
        <pt x="178" y="1372" on="1"/>
        <pt x="363" y="1536" on="0"/>
        <pt x="717" y="1536" on="1"/>
        <pt x="784" y="1536" on="0"/>
        <pt x="958" y="1511" on="0"/>
        <pt x="1164" y="1511" on="0"/>
        <pt x="1241" y="1536" on="1"/>
        <pt x="1222" y="1467" on="1"/>
        <pt x="1185" y="1320" on="0"/>
      </contour>
    </TTGlyph>
    <TTGlyph name="F_i" xMin="18" yMin="-12" xMax="1573" yMax="1536">
      <contour>
        <pt x="221" y="0" on="1"/>
        <pt x="516" y="1368" on="1"/>
        <pt x="494" y="1368" on="1"/>
        <pt x="357" y="1368" on="0"/>
        <pt x="209" y="1181" on="0"/>
        <pt x="209" y="944" on="1"/>
        <pt x="209" y="863" on="0"/>
        <pt x="234" y="819" on="1"/>
        <pt x="238" y="811" on="0"/>
        <pt x="238" y="805" on="1"/>
        <pt x="73" y="805" on="0"/>
        <pt x="32" y="910" on="1"/>
        <pt x="18" y="948" on="0"/>
        <pt x="18" y="1106" on="0"/>
        <pt x="94" y="1298" on="0"/>
        <pt x="178" y="1372" on="1"/>
        <pt x="363" y="1536" on="0"/>
        <pt x="717" y="1536" on="1"/>
        <pt x="769" y="1536" on="0"/>
        <pt x="824" y="1530" on="1"/>
        <pt x="936" y="1516" on="1"/>
        <pt x="1096" y="1495" on="0"/>
        <pt x="1343" y="1495" on="0"/>
        <pt x="1487" y="1534" on="1"/>
        <pt x="1449" y="1319" on="0"/>
        <pt x="1336" y="1246" on="1"/>
        <pt x="1293" y="1217" on="0"/>
        <pt x="1169" y="1217" on="0"/>
        <pt x="1067" y="1241" on="0"/>
        <pt x="969" y="1275" on="0"/>
        <pt x="867" y="1315" on="0"/>
        <pt x="803" y="1331" on="1"/>
        <pt x="715" y="922" on="1"/>
        <pt x="973" y="922" on="1"/>
        <pt x="940" y="770" on="1"/>
        <pt x="682" y="770" on="1"/>
        <pt x="516" y="0" on="1"/>
      </contour>
      <contour>
        <pt x="1573" y="367" on="1"/>
        <pt x="1441" y="-12" on="0"/>
        <pt x="1132" y="-12" on="1"/>
        <pt x="1051" y="-12" on="0"/>
        <pt x="987" y="46" on="1"/>
        <pt x="924" y="104" on="0"/>
        <pt x="924" y="233" on="1"/>
        <pt x="924" y="291" on="0"/>
        <pt x="940" y="367" on="1"/>
        <pt x="1079" y="1024" on="1"/>
        <pt x="1374" y="1024" on="1"/>
        <pt x="1227" y="328" on="1"/>
        <pt x="1219" y="291" on="0"/>
        <pt x="1219" y="255" on="1"/>
        <pt x="1219" y="186" on="0"/>
        <pt x="1302" y="186" on="1"/>
        <pt x="1362" y="186" on="0"/>
        <pt x="1465" y="290" on="0"/>
        <pt x="1487" y="367" on="1"/>
      </contour>
    </TTGlyph>
    <TTGlyph name="G" xMin="39" yMin="-424" xMax="1145" yMax="1536">
      <contour>
        <pt x="950" y="1279" on="1"/>
        <pt x="950" y="1440" on="0"/>
        <pt x="809" y="1440" on="1"/>
        <pt x="726" y="1440" on="0"/>
        <pt x="559" y="1310" on="0"/>
        <pt x="432" y="1108" on="0"/>
        <pt x="354" y="854" on="0"/>
        <pt x="354" y="759" on="1"/>
        <pt x="354" y="585" on="0"/>
        <pt x="472" y="393" on="0"/>
        <pt x="708" y="393" on="0"/>
        <pt x="766" y="469" on="1"/>
        <pt x="854" y="858" on="1"/>
        <pt x="1118" y="856" on="1"/>
        <pt x="950" y="86" on="1"/>
        <pt x="898" y="-167" on="0"/>
        <pt x="664" y="-424" on="0"/>
        <pt x="426" y="-424" on="1"/>
        <pt x="290" y="-424" on="0"/>
        <pt x="141" y="-258" on="0"/>
        <pt x="141" y="-30" on="0"/>
        <pt x="276" y="139" on="0"/>
        <pt x="479" y="139" on="0"/>
        <pt x="515" y="122" on="1"/>
        <pt x="592" y="88" on="0"/>
        <pt x="592" y="2" on="1"/>
        <pt x="592" y="-35" on="0"/>
        <pt x="580" y="-80" on="1"/>
        <pt x="517" y="-27" on="0"/>
        <pt x="385" y="-27" on="0"/>
        <pt x="313" y="-126" on="0"/>
        <pt x="313" y="-235" on="0"/>
        <pt x="376" y="-322" on="0"/>
        <pt x="478" y="-322" on="0"/>
        <pt x="508" y="-312" on="1"/>
        <pt x="600" y="-283" on="0"/>
        <pt x="647" y="-70" on="1"/>
        <pt x="729" y="297" on="1"/>
        <pt x="593" y="223" on="0"/>
        <pt x="473" y="223" on="1"/>
        <pt x="244" y="223" on="0"/>
        <pt x="133" y="379" on="1"/>
        <pt x="39" y="512" on="0"/>
        <pt x="39" y="748" on="1"/>
        <pt x="39" y="896" on="0"/>
        <pt x="88" y="1038" on="1"/>
        <pt x="163" y="1251" on="0"/>
        <pt x="516" y="1536" on="0"/>
        <pt x="1019" y="1536" on="0"/>
        <pt x="1112" y="1387" on="1"/>
        <pt x="1145" y="1335" on="0"/>
        <pt x="1145" y="1262" on="1"/>
        <pt x="1145" y="1073" on="0"/>
        <pt x="1001" y="1073" on="1"/>
        <pt x="906" y="1073" on="0"/>
        <pt x="860" y="1126" on="1"/>
        <pt x="894" y="1139" on="0"/>
        <pt x="950" y="1251" on="0"/>
      </contour>
    </TTGlyph>
    <TTGlyph name="H" xMin="25" yMin="0" xMax="1421" yMax="1536">
      <contour>
        <pt x="801" y="0" on="1"/>
        <pt x="965" y="770" on="1"/>
        <pt x="664" y="770" on="1"/>
        <pt x="500" y="0" on="1"/>
        <pt x="205" y="0" on="1"/>
        <pt x="502" y="1393" on="1"/>
        <pt x="366" y="1335" on="0"/>
        <pt x="215" y="1109" on="0"/>
        <pt x="215" y="944" on="1"/>
        <pt x="215" y="863" on="0"/>
        <pt x="240" y="819" on="1"/>
        <pt x="244" y="811" on="0"/>
        <pt x="244" y="805" on="1"/>
        <pt x="78" y="805" on="0"/>
        <pt x="39" y="910" on="1"/>
        <pt x="25" y="948" on="0"/>
        <pt x="25" y="1004" on="1"/>
        <pt x="25" y="1107" on="0"/>
        <pt x="90" y="1202" on="1"/>
        <pt x="221" y="1397" on="0"/>
        <pt x="486" y="1491" on="1"/>
        <pt x="613" y="1536" on="0"/>
        <pt x="743" y="1536" on="1"/>
        <pt x="785" y="1536" on="0"/>
        <pt x="825" y="1532" on="1"/>
        <pt x="694" y="922" on="1"/>
        <pt x="995" y="922" on="1"/>
        <pt x="1126" y="1532" on="1"/>
        <pt x="1421" y="1532" on="1"/>
        <pt x="1096" y="0" on="1"/>
      </contour>
    </TTGlyph>
    <TTGlyph name="I" xMin="12" yMin="0" xMax="813" yMax="1536">
      <contour>
        <pt x="489" y="1391" on="1"/>
        <pt x="203" y="1271" on="0"/>
        <pt x="203" y="944" on="1"/>
        <pt x="203" y="861" on="0"/>
        <pt x="226" y="819" on="1"/>
        <pt x="231" y="811" on="0"/>
        <pt x="231" y="805" on="1"/>
        <pt x="67" y="805" on="0"/>
        <pt x="26" y="910" on="1"/>
        <pt x="12" y="948" on="0"/>
        <pt x="12" y="1004" on="1"/>
        <pt x="12" y="1107" on="0"/>
        <pt x="141" y="1298" on="0"/>
        <pt x="243" y="1372" on="1"/>
        <pt x="476" y="1536" on="0"/>
        <pt x="731" y="1536" on="1"/>
        <pt x="773" y="1536" on="0"/>
        <pt x="813" y="1532" on="1"/>
        <pt x="487" y="0" on="1"/>
        <pt x="193" y="0" on="1"/>
      </contour>
    </TTGlyph>
    <TTGlyph name="IJ" xMin="12" yMin="-424" xMax="1378" yMax="1536">
      <contour>
        <pt x="559" y="-424" on="1"/>
        <pt x="229" y="-424" on="0"/>
        <pt x="229" y="-132" on="1"/>
        <pt x="229" y="-61" on="0"/>
        <pt x="261" y="0" on="1"/>
        <pt x="193" y="0" on="1"/>
        <pt x="489" y="1391" on="1"/>
        <pt x="203" y="1271" on="0"/>
        <pt x="203" y="944" on="1"/>
        <pt x="203" y="861" on="0"/>
        <pt x="226" y="819" on="1"/>
        <pt x="231" y="811" on="0"/>
        <pt x="231" y="805" on="1"/>
        <pt x="67" y="805" on="0"/>
        <pt x="26" y="910" on="1"/>
        <pt x="12" y="948" on="0"/>
        <pt x="12" y="1004" on="1"/>
        <pt x="12" y="1107" on="0"/>
        <pt x="141" y="1298" on="0"/>
        <pt x="243" y="1372" on="1"/>
        <pt x="476" y="1536" on="0"/>
        <pt x="731" y="1536" on="1"/>
        <pt x="773" y="1536" on="0"/>
        <pt x="813" y="1532" on="1"/>
        <pt x="512" y="118" on="1"/>
        <pt x="566" y="111" on="0"/>
        <pt x="649" y="48" on="0"/>
        <pt x="649" y="-12" on="1"/>
        <pt x="649" y="-40" on="0"/>
        <pt x="635" y="-80" on="1"/>
        <pt x="588" y="-33" on="0"/>
        <pt x="479" y="-33" on="0"/>
        <pt x="440" y="-77" on="1"/>
        <pt x="401" y="-121" on="0"/>
        <pt x="401" y="-166" on="1"/>
        <pt x="401" y="-243" on="0"/>
        <pt x="480" y="-322" on="0"/>
        <pt x="613" y="-322" on="0"/>
        <pt x="705" y="-213" on="0"/>
        <pt x="735" y="-70" on="1"/>
        <pt x="1071" y="1468" on="1"/>
        <pt x="1378" y="1536" on="1"/>
        <pt x="1071" y="82" on="1"/>
        <pt x="967" y="-424" on="0"/>
      </contour>
    </TTGlyph>
    <TTGlyph name="Iacute" xMin="12" yMin="0" xMax="952" yMax="2048">
      <contour>
        <pt x="489" y="1391" on="1"/>
        <pt x="203" y="1271" on="0"/>
        <pt x="203" y="944" on="1"/>
        <pt x="203" y="861" on="0"/>
        <pt x="226" y="819" on="1"/>
        <pt x="231" y="811" on="0"/>
        <pt x="231" y="805" on="1"/>
        <pt x="67" y="805" on="0"/>
        <pt x="26" y="910" on="1"/>
        <pt x="12" y="948" on="0"/>
        <pt x="12" y="1004" on="1"/>
        <pt x="12" y="1107" on="0"/>
        <pt x="141" y="1298" on="0"/>
        <pt x="243" y="1372" on="1"/>
        <pt x="476" y="1536" on="0"/>
        <pt x="731" y="1536" on="1"/>
        <pt x="773" y="1536" on="0"/>
        <pt x="813" y="1532" on="1"/>
        <pt x="487" y="0" on="1"/>
        <pt x="193" y="0" on="1"/>
      </contour>
      <contour>
        <pt x="551" y="1661" on="1"/>
        <pt x="737" y="2048" on="1"/>
        <pt x="952" y="2048" on="1"/>
        <pt x="704" y="1661" on="1"/>
      </contour>
    </TTGlyph>
    <TTGlyph name="Icircumflex" xMin="12" yMin="0" xMax="909" yMax="2048">
      <contour>
        <pt x="489" y="1391" on="1"/>
        <pt x="203" y="1271" on="0"/>
        <pt x="203" y="944" on="1"/>
        <pt x="203" y="861" on="0"/>
        <pt x="226" y="819" on="1"/>
        <pt x="231" y="811" on="0"/>
        <pt x="231" y="805" on="1"/>
        <pt x="67" y="805" on="0"/>
        <pt x="26" y="910" on="1"/>
        <pt x="12" y="948" on="0"/>
        <pt x="12" y="1004" on="1"/>
        <pt x="12" y="1107" on="0"/>
        <pt x="141" y="1298" on="0"/>
        <pt x="243" y="1372" on="1"/>
        <pt x="476" y="1536" on="0"/>
        <pt x="731" y="1536" on="1"/>
        <pt x="773" y="1536" on="0"/>
        <pt x="813" y="1532" on="1"/>
        <pt x="487" y="0" on="1"/>
        <pt x="193" y="0" on="1"/>
      </contour>
      <contour>
        <pt x="844" y="1661" on="1"/>
        <pt x="721" y="1825" on="1"/>
        <pt x="399" y="1661" on="1"/>
        <pt x="309" y="1661" on="1"/>
        <pt x="743" y="2048" on="1"/>
        <pt x="786" y="2048" on="1"/>
        <pt x="909" y="1661" on="1"/>
      </contour>
    </TTGlyph>
    <TTGlyph name="Idieresis" xMin="12" yMin="0" xMax="960" yMax="1935">
      <contour>
        <pt x="489" y="1391" on="1"/>
        <pt x="203" y="1271" on="0"/>
        <pt x="203" y="944" on="1"/>
        <pt x="203" y="861" on="0"/>
        <pt x="226" y="819" on="1"/>
        <pt x="231" y="811" on="0"/>
        <pt x="231" y="805" on="1"/>
        <pt x="67" y="805" on="0"/>
        <pt x="26" y="910" on="1"/>
        <pt x="12" y="948" on="0"/>
        <pt x="12" y="1004" on="1"/>
        <pt x="12" y="1107" on="0"/>
        <pt x="141" y="1298" on="0"/>
        <pt x="243" y="1372" on="1"/>
        <pt x="476" y="1536" on="0"/>
        <pt x="731" y="1536" on="1"/>
        <pt x="773" y="1536" on="0"/>
        <pt x="813" y="1532" on="1"/>
        <pt x="487" y="0" on="1"/>
        <pt x="193" y="0" on="1"/>
      </contour>
      <contour>
        <pt x="555" y="1721" on="1"/>
        <pt x="517" y="1686" on="0"/>
        <pt x="478" y="1686" on="1"/>
        <pt x="412" y="1686" on="0"/>
        <pt x="342" y="1757" on="0"/>
        <pt x="342" y="1861" on="0"/>
        <pt x="377" y="1898" on="1"/>
        <pt x="413" y="1935" on="0"/>
        <pt x="518" y="1935" on="0"/>
        <pt x="592" y="1862" on="0"/>
        <pt x="592" y="1757" on="0"/>
      </contour>
      <contour>
        <pt x="923" y="1721" on="1"/>
        <pt x="885" y="1686" on="0"/>
        <pt x="846" y="1686" on="1"/>
        <pt x="782" y="1686" on="0"/>
        <pt x="710" y="1756" on="0"/>
        <pt x="710" y="1862" on="0"/>
        <pt x="782" y="1935" on="0"/>
        <pt x="886" y="1935" on="0"/>
        <pt x="960" y="1862" on="0"/>
        <pt x="960" y="1757" on="0"/>
      </contour>
    </TTGlyph>
    <TTGlyph name="Igrave" xMin="12" yMin="0" xMax="813" yMax="2048">
      <contour>
        <pt x="489" y="1391" on="1"/>
        <pt x="203" y="1271" on="0"/>
        <pt x="203" y="944" on="1"/>
        <pt x="203" y="861" on="0"/>
        <pt x="226" y="819" on="1"/>
        <pt x="231" y="811" on="0"/>
        <pt x="231" y="805" on="1"/>
        <pt x="67" y="805" on="0"/>
        <pt x="26" y="910" on="1"/>
        <pt x="12" y="948" on="0"/>
        <pt x="12" y="1004" on="1"/>
        <pt x="12" y="1107" on="0"/>
        <pt x="141" y="1298" on="0"/>
        <pt x="243" y="1372" on="1"/>
        <pt x="476" y="1536" on="0"/>
        <pt x="731" y="1536" on="1"/>
        <pt x="773" y="1536" on="0"/>
        <pt x="813" y="1532" on="1"/>
        <pt x="487" y="0" on="1"/>
        <pt x="193" y="0" on="1"/>
      </contour>
      <contour>
        <pt x="471" y="1661" on="1"/>
        <pt x="350" y="2048" on="1"/>
        <pt x="565" y="2048" on="1"/>
        <pt x="625" y="1661" on="1"/>
      </contour>
    </TTGlyph>
    <TTGlyph name="J" xMin="35" yMin="-424" xMax="1184" yMax="1536">
      <contour>
        <pt x="862" y="1393" on="1"/>
        <pt x="727" y="1337" on="0"/>
        <pt x="573" y="1110" on="0"/>
        <pt x="573" y="944" on="1"/>
        <pt x="573" y="863" on="0"/>
        <pt x="598" y="819" on="1"/>
        <pt x="602" y="811" on="0"/>
        <pt x="602" y="805" on="1"/>
        <pt x="438" y="805" on="0"/>
        <pt x="398" y="910" on="1"/>
        <pt x="383" y="948" on="0"/>
        <pt x="383" y="1004" on="1"/>
        <pt x="383" y="1107" on="0"/>
        <pt x="512" y="1298" on="0"/>
        <pt x="614" y="1372" on="1"/>
        <pt x="847" y="1536" on="0"/>
        <pt x="1102" y="1536" on="1"/>
        <pt x="1184" y="1536" on="1"/>
        <pt x="877" y="82" on="1"/>
        <pt x="823" y="-168" on="0"/>
        <pt x="578" y="-424" on="0"/>
        <pt x="338" y="-424" on="1"/>
        <pt x="190" y="-424" on="0"/>
        <pt x="112" y="-344" on="1"/>
        <pt x="35" y="-264" on="0"/>
        <pt x="35" y="-25" on="0"/>
        <pt x="169" y="139" on="0"/>
        <pt x="372" y="139" on="0"/>
        <pt x="408" y="122" on="1"/>
        <pt x="485" y="88" on="0"/>
        <pt x="485" y="2" on="1"/>
        <pt x="485" y="-35" on="0"/>
        <pt x="473" y="-80" on="1"/>
        <pt x="416" y="-34" on="0"/>
        <pt x="365" y="-27" on="0"/>
        <pt x="350" y="-27" on="1"/>
        <pt x="279" y="-27" on="0"/>
        <pt x="243" y="-74" on="1"/>
        <pt x="207" y="-121" on="0"/>
        <pt x="207" y="-170" on="1"/>
        <pt x="207" y="-252" on="0"/>
        <pt x="292" y="-322" on="0"/>
        <pt x="336" y="-322" on="1"/>
        <pt x="419" y="-322" on="0"/>
        <pt x="505" y="-223" on="0"/>
        <pt x="541" y="-70" on="1"/>
      </contour>
    </TTGlyph>
    <TTGlyph name="K" xMin="12" yMin="-35" xMax="1360" yMax="1536">
      <contour>
        <pt x="842" y="641" on="1"/>
        <pt x="842" y="780" on="0"/>
        <pt x="719" y="780" on="1"/>
        <pt x="691" y="780" on="0"/>
        <pt x="651" y="772" on="1"/>
        <pt x="487" y="0" on="1"/>
        <pt x="193" y="0" on="1"/>
        <pt x="489" y="1393" on="1"/>
        <pt x="353" y="1335" on="0"/>
        <pt x="203" y="1109" on="0"/>
        <pt x="203" y="944" on="1"/>
        <pt x="203" y="861" on="0"/>
        <pt x="226" y="819" on="1"/>
        <pt x="231" y="811" on="0"/>
        <pt x="231" y="805" on="1"/>
        <pt x="67" y="805" on="0"/>
        <pt x="26" y="910" on="1"/>
        <pt x="12" y="948" on="0"/>
        <pt x="12" y="1004" on="1"/>
        <pt x="12" y="1107" on="0"/>
        <pt x="141" y="1298" on="0"/>
        <pt x="243" y="1372" on="1"/>
        <pt x="476" y="1536" on="0"/>
        <pt x="731" y="1536" on="1"/>
        <pt x="773" y="1536" on="0"/>
        <pt x="813" y="1532" on="1"/>
        <pt x="680" y="905" on="1"/>
        <pt x="680" y="905" on="0"/>
        <pt x="1130" y="1508" on="1"/>
        <pt x="1145" y="1526" on="1"/>
        <pt x="1360" y="1526" on="1"/>
        <pt x="791" y="870" on="1"/>
        <pt x="862" y="872" on="1"/>
        <pt x="1067" y="872" on="0"/>
        <pt x="1104" y="740" on="1"/>
        <pt x="1116" y="700" on="0"/>
        <pt x="1116" y="645" on="1"/>
        <pt x="1116" y="562" on="0"/>
        <pt x="1016" y="198" on="0"/>
        <pt x="1016" y="143" on="1"/>
        <pt x="1016" y="30" on="0"/>
        <pt x="1096" y="0" on="1"/>
        <pt x="968" y="-35" on="0"/>
        <pt x="893" y="-35" on="1"/>
        <pt x="733" y="-35" on="0"/>
        <pt x="733" y="102" on="1"/>
        <pt x="734" y="174" on="0"/>
        <pt x="841" y="555" on="0"/>
      </contour>
    </TTGlyph>
    <TTGlyph name="L" xMin="12" yMin="-512" xMax="1358" yMax="1516">
      <contour>
        <pt x="489" y="1370" on="1"/>
        <pt x="353" y="1315" on="0"/>
        <pt x="203" y="1091" on="0"/>
        <pt x="203" y="924" on="1"/>
        <pt x="203" y="841" on="0"/>
        <pt x="226" y="799" on="1"/>
        <pt x="231" y="791" on="0"/>
        <pt x="231" y="784" on="1"/>
        <pt x="67" y="784" on="0"/>
        <pt x="26" y="889" on="1"/>
        <pt x="12" y="927" on="0"/>
        <pt x="12" y="983" on="1"/>
        <pt x="12" y="1183" on="0"/>
        <pt x="243" y="1351" on="1"/>
        <pt x="477" y="1516" on="0"/>
        <pt x="731" y="1516" on="1"/>
        <pt x="763" y="1516" on="0"/>
        <pt x="813" y="1511" on="1"/>
        <pt x="498" y="41" on="1"/>
        <pt x="582" y="22" on="0"/>
        <pt x="675" y="-28" on="1"/>
        <pt x="824" y="-109" on="1"/>
        <pt x="1031" y="-223" on="0"/>
        <pt x="1186" y="-223" on="1"/>
        <pt x="1280" y="-223" on="0"/>
        <pt x="1358" y="-190" on="1"/>
        <pt x="1342" y="-336" on="0"/>
        <pt x="1229" y="-512" on="0"/>
        <pt x="1145" y="-512" on="1"/>
        <pt x="1013" y="-512" on="0"/>
        <pt x="832" y="-372" on="1"/>
        <pt x="832" y="-372" on="0"/>
        <pt x="598" y="-192" on="1"/>
        <pt x="400" y="-47" on="0"/>
        <pt x="231" y="-47" on="1"/>
        <pt x="208" y="-47" on="1"/>
        <pt x="197" y="-47" on="0"/>
        <pt x="184" y="-49" on="1"/>
      </contour>
    </TTGlyph>
    <TTGlyph name="Lslash" xMin="12" yMin="-512" xMax="1358" yMax="1516">
      <contour>
        <pt x="328" y="604" on="1"/>
        <pt x="195" y="524" on="1"/>
        <pt x="199" y="633" on="1"/>
        <pt x="354" y="733" on="1"/>
        <pt x="489" y="1370" on="1"/>
        <pt x="353" y="1315" on="0"/>
        <pt x="203" y="1091" on="0"/>
        <pt x="203" y="924" on="1"/>
        <pt x="203" y="841" on="0"/>
        <pt x="226" y="799" on="1"/>
        <pt x="231" y="791" on="0"/>
        <pt x="231" y="784" on="1"/>
        <pt x="67" y="784" on="0"/>
        <pt x="26" y="889" on="1"/>
        <pt x="12" y="927" on="0"/>
        <pt x="12" y="983" on="1"/>
        <pt x="12" y="1183" on="0"/>
        <pt x="243" y="1351" on="1"/>
        <pt x="477" y="1516" on="0"/>
        <pt x="731" y="1516" on="1"/>
        <pt x="763" y="1516" on="0"/>
        <pt x="813" y="1511" on="1"/>
        <pt x="700" y="973" on="1"/>
        <pt x="938" y="1114" on="1"/>
        <pt x="930" y="989" on="1"/>
        <pt x="670" y="829" on="1"/>
        <pt x="498" y="41" on="1"/>
        <pt x="582" y="22" on="0"/>
        <pt x="675" y="-28" on="1"/>
        <pt x="823" y="-109" on="1"/>
        <pt x="1029" y="-223" on="0"/>
        <pt x="1186" y="-223" on="1"/>
        <pt x="1280" y="-223" on="0"/>
        <pt x="1358" y="-190" on="1"/>
        <pt x="1342" y="-336" on="0"/>
        <pt x="1229" y="-512" on="0"/>
        <pt x="1145" y="-512" on="1"/>
        <pt x="1013" y="-512" on="0"/>
        <pt x="832" y="-372" on="1"/>
        <pt x="832" y="-372" on="0"/>
        <pt x="598" y="-192" on="1"/>
        <pt x="400" y="-47" on="0"/>
        <pt x="231" y="-47" on="1"/>
        <pt x="208" y="-47" on="1"/>
        <pt x="197" y="-47" on="0"/>
        <pt x="184" y="-49" on="1"/>
      </contour>
    </TTGlyph>
    <TTGlyph name="M" xMin="137" yMin="0" xMax="1647" yMax="1536">
      <contour>
        <pt x="360" y="805" on="1"/>
        <pt x="141" y="805" on="0"/>
        <pt x="141" y="991" on="1"/>
        <pt x="141" y="1185" on="0"/>
        <pt x="350" y="1362" on="1"/>
        <pt x="441" y="1440" on="0"/>
        <pt x="676" y="1536" on="0"/>
        <pt x="870" y="1536" on="0"/>
        <pt x="948" y="1507" on="1"/>
        <pt x="901" y="428" on="1"/>
        <pt x="1352" y="1507" on="1"/>
        <pt x="1647" y="1507" on="1"/>
        <pt x="1432" y="0" on="1"/>
        <pt x="1137" y="0" on="1"/>
        <pt x="1268" y="920" on="1"/>
        <pt x="883" y="0" on="1"/>
        <pt x="602" y="0" on="1"/>
        <pt x="643" y="924" on="1"/>
        <pt x="301" y="0" on="1"/>
        <pt x="137" y="0" on="1"/>
        <pt x="657" y="1407" on="1"/>
        <pt x="504" y="1356" on="0"/>
        <pt x="332" y="1122" on="0"/>
        <pt x="332" y="946" on="1"/>
        <pt x="332" y="858" on="0"/>
        <pt x="356" y="818" on="1"/>
        <pt x="360" y="811" on="0"/>
      </contour>
    </TTGlyph>
    <TTGlyph name="N" xMin="12" yMin="0" xMax="1462" yMax="1536">
      <contour>
        <pt x="889" y="0" on="1"/>
        <pt x="715" y="1071" on="1"/>
        <pt x="487" y="0" on="1"/>
        <pt x="193" y="0" on="1"/>
        <pt x="487" y="1391" on="1"/>
        <pt x="351" y="1334" on="0"/>
        <pt x="203" y="1109" on="0"/>
        <pt x="203" y="944" on="1"/>
        <pt x="203" y="861" on="0"/>
        <pt x="226" y="819" on="1"/>
        <pt x="231" y="811" on="0"/>
        <pt x="231" y="805" on="1"/>
        <pt x="67" y="805" on="0"/>
        <pt x="26" y="910" on="1"/>
        <pt x="12" y="948" on="0"/>
        <pt x="12" y="1063" on="0"/>
        <pt x="49" y="1187" on="0"/>
        <pt x="84" y="1246" on="1"/>
        <pt x="160" y="1375" on="0"/>
        <pt x="424" y="1536" on="0"/>
        <pt x="592" y="1536" on="1"/>
        <pt x="640" y="1536" on="0"/>
        <pt x="737" y="1530" on="0"/>
        <pt x="782" y="1507" on="1"/>
        <pt x="944" y="422" on="1"/>
        <pt x="1167" y="1532" on="1"/>
        <pt x="1462" y="1532" on="1"/>
        <pt x="1137" y="0" on="1"/>
      </contour>
    </TTGlyph>
    <TTGlyph name="N.salt" xMin="12" yMin="-12" xMax="1456" yMax="1536">
      <contour>
        <pt x="1096" y="-12" on="1"/>
        <pt x="834" y="-12" on="0"/>
        <pt x="834" y="219" on="1"/>
        <pt x="834" y="286" on="0"/>
        <pt x="874" y="459" on="1"/>
        <pt x="1010" y="1031" on="0"/>
        <pt x="1034" y="1173" on="0"/>
        <pt x="1034" y="1198" on="1"/>
        <pt x="1034" y="1350" on="0"/>
        <pt x="909" y="1350" on="1"/>
        <pt x="859" y="1350" on="0"/>
        <pt x="766" y="1263" on="0"/>
        <pt x="741" y="1200" on="1"/>
        <pt x="741" y="1198" on="1"/>
        <pt x="487" y="0" on="1"/>
        <pt x="166" y="0" on="1"/>
        <pt x="461" y="1378" on="1"/>
        <pt x="203" y="1253" on="0"/>
        <pt x="203" y="944" on="1"/>
        <pt x="203" y="861" on="0"/>
        <pt x="226" y="819" on="1"/>
        <pt x="231" y="811" on="0"/>
        <pt x="231" y="805" on="1"/>
        <pt x="67" y="805" on="0"/>
        <pt x="26" y="910" on="1"/>
        <pt x="12" y="948" on="0"/>
        <pt x="12" y="1004" on="1"/>
        <pt x="12" y="1107" on="0"/>
        <pt x="141" y="1298" on="0"/>
        <pt x="243" y="1372" on="1"/>
        <pt x="476" y="1536" on="0"/>
        <pt x="731" y="1536" on="1"/>
        <pt x="773" y="1536" on="0"/>
        <pt x="813" y="1532" on="1"/>
        <pt x="788" y="1419" on="1"/>
        <pt x="897" y="1536" on="0"/>
        <pt x="1044" y="1536" on="1"/>
        <pt x="1154" y="1536" on="0"/>
        <pt x="1323" y="1386" on="0"/>
        <pt x="1323" y="1243" on="1"/>
        <pt x="1323" y="1138" on="0"/>
        <pt x="1116" y="334" on="0"/>
        <pt x="1116" y="233" on="0"/>
        <pt x="1151" y="186" on="0"/>
        <pt x="1191" y="186" on="1"/>
        <pt x="1260" y="186" on="0"/>
        <pt x="1334" y="274" on="0"/>
        <pt x="1370" y="367" on="1"/>
        <pt x="1456" y="367" on="1"/>
        <pt x="1380" y="141" on="0"/>
        <pt x="1264" y="50" on="1"/>
        <pt x="1184" y="-12" on="0"/>
      </contour>
    </TTGlyph>
    <TTGlyph name="Nacute" xMin="12" yMin="0" xMax="1462" yMax="2048">
      <contour>
        <pt x="889" y="0" on="1"/>
        <pt x="715" y="1071" on="1"/>
        <pt x="487" y="0" on="1"/>
        <pt x="193" y="0" on="1"/>
        <pt x="487" y="1391" on="1"/>
        <pt x="351" y="1334" on="0"/>
        <pt x="203" y="1109" on="0"/>
        <pt x="203" y="944" on="1"/>
        <pt x="203" y="861" on="0"/>
        <pt x="226" y="819" on="1"/>
        <pt x="231" y="811" on="0"/>
        <pt x="231" y="805" on="1"/>
        <pt x="67" y="805" on="0"/>
        <pt x="26" y="910" on="1"/>
        <pt x="12" y="948" on="0"/>
        <pt x="12" y="1063" on="0"/>
        <pt x="49" y="1187" on="0"/>
        <pt x="84" y="1246" on="1"/>
        <pt x="160" y="1375" on="0"/>
        <pt x="424" y="1536" on="0"/>
        <pt x="592" y="1536" on="1"/>
        <pt x="640" y="1536" on="0"/>
        <pt x="737" y="1530" on="0"/>
        <pt x="782" y="1507" on="1"/>
        <pt x="944" y="422" on="1"/>
        <pt x="1167" y="1532" on="1"/>
        <pt x="1462" y="1532" on="1"/>
        <pt x="1137" y="0" on="1"/>
      </contour>
      <contour>
        <pt x="1016" y="1661" on="1"/>
        <pt x="1202" y="2048" on="1"/>
        <pt x="1417" y="2048" on="1"/>
        <pt x="1169" y="1661" on="1"/>
      </contour>
    </TTGlyph>
    <TTGlyph name="Ntilde" xMin="12" yMin="0" xMax="1462" yMax="1905">
      <contour>
        <pt x="889" y="0" on="1"/>
        <pt x="715" y="1071" on="1"/>
        <pt x="487" y="0" on="1"/>
        <pt x="193" y="0" on="1"/>
        <pt x="487" y="1391" on="1"/>
        <pt x="351" y="1334" on="0"/>
        <pt x="203" y="1109" on="0"/>
        <pt x="203" y="944" on="1"/>
        <pt x="203" y="861" on="0"/>
        <pt x="226" y="819" on="1"/>
        <pt x="231" y="811" on="0"/>
        <pt x="231" y="805" on="1"/>
        <pt x="67" y="805" on="0"/>
        <pt x="26" y="910" on="1"/>
        <pt x="12" y="948" on="0"/>
        <pt x="12" y="1063" on="0"/>
        <pt x="49" y="1187" on="0"/>
        <pt x="84" y="1246" on="1"/>
        <pt x="160" y="1375" on="0"/>
        <pt x="424" y="1536" on="0"/>
        <pt x="592" y="1536" on="1"/>
        <pt x="640" y="1536" on="0"/>
        <pt x="737" y="1530" on="0"/>
        <pt x="782" y="1507" on="1"/>
        <pt x="944" y="422" on="1"/>
        <pt x="1167" y="1532" on="1"/>
        <pt x="1462" y="1532" on="1"/>
        <pt x="1137" y="0" on="1"/>
      </contour>
      <contour>
        <pt x="1191" y="1858" on="0"/>
        <pt x="1267" y="1837" on="0"/>
        <pt x="1391" y="1837" on="0"/>
        <pt x="1440" y="1884" on="1"/>
        <pt x="1452" y="1882" on="1"/>
        <pt x="1435" y="1808" on="0"/>
        <pt x="1234" y="1677" on="0"/>
        <pt x="1122" y="1677" on="1"/>
        <pt x="1053" y="1677" on="0"/>
        <pt x="901" y="1729" on="0"/>
        <pt x="821" y="1753" on="0"/>
        <pt x="778" y="1753" on="1"/>
        <pt x="701" y="1753" on="0"/>
        <pt x="643" y="1700" on="1"/>
        <pt x="631" y="1704" on="1"/>
        <pt x="730" y="1905" on="0"/>
        <pt x="973" y="1905" on="1"/>
        <pt x="1052" y="1905" on="0"/>
      </contour>
    </TTGlyph>
    <TTGlyph name="O" xMin="33" yMin="-12" xMax="1343" yMax="1536">
      <contour>
        <pt x="858" y="1536" on="1"/>
        <pt x="1343" y="1536" on="0"/>
        <pt x="1343" y="1012" on="1"/>
        <pt x="1343" y="659" on="0"/>
        <pt x="1166" y="352" on="1"/>
        <pt x="1040" y="131" on="0"/>
        <pt x="830" y="36" on="1"/>
        <pt x="722" y="-12" on="0"/>
        <pt x="507" y="-12" on="0"/>
        <pt x="440" y="10" on="1"/>
        <pt x="221" y="84" on="0"/>
        <pt x="221" y="399" on="1"/>
        <pt x="221" y="610" on="0"/>
        <pt x="300" y="848" on="1"/>
        <pt x="426" y="1232" on="0"/>
        <pt x="646" y="1332" on="1"/>
        <pt x="707" y="1360" on="0"/>
        <pt x="838" y="1360" on="0"/>
        <pt x="883" y="1343" on="1"/>
        <pt x="794" y="1290" on="0"/>
        <pt x="707" y="1116" on="1"/>
        <pt x="581" y="867" on="0"/>
        <pt x="538" y="564" on="1"/>
        <pt x="524" y="470" on="0"/>
        <pt x="524" y="391" on="1"/>
        <pt x="524" y="154" on="0"/>
        <pt x="643" y="154" on="1"/>
        <pt x="644" y="154" on="0"/>
        <pt x="645" y="154" on="1"/>
        <pt x="744" y="154" on="0"/>
        <pt x="942" y="442" on="0"/>
        <pt x="1071" y="881" on="0"/>
        <pt x="1071" y="1274" on="0"/>
        <pt x="963" y="1442" on="0"/>
        <pt x="809" y="1442" on="1"/>
        <pt x="563" y="1442" on="0"/>
        <pt x="219" y="1151" on="0"/>
        <pt x="219" y="915" on="1"/>
        <pt x="219" y="855" on="0"/>
        <pt x="240" y="816" on="0"/>
        <pt x="240" y="805" on="1"/>
        <pt x="140" y="805" on="0"/>
        <pt x="33" y="883" on="0"/>
        <pt x="33" y="1083" on="0"/>
        <pt x="101" y="1184" on="1"/>
        <pt x="246" y="1396" on="0"/>
        <pt x="548" y="1490" on="1"/>
        <pt x="698" y="1536" on="0"/>
      </contour>
    </TTGlyph>
    <TTGlyph name="OE" xMin="33" yMin="-12" xMax="1872" yMax="1536">
      <contour>
        <pt x="1253" y="1364" on="1"/>
        <pt x="1343" y="1236" on="0"/>
        <pt x="1343" y="1012" on="1"/>
        <pt x="1343" y="939" on="0"/>
        <pt x="1333" y="858" on="1"/>
        <pt x="1606" y="858" on="1"/>
        <pt x="1565" y="707" on="1"/>
        <pt x="1306" y="707" on="1"/>
        <pt x="1262" y="518" on="0"/>
        <pt x="1166" y="351" on="1"/>
        <pt x="1124" y="278" on="0"/>
        <pt x="1071" y="217" on="1"/>
        <pt x="1569" y="217" on="1"/>
        <pt x="1526" y="0" on="1"/>
        <pt x="733" y="0" on="1"/>
        <pt x="666" y="-12" on="0"/>
        <pt x="586" y="-12" on="1"/>
        <pt x="418" y="-12" on="0"/>
        <pt x="221" y="185" on="0"/>
        <pt x="221" y="610" on="0"/>
        <pt x="300" y="848" on="1"/>
        <pt x="426" y="1232" on="0"/>
        <pt x="646" y="1332" on="1"/>
        <pt x="707" y="1360" on="0"/>
        <pt x="838" y="1360" on="0"/>
        <pt x="883" y="1343" on="1"/>
        <pt x="794" y="1290" on="0"/>
        <pt x="707" y="1116" on="1"/>
        <pt x="581" y="867" on="0"/>
        <pt x="538" y="564" on="1"/>
        <pt x="524" y="470" on="0"/>
        <pt x="524" y="391" on="1"/>
        <pt x="524" y="154" on="0"/>
        <pt x="643" y="154" on="1"/>
        <pt x="644" y="154" on="0"/>
        <pt x="645" y="154" on="1"/>
        <pt x="744" y="154" on="0"/>
        <pt x="942" y="442" on="0"/>
        <pt x="1071" y="881" on="0"/>
        <pt x="1071" y="1274" on="0"/>
        <pt x="963" y="1442" on="0"/>
        <pt x="809" y="1442" on="1"/>
        <pt x="563" y="1442" on="0"/>
        <pt x="219" y="1151" on="0"/>
        <pt x="219" y="915" on="1"/>
        <pt x="219" y="855" on="0"/>
        <pt x="240" y="816" on="0"/>
        <pt x="240" y="805" on="1"/>
        <pt x="140" y="805" on="0"/>
        <pt x="33" y="883" on="0"/>
        <pt x="33" y="1083" on="0"/>
        <pt x="101" y="1184" on="1"/>
        <pt x="246" y="1396" on="0"/>
        <pt x="548" y="1490" on="1"/>
        <pt x="698" y="1536" on="0"/>
        <pt x="991" y="1536" on="0"/>
        <pt x="1083" y="1498" on="1"/>
        <pt x="1201" y="1536" on="0"/>
        <pt x="1415" y="1536" on="0"/>
        <pt x="1589" y="1511" on="0"/>
        <pt x="1795" y="1511" on="0"/>
        <pt x="1872" y="1536" on="1"/>
        <pt x="1853" y="1466" on="1"/>
        <pt x="1814" y="1320" on="0"/>
        <pt x="1677" y="1290" on="1"/>
        <pt x="1579" y="1290" on="0"/>
        <pt x="1311" y="1358" on="0"/>
      </contour>
    </TTGlyph>
    <TTGlyph name="Oacute" xMin="33" yMin="-12" xMax="1343" yMax="2048">
      <contour>
        <pt x="858" y="1536" on="1"/>
        <pt x="1343" y="1536" on="0"/>
        <pt x="1343" y="1012" on="1"/>
        <pt x="1343" y="659" on="0"/>
        <pt x="1166" y="352" on="1"/>
        <pt x="1040" y="131" on="0"/>
        <pt x="830" y="36" on="1"/>
        <pt x="722" y="-12" on="0"/>
        <pt x="507" y="-12" on="0"/>
        <pt x="440" y="10" on="1"/>
        <pt x="221" y="84" on="0"/>
        <pt x="221" y="399" on="1"/>
        <pt x="221" y="610" on="0"/>
        <pt x="300" y="848" on="1"/>
        <pt x="426" y="1232" on="0"/>
        <pt x="646" y="1332" on="1"/>
        <pt x="707" y="1360" on="0"/>
        <pt x="838" y="1360" on="0"/>
        <pt x="883" y="1343" on="1"/>
        <pt x="794" y="1290" on="0"/>
        <pt x="707" y="1116" on="1"/>
        <pt x="581" y="867" on="0"/>
        <pt x="538" y="564" on="1"/>
        <pt x="524" y="470" on="0"/>
        <pt x="524" y="391" on="1"/>
        <pt x="524" y="154" on="0"/>
        <pt x="643" y="154" on="1"/>
        <pt x="644" y="154" on="0"/>
        <pt x="645" y="154" on="1"/>
        <pt x="744" y="154" on="0"/>
        <pt x="942" y="442" on="0"/>
        <pt x="1071" y="881" on="0"/>
        <pt x="1071" y="1274" on="0"/>
        <pt x="963" y="1442" on="0"/>
        <pt x="809" y="1442" on="1"/>
        <pt x="563" y="1442" on="0"/>
        <pt x="219" y="1151" on="0"/>
        <pt x="219" y="915" on="1"/>
        <pt x="219" y="855" on="0"/>
        <pt x="240" y="816" on="0"/>
        <pt x="240" y="805" on="1"/>
        <pt x="140" y="805" on="0"/>
        <pt x="33" y="883" on="0"/>
        <pt x="33" y="1083" on="0"/>
        <pt x="101" y="1184" on="1"/>
        <pt x="246" y="1396" on="0"/>
        <pt x="548" y="1490" on="1"/>
        <pt x="698" y="1536" on="0"/>
      </contour>
      <contour>
        <pt x="813" y="1661" on="1"/>
        <pt x="999" y="2048" on="1"/>
        <pt x="1214" y="2048" on="1"/>
        <pt x="966" y="1661" on="1"/>
      </contour>
    </TTGlyph>
    <TTGlyph name="Ocircumflex" xMin="33" yMin="-12" xMax="1343" yMax="2048">
      <contour>
        <pt x="858" y="1536" on="1"/>
        <pt x="1343" y="1536" on="0"/>
        <pt x="1343" y="1012" on="1"/>
        <pt x="1343" y="659" on="0"/>
        <pt x="1166" y="352" on="1"/>
        <pt x="1040" y="131" on="0"/>
        <pt x="830" y="36" on="1"/>
        <pt x="722" y="-12" on="0"/>
        <pt x="507" y="-12" on="0"/>
        <pt x="440" y="10" on="1"/>
        <pt x="221" y="84" on="0"/>
        <pt x="221" y="399" on="1"/>
        <pt x="221" y="610" on="0"/>
        <pt x="300" y="848" on="1"/>
        <pt x="426" y="1232" on="0"/>
        <pt x="646" y="1332" on="1"/>
        <pt x="707" y="1360" on="0"/>
        <pt x="838" y="1360" on="0"/>
        <pt x="883" y="1343" on="1"/>
        <pt x="794" y="1290" on="0"/>
        <pt x="707" y="1116" on="1"/>
        <pt x="581" y="867" on="0"/>
        <pt x="538" y="564" on="1"/>
        <pt x="524" y="470" on="0"/>
        <pt x="524" y="391" on="1"/>
        <pt x="524" y="154" on="0"/>
        <pt x="643" y="154" on="1"/>
        <pt x="644" y="154" on="0"/>
        <pt x="645" y="154" on="1"/>
        <pt x="744" y="154" on="0"/>
        <pt x="942" y="442" on="0"/>
        <pt x="1071" y="881" on="0"/>
        <pt x="1071" y="1274" on="0"/>
        <pt x="963" y="1442" on="0"/>
        <pt x="809" y="1442" on="1"/>
        <pt x="563" y="1442" on="0"/>
        <pt x="219" y="1151" on="0"/>
        <pt x="219" y="915" on="1"/>
        <pt x="219" y="855" on="0"/>
        <pt x="240" y="816" on="0"/>
        <pt x="240" y="805" on="1"/>
        <pt x="140" y="805" on="0"/>
        <pt x="33" y="883" on="0"/>
        <pt x="33" y="1083" on="0"/>
        <pt x="101" y="1184" on="1"/>
        <pt x="246" y="1396" on="0"/>
        <pt x="548" y="1490" on="1"/>
        <pt x="698" y="1536" on="0"/>
      </contour>
      <contour>
        <pt x="1092" y="1661" on="1"/>
        <pt x="969" y="1825" on="1"/>
        <pt x="647" y="1661" on="1"/>
        <pt x="557" y="1661" on="1"/>
        <pt x="991" y="2048" on="1"/>
        <pt x="1034" y="2048" on="1"/>
        <pt x="1157" y="1661" on="1"/>
      </contour>
    </TTGlyph>
    <TTGlyph name="Odieresis" xMin="33" yMin="-12" xMax="1343" yMax="1935">
      <contour>
        <pt x="858" y="1536" on="1"/>
        <pt x="1343" y="1536" on="0"/>
        <pt x="1343" y="1012" on="1"/>
        <pt x="1343" y="659" on="0"/>
        <pt x="1166" y="352" on="1"/>
        <pt x="1040" y="131" on="0"/>
        <pt x="830" y="36" on="1"/>
        <pt x="722" y="-12" on="0"/>
        <pt x="507" y="-12" on="0"/>
        <pt x="440" y="10" on="1"/>
        <pt x="221" y="84" on="0"/>
        <pt x="221" y="399" on="1"/>
        <pt x="221" y="610" on="0"/>
        <pt x="300" y="848" on="1"/>
        <pt x="426" y="1232" on="0"/>
        <pt x="646" y="1332" on="1"/>
        <pt x="707" y="1360" on="0"/>
        <pt x="838" y="1360" on="0"/>
        <pt x="883" y="1343" on="1"/>
        <pt x="794" y="1290" on="0"/>
        <pt x="707" y="1116" on="1"/>
        <pt x="581" y="867" on="0"/>
        <pt x="538" y="564" on="1"/>
        <pt x="524" y="470" on="0"/>
        <pt x="524" y="391" on="1"/>
        <pt x="524" y="154" on="0"/>
        <pt x="643" y="154" on="1"/>
        <pt x="644" y="154" on="0"/>
        <pt x="645" y="154" on="1"/>
        <pt x="744" y="154" on="0"/>
        <pt x="942" y="442" on="0"/>
        <pt x="1071" y="881" on="0"/>
        <pt x="1071" y="1274" on="0"/>
        <pt x="963" y="1442" on="0"/>
        <pt x="809" y="1442" on="1"/>
        <pt x="563" y="1442" on="0"/>
        <pt x="219" y="1151" on="0"/>
        <pt x="219" y="915" on="1"/>
        <pt x="219" y="855" on="0"/>
        <pt x="240" y="816" on="0"/>
        <pt x="240" y="805" on="1"/>
        <pt x="140" y="805" on="0"/>
        <pt x="33" y="883" on="0"/>
        <pt x="33" y="1083" on="0"/>
        <pt x="101" y="1184" on="1"/>
        <pt x="246" y="1396" on="0"/>
        <pt x="548" y="1490" on="1"/>
        <pt x="698" y="1536" on="0"/>
      </contour>
      <contour>
        <pt x="803" y="1721" on="1"/>
        <pt x="765" y="1686" on="0"/>
        <pt x="726" y="1686" on="1"/>
        <pt x="660" y="1686" on="0"/>
        <pt x="590" y="1757" on="0"/>
        <pt x="590" y="1861" on="0"/>
        <pt x="625" y="1898" on="1"/>
        <pt x="661" y="1935" on="0"/>
        <pt x="766" y="1935" on="0"/>
        <pt x="840" y="1862" on="0"/>
        <pt x="840" y="1757" on="0"/>
      </contour>
      <contour>
        <pt x="1171" y="1721" on="1"/>
        <pt x="1133" y="1686" on="0"/>
        <pt x="1094" y="1686" on="1"/>
        <pt x="1030" y="1686" on="0"/>
        <pt x="958" y="1756" on="0"/>
        <pt x="958" y="1862" on="0"/>
        <pt x="1030" y="1935" on="0"/>
        <pt x="1134" y="1935" on="0"/>
        <pt x="1208" y="1862" on="0"/>
        <pt x="1208" y="1757" on="0"/>
      </contour>
    </TTGlyph>
    <TTGlyph name="Ograve" xMin="33" yMin="-12" xMax="1343" yMax="2048">
      <contour>
        <pt x="858" y="1536" on="1"/>
        <pt x="1343" y="1536" on="0"/>
        <pt x="1343" y="1012" on="1"/>
        <pt x="1343" y="659" on="0"/>
        <pt x="1166" y="352" on="1"/>
        <pt x="1040" y="131" on="0"/>
        <pt x="830" y="36" on="1"/>
        <pt x="722" y="-12" on="0"/>
        <pt x="507" y="-12" on="0"/>
        <pt x="440" y="10" on="1"/>
        <pt x="221" y="84" on="0"/>
        <pt x="221" y="399" on="1"/>
        <pt x="221" y="610" on="0"/>
        <pt x="300" y="848" on="1"/>
        <pt x="426" y="1232" on="0"/>
        <pt x="646" y="1332" on="1"/>
        <pt x="707" y="1360" on="0"/>
        <pt x="838" y="1360" on="0"/>
        <pt x="883" y="1343" on="1"/>
        <pt x="794" y="1290" on="0"/>
        <pt x="707" y="1116" on="1"/>
        <pt x="581" y="867" on="0"/>
        <pt x="538" y="564" on="1"/>
        <pt x="524" y="470" on="0"/>
        <pt x="524" y="391" on="1"/>
        <pt x="524" y="154" on="0"/>
        <pt x="643" y="154" on="1"/>
        <pt x="644" y="154" on="0"/>
        <pt x="645" y="154" on="1"/>
        <pt x="744" y="154" on="0"/>
        <pt x="942" y="442" on="0"/>
        <pt x="1071" y="881" on="0"/>
        <pt x="1071" y="1274" on="0"/>
        <pt x="963" y="1442" on="0"/>
        <pt x="809" y="1442" on="1"/>
        <pt x="563" y="1442" on="0"/>
        <pt x="219" y="1151" on="0"/>
        <pt x="219" y="915" on="1"/>
        <pt x="219" y="855" on="0"/>
        <pt x="240" y="816" on="0"/>
        <pt x="240" y="805" on="1"/>
        <pt x="140" y="805" on="0"/>
        <pt x="33" y="883" on="0"/>
        <pt x="33" y="1083" on="0"/>
        <pt x="101" y="1184" on="1"/>
        <pt x="246" y="1396" on="0"/>
        <pt x="548" y="1490" on="1"/>
        <pt x="698" y="1536" on="0"/>
      </contour>
      <contour>
        <pt x="719" y="1661" on="1"/>
        <pt x="598" y="2048" on="1"/>
        <pt x="813" y="2048" on="1"/>
        <pt x="873" y="1661" on="1"/>
      </contour>
    </TTGlyph>
    <TTGlyph name="Oslash" xMin="31" yMin="-145" xMax="1294" yMax="1536">
      <contour>
        <pt x="981" y="1421" on="1"/>
        <pt x="1294" y="1348" on="0"/>
        <pt x="1294" y="946" on="1"/>
        <pt x="1294" y="826" on="0"/>
        <pt x="1259" y="668" on="1"/>
        <pt x="1185" y="335" on="0"/>
        <pt x="958" y="131" on="1"/>
        <pt x="841" y="26" on="0"/>
        <pt x="680" y="-2" on="1"/>
        <pt x="649" y="-145" on="1"/>
        <pt x="543" y="-145" on="1"/>
        <pt x="571" y="-12" on="1"/>
        <pt x="567" y="-12" on="1"/>
        <pt x="313" y="-12" on="0"/>
        <pt x="239" y="196" on="1"/>
        <pt x="213" y="270" on="0"/>
        <pt x="213" y="452" on="0"/>
        <pt x="243" y="646" on="0"/>
        <pt x="272" y="746" on="1"/>
        <pt x="339" y="970" on="0"/>
        <pt x="452" y="1110" on="1"/>
        <pt x="583" y="1274" on="0"/>
        <pt x="748" y="1274" on="1"/>
        <pt x="795" y="1274" on="0"/>
        <pt x="840" y="1260" on="1"/>
        <pt x="858" y="1343" on="1"/>
        <pt x="826" y="1350" on="0"/>
        <pt x="666" y="1350" on="0"/>
        <pt x="460" y="1281" on="0"/>
        <pt x="382" y="1217" on="1"/>
        <pt x="211" y="1077" on="0"/>
        <pt x="211" y="856" on="1"/>
        <pt x="211" y="801" on="0"/>
        <pt x="231" y="765" on="0"/>
        <pt x="231" y="754" on="1"/>
        <pt x="134" y="754" on="0"/>
        <pt x="58" y="808" on="0"/>
        <pt x="31" y="869" on="0"/>
        <pt x="31" y="913" on="1"/>
        <pt x="31" y="1014" on="0"/>
        <pt x="96" y="1109" on="1"/>
        <pt x="233" y="1305" on="0"/>
        <pt x="528" y="1394" on="1"/>
        <pt x="674" y="1438" on="0"/>
        <pt x="827" y="1438" on="1"/>
        <pt x="852" y="1438" on="1"/>
        <pt x="864" y="1438" on="0"/>
        <pt x="877" y="1436" on="1"/>
        <pt x="899" y="1536" on="1"/>
        <pt x="1006" y="1536" on="1"/>
      </contour>
      <contour>
        <pt x="838" y="1249" on="1"/>
        <pt x="772" y="1205" on="0"/>
        <pt x="728" y="1128" on="1"/>
        <pt x="590" y="889" on="0"/>
        <pt x="533" y="610" on="1"/>
        <pt x="506" y="475" on="0"/>
        <pt x="506" y="374" on="1"/>
        <pt x="506" y="163" on="0"/>
        <pt x="604" y="143" on="1"/>
      </contour>
      <contour>
        <pt x="719" y="180" on="1"/>
        <pt x="845" y="274" on="0"/>
        <pt x="1032" y="774" on="0"/>
        <pt x="1032" y="1014" on="1"/>
        <pt x="1032" y="1116" on="0"/>
        <pt x="1001" y="1257" on="0"/>
        <pt x="954" y="1298" on="1"/>
      </contour>
    </TTGlyph>
    <TTGlyph name="Otilde" xMin="33" yMin="-12" xMax="1382" yMax="1905">
      <contour>
        <pt x="858" y="1536" on="1"/>
        <pt x="1343" y="1536" on="0"/>
        <pt x="1343" y="1012" on="1"/>
        <pt x="1343" y="659" on="0"/>
        <pt x="1166" y="352" on="1"/>
        <pt x="1040" y="131" on="0"/>
        <pt x="830" y="36" on="1"/>
        <pt x="722" y="-12" on="0"/>
        <pt x="507" y="-12" on="0"/>
        <pt x="440" y="10" on="1"/>
        <pt x="221" y="84" on="0"/>
        <pt x="221" y="399" on="1"/>
        <pt x="221" y="610" on="0"/>
        <pt x="300" y="848" on="1"/>
        <pt x="426" y="1232" on="0"/>
        <pt x="646" y="1332" on="1"/>
        <pt x="707" y="1360" on="0"/>
        <pt x="838" y="1360" on="0"/>
        <pt x="883" y="1343" on="1"/>
        <pt x="794" y="1290" on="0"/>
        <pt x="707" y="1116" on="1"/>
        <pt x="581" y="867" on="0"/>
        <pt x="538" y="564" on="1"/>
        <pt x="524" y="470" on="0"/>
        <pt x="524" y="391" on="1"/>
        <pt x="524" y="154" on="0"/>
        <pt x="643" y="154" on="1"/>
        <pt x="644" y="154" on="0"/>
        <pt x="645" y="154" on="1"/>
        <pt x="744" y="154" on="0"/>
        <pt x="942" y="442" on="0"/>
        <pt x="1071" y="881" on="0"/>
        <pt x="1071" y="1274" on="0"/>
        <pt x="963" y="1442" on="0"/>
        <pt x="809" y="1442" on="1"/>
        <pt x="563" y="1442" on="0"/>
        <pt x="219" y="1151" on="0"/>
        <pt x="219" y="915" on="1"/>
        <pt x="219" y="855" on="0"/>
        <pt x="240" y="816" on="0"/>
        <pt x="240" y="805" on="1"/>
        <pt x="140" y="805" on="0"/>
        <pt x="33" y="883" on="0"/>
        <pt x="33" y="1083" on="0"/>
        <pt x="101" y="1184" on="1"/>
        <pt x="246" y="1396" on="0"/>
        <pt x="548" y="1490" on="1"/>
        <pt x="698" y="1536" on="0"/>
      </contour>
      <contour>
        <pt x="1121" y="1858" on="0"/>
        <pt x="1197" y="1837" on="0"/>
        <pt x="1321" y="1837" on="0"/>
        <pt x="1370" y="1884" on="1"/>
        <pt x="1382" y="1882" on="1"/>
        <pt x="1365" y="1808" on="0"/>
        <pt x="1164" y="1677" on="0"/>
        <pt x="1052" y="1677" on="1"/>
        <pt x="983" y="1677" on="0"/>
        <pt x="831" y="1729" on="0"/>
        <pt x="751" y="1753" on="0"/>
        <pt x="708" y="1753" on="1"/>
        <pt x="631" y="1753" on="0"/>
        <pt x="573" y="1700" on="1"/>
        <pt x="561" y="1704" on="1"/>
        <pt x="660" y="1905" on="0"/>
        <pt x="903" y="1905" on="1"/>
        <pt x="982" y="1905" on="0"/>
      </contour>
    </TTGlyph>
    <TTGlyph name="P" xMin="12" yMin="0" xMax="1214" yMax="1536">
      <contour>
        <pt x="193" y="0" on="1"/>
        <pt x="471" y="1303" on="1"/>
        <pt x="774" y="1343" on="1"/>
        <pt x="629" y="659" on="1"/>
        <pt x="779" y="673" on="0"/>
        <pt x="987" y="989" on="0"/>
        <pt x="987" y="1357" on="0"/>
        <pt x="848" y="1420" on="1"/>
        <pt x="800" y="1442" on="0"/>
        <pt x="733" y="1442" on="1"/>
        <pt x="483" y="1442" on="0"/>
        <pt x="343" y="1311" on="1"/>
        <pt x="203" y="1180" on="0"/>
        <pt x="203" y="944" on="1"/>
        <pt x="203" y="861" on="0"/>
        <pt x="226" y="819" on="1"/>
        <pt x="231" y="811" on="0"/>
        <pt x="231" y="805" on="1"/>
        <pt x="67" y="805" on="0"/>
        <pt x="26" y="910" on="1"/>
        <pt x="12" y="948" on="0"/>
        <pt x="12" y="1004" on="1"/>
        <pt x="12" y="1107" on="0"/>
        <pt x="141" y="1298" on="0"/>
        <pt x="243" y="1372" on="1"/>
        <pt x="476" y="1536" on="0"/>
        <pt x="968" y="1536" on="0"/>
        <pt x="1214" y="1304" on="0"/>
        <pt x="1214" y="1133" on="1"/>
        <pt x="1214" y="1035" on="0"/>
        <pt x="1133" y="839" on="0"/>
        <pt x="1056" y="760" on="1"/>
        <pt x="884" y="584" on="0"/>
        <pt x="623" y="584" on="1"/>
        <pt x="612" y="584" on="1"/>
        <pt x="487" y="0" on="1"/>
      </contour>
    </TTGlyph>
    <TTGlyph name="Q" xMin="33" yMin="-231" xMax="1343" yMax="1536">
      <contour>
        <pt x="858" y="1536" on="1"/>
        <pt x="1343" y="1536" on="0"/>
        <pt x="1343" y="1012" on="1"/>
        <pt x="1343" y="772" on="0"/>
        <pt x="1146" y="248" on="0"/>
        <pt x="952" y="106" on="1"/>
        <pt x="1007" y="27" on="0"/>
        <pt x="1046" y="-3" on="1"/>
        <pt x="1119" y="-59" on="0"/>
        <pt x="1208" y="-59" on="1"/>
        <pt x="1229" y="-59" on="0"/>
        <pt x="1253" y="-55" on="1"/>
        <pt x="1212" y="-162" on="0"/>
        <pt x="1107" y="-231" on="0"/>
        <pt x="1040" y="-231" on="1"/>
        <pt x="920" y="-231" on="0"/>
        <pt x="856" y="-152" on="1"/>
        <pt x="818" y="-105" on="0"/>
        <pt x="778" y="16" on="1"/>
        <pt x="690" y="-12" on="0"/>
        <pt x="598" y="-12" on="1"/>
        <pt x="418" y="-12" on="0"/>
        <pt x="221" y="185" on="0"/>
        <pt x="221" y="610" on="0"/>
        <pt x="300" y="848" on="1"/>
        <pt x="426" y="1232" on="0"/>
        <pt x="646" y="1332" on="1"/>
        <pt x="707" y="1360" on="0"/>
        <pt x="838" y="1360" on="0"/>
        <pt x="883" y="1343" on="1"/>
        <pt x="794" y="1290" on="0"/>
        <pt x="707" y="1116" on="1"/>
        <pt x="581" y="867" on="0"/>
        <pt x="538" y="564" on="1"/>
        <pt x="524" y="470" on="0"/>
        <pt x="524" y="391" on="1"/>
        <pt x="524" y="345" on="1"/>
        <pt x="524" y="324" on="0"/>
        <pt x="528" y="303" on="1"/>
        <pt x="600" y="322" on="0"/>
        <pt x="745" y="322" on="0"/>
        <pt x="819" y="266" on="1"/>
        <pt x="925" y="398" on="0"/>
        <pt x="1071" y="863" on="0"/>
        <pt x="1071" y="1072" on="1"/>
        <pt x="1071" y="1083" on="1"/>
        <pt x="1071" y="1274" on="0"/>
        <pt x="963" y="1442" on="0"/>
        <pt x="809" y="1442" on="1"/>
        <pt x="563" y="1442" on="0"/>
        <pt x="219" y="1151" on="0"/>
        <pt x="219" y="915" on="1"/>
        <pt x="219" y="855" on="0"/>
        <pt x="240" y="816" on="0"/>
        <pt x="240" y="805" on="1"/>
        <pt x="140" y="805" on="0"/>
        <pt x="33" y="883" on="0"/>
        <pt x="33" y="1083" on="0"/>
        <pt x="101" y="1184" on="1"/>
        <pt x="246" y="1396" on="0"/>
        <pt x="548" y="1490" on="1"/>
        <pt x="698" y="1536" on="0"/>
      </contour>
      <contour>
        <pt x="721" y="176" on="1"/>
        <pt x="678" y="246" on="0"/>
        <pt x="604" y="246" on="1"/>
        <pt x="577" y="246" on="0"/>
        <pt x="545" y="238" on="1"/>
        <pt x="573" y="154" on="0"/>
        <pt x="643" y="154" on="1"/>
        <pt x="686" y="154" on="0"/>
      </contour>
    </TTGlyph>
    <TTGlyph name="R" xMin="12" yMin="-35" xMax="1196" yMax="1536">
      <contour>
        <pt x="975" y="858" on="1"/>
        <pt x="1116" y="818" on="0"/>
        <pt x="1116" y="657" on="1"/>
        <pt x="1116" y="562" on="0"/>
        <pt x="1016" y="198" on="0"/>
        <pt x="1016" y="143" on="1"/>
        <pt x="1016" y="30" on="0"/>
        <pt x="1096" y="0" on="1"/>
        <pt x="968" y="-35" on="0"/>
        <pt x="893" y="-35" on="1"/>
        <pt x="733" y="-35" on="0"/>
        <pt x="733" y="102" on="1"/>
        <pt x="734" y="174" on="0"/>
        <pt x="841" y="555" on="0"/>
        <pt x="842" y="641" on="1"/>
        <pt x="842" y="780" on="0"/>
        <pt x="719" y="780" on="1"/>
        <pt x="693" y="780" on="0"/>
        <pt x="651" y="772" on="1"/>
        <pt x="487" y="0" on="1"/>
        <pt x="193" y="0" on="1"/>
        <pt x="471" y="1303" on="1"/>
        <pt x="774" y="1343" on="1"/>
        <pt x="674" y="870" on="1"/>
        <pt x="690" y="870" on="1"/>
        <pt x="812" y="870" on="0"/>
        <pt x="981" y="1101" on="0"/>
        <pt x="981" y="1374" on="0"/>
        <pt x="858" y="1424" on="1"/>
        <pt x="816" y="1442" on="0"/>
        <pt x="632" y="1442" on="0"/>
        <pt x="428" y="1374" on="0"/>
        <pt x="356" y="1310" on="1"/>
        <pt x="203" y="1174" on="0"/>
        <pt x="203" y="944" on="1"/>
        <pt x="203" y="861" on="0"/>
        <pt x="226" y="819" on="1"/>
        <pt x="231" y="811" on="0"/>
        <pt x="231" y="805" on="1"/>
        <pt x="67" y="805" on="0"/>
        <pt x="26" y="910" on="1"/>
        <pt x="12" y="948" on="0"/>
        <pt x="12" y="1004" on="1"/>
        <pt x="12" y="1107" on="0"/>
        <pt x="141" y="1298" on="0"/>
        <pt x="243" y="1372" on="1"/>
        <pt x="476" y="1536" on="0"/>
        <pt x="959" y="1536" on="0"/>
        <pt x="1196" y="1347" on="0"/>
        <pt x="1196" y="1208" on="1"/>
        <pt x="1196" y="1113" on="0"/>
        <pt x="1081" y="922" on="0"/>
      </contour>
    </TTGlyph>
    <TTGlyph name="S" xMin="55" yMin="-43" xMax="1114" yMax="1536">
      <contour>
        <pt x="852" y="1126" on="1"/>
        <pt x="944" y="1179" on="0"/>
        <pt x="944" y="1316" on="1"/>
        <pt x="944" y="1356" on="0"/>
        <pt x="879" y="1440" on="0"/>
        <pt x="706" y="1440" on="0"/>
        <pt x="604" y="1347" on="0"/>
        <pt x="604" y="1197" on="0"/>
        <pt x="624" y="1152" on="1"/>
        <pt x="660" y="1069" on="0"/>
        <pt x="750" y="990" on="1"/>
        <pt x="834" y="914" on="1"/>
        <pt x="946" y="814" on="0"/>
        <pt x="986" y="748" on="1"/>
        <pt x="1065" y="615" on="0"/>
        <pt x="1065" y="478" on="1"/>
        <pt x="1065" y="223" on="0"/>
        <pt x="889" y="84" on="1"/>
        <pt x="730" y="-43" on="0"/>
        <pt x="489" y="-43" on="1"/>
        <pt x="191" y="-43" on="0"/>
        <pt x="90" y="148" on="1"/>
        <pt x="55" y="215" on="0"/>
        <pt x="55" y="304" on="1"/>
        <pt x="55" y="465" on="0"/>
        <pt x="239" y="645" on="0"/>
        <pt x="467" y="645" on="0"/>
        <pt x="516" y="576" on="1"/>
        <pt x="535" y="550" on="0"/>
        <pt x="537" y="510" on="1"/>
        <pt x="380" y="510" on="0"/>
        <pt x="319" y="407" on="1"/>
        <pt x="297" y="370" on="0"/>
        <pt x="297" y="324" on="1"/>
        <pt x="297" y="237" on="0"/>
        <pt x="400" y="121" on="0"/>
        <pt x="598" y="121" on="0"/>
        <pt x="731" y="263" on="0"/>
        <pt x="731" y="481" on="0"/>
        <pt x="669" y="622" on="0"/>
        <pt x="575" y="744" on="0"/>
        <pt x="467" y="855" on="0"/>
        <pt x="420" y="912" on="1"/>
        <pt x="311" y="1044" on="0"/>
        <pt x="311" y="1169" on="1"/>
        <pt x="311" y="1327" on="0"/>
        <pt x="584" y="1536" on="0"/>
        <pt x="784" y="1536" on="1"/>
        <pt x="1031" y="1536" on="0"/>
        <pt x="1096" y="1386" on="1"/>
        <pt x="1114" y="1346" on="0"/>
        <pt x="1114" y="1199" on="0"/>
        <pt x="1069" y="1141" on="1"/>
        <pt x="1024" y="1083" on="0"/>
        <pt x="889" y="1083" on="0"/>
      </contour>
    </TTGlyph>
    <TTGlyph name="Sacute" xMin="-184" yMin="-43" xMax="1134" yMax="2048">
      <contour>
        <pt x="613" y="1126" on="1"/>
        <pt x="676" y="1162" on="0"/>
        <pt x="698" y="1251" on="1"/>
        <pt x="705" y="1277" on="0"/>
        <pt x="705" y="1356" on="0"/>
        <pt x="640" y="1440" on="0"/>
        <pt x="467" y="1440" on="0"/>
        <pt x="365" y="1347" on="0"/>
        <pt x="365" y="1197" on="0"/>
        <pt x="385" y="1152" on="1"/>
        <pt x="420" y="1071" on="0"/>
        <pt x="510" y="990" on="1"/>
        <pt x="596" y="914" on="1"/>
        <pt x="707" y="814" on="0"/>
        <pt x="747" y="748" on="1"/>
        <pt x="826" y="615" on="0"/>
        <pt x="826" y="478" on="1"/>
        <pt x="826" y="223" on="0"/>
        <pt x="650" y="84" on="1"/>
        <pt x="491" y="-43" on="0"/>
        <pt x="250" y="-43" on="1"/>
        <pt x="-48" y="-43" on="0"/>
        <pt x="-149" y="148" on="1"/>
        <pt x="-184" y="215" on="0"/>
        <pt x="-184" y="304" on="1"/>
        <pt x="-184" y="465" on="0"/>
        <pt x="0" y="645" on="0"/>
        <pt x="228" y="645" on="0"/>
        <pt x="278" y="576" on="1"/>
        <pt x="296" y="550" on="0"/>
        <pt x="298" y="510" on="1"/>
        <pt x="141" y="510" on="0"/>
        <pt x="80" y="407" on="1"/>
        <pt x="58" y="370" on="0"/>
        <pt x="58" y="324" on="1"/>
        <pt x="58" y="236" on="0"/>
        <pt x="161" y="121" on="0"/>
        <pt x="359" y="121" on="0"/>
        <pt x="492" y="263" on="0"/>
        <pt x="492" y="481" on="0"/>
        <pt x="430" y="622" on="0"/>
        <pt x="336" y="744" on="0"/>
        <pt x="228" y="855" on="0"/>
        <pt x="181" y="912" on="1"/>
        <pt x="72" y="1044" on="0"/>
        <pt x="72" y="1169" on="1"/>
        <pt x="72" y="1327" on="0"/>
        <pt x="345" y="1536" on="0"/>
        <pt x="545" y="1536" on="1"/>
        <pt x="792" y="1536" on="0"/>
        <pt x="858" y="1386" on="1"/>
        <pt x="875" y="1346" on="0"/>
        <pt x="875" y="1199" on="0"/>
        <pt x="830" y="1141" on="1"/>
        <pt x="785" y="1083" on="0"/>
        <pt x="650" y="1083" on="0"/>
      </contour>
      <contour>
        <pt x="733" y="1661" on="1"/>
        <pt x="919" y="2048" on="1"/>
        <pt x="1134" y="2048" on="1"/>
        <pt x="886" y="1661" on="1"/>
      </contour>
    </TTGlyph>
    <TTGlyph name="Scaron" xMin="-184" yMin="-43" xMax="1211" yMax="2048">
      <contour>
        <pt x="613" y="1126" on="1"/>
        <pt x="676" y="1162" on="0"/>
        <pt x="698" y="1251" on="1"/>
        <pt x="705" y="1277" on="0"/>
        <pt x="705" y="1356" on="0"/>
        <pt x="640" y="1440" on="0"/>
        <pt x="467" y="1440" on="0"/>
        <pt x="365" y="1347" on="0"/>
        <pt x="365" y="1197" on="0"/>
        <pt x="385" y="1152" on="1"/>
        <pt x="420" y="1071" on="0"/>
        <pt x="510" y="990" on="1"/>
        <pt x="596" y="914" on="1"/>
        <pt x="707" y="814" on="0"/>
        <pt x="747" y="748" on="1"/>
        <pt x="826" y="615" on="0"/>
        <pt x="826" y="478" on="1"/>
        <pt x="826" y="223" on="0"/>
        <pt x="650" y="84" on="1"/>
        <pt x="491" y="-43" on="0"/>
        <pt x="250" y="-43" on="1"/>
        <pt x="-48" y="-43" on="0"/>
        <pt x="-149" y="148" on="1"/>
        <pt x="-184" y="215" on="0"/>
        <pt x="-184" y="304" on="1"/>
        <pt x="-184" y="465" on="0"/>
        <pt x="0" y="645" on="0"/>
        <pt x="228" y="645" on="0"/>
        <pt x="278" y="576" on="1"/>
        <pt x="296" y="550" on="0"/>
        <pt x="298" y="510" on="1"/>
        <pt x="141" y="510" on="0"/>
        <pt x="80" y="407" on="1"/>
        <pt x="58" y="370" on="0"/>
        <pt x="58" y="324" on="1"/>
        <pt x="58" y="236" on="0"/>
        <pt x="161" y="121" on="0"/>
        <pt x="359" y="121" on="0"/>
        <pt x="492" y="263" on="0"/>
        <pt x="492" y="481" on="0"/>
        <pt x="430" y="622" on="0"/>
        <pt x="336" y="744" on="0"/>
        <pt x="228" y="855" on="0"/>
        <pt x="181" y="912" on="1"/>
        <pt x="72" y="1044" on="0"/>
        <pt x="72" y="1169" on="1"/>
        <pt x="72" y="1327" on="0"/>
        <pt x="345" y="1536" on="0"/>
        <pt x="545" y="1536" on="1"/>
        <pt x="792" y="1536" on="0"/>
        <pt x="858" y="1386" on="1"/>
        <pt x="875" y="1346" on="0"/>
        <pt x="875" y="1199" on="0"/>
        <pt x="830" y="1141" on="1"/>
        <pt x="785" y="1083" on="0"/>
        <pt x="650" y="1083" on="0"/>
      </contour>
      <contour>
        <pt x="777" y="1661" on="1"/>
        <pt x="734" y="1661" on="1"/>
        <pt x="611" y="2048" on="1"/>
        <pt x="676" y="2048" on="1"/>
        <pt x="799" y="1884" on="1"/>
        <pt x="1121" y="2048" on="1"/>
        <pt x="1211" y="2048" on="1"/>
      </contour>
    </TTGlyph>
    <TTGlyph name="T" xMin="12" yMin="0" xMax="1473" yMax="1534">
      <contour>
        <pt x="899" y="1315" on="1"/>
        <pt x="616" y="0" on="1"/>
        <pt x="322" y="0" on="1"/>
        <pt x="612" y="1356" on="1"/>
        <pt x="588" y="1356" on="1"/>
        <pt x="407" y="1356" on="0"/>
        <pt x="314" y="1272" on="1"/>
        <pt x="203" y="1172" on="0"/>
        <pt x="203" y="942" on="1"/>
        <pt x="203" y="859" on="0"/>
        <pt x="226" y="817" on="1"/>
        <pt x="231" y="809" on="0"/>
        <pt x="231" y="803" on="1"/>
        <pt x="67" y="803" on="0"/>
        <pt x="26" y="908" on="1"/>
        <pt x="12" y="946" on="0"/>
        <pt x="12" y="1104" on="0"/>
        <pt x="88" y="1296" on="0"/>
        <pt x="172" y="1370" on="1"/>
        <pt x="357" y="1534" on="0"/>
        <pt x="711" y="1534" on="1"/>
        <pt x="856" y="1534" on="0"/>
        <pt x="1027" y="1504" on="0"/>
        <pt x="1090" y="1496" on="1"/>
        <pt x="1154" y="1487" on="0"/>
        <pt x="1367" y="1487" on="0"/>
        <pt x="1473" y="1530" on="1"/>
        <pt x="1463" y="1270" on="0"/>
        <pt x="1217" y="1270" on="1"/>
        <pt x="1124" y="1270" on="0"/>
      </contour>
    </TTGlyph>
    <TTGlyph name="T_h" xMin="12" yMin="-12" xMax="2075" yMax="1534">
      <contour>
        <pt x="1735" y="274" on="1"/>
        <pt x="1735" y="186" on="0"/>
        <pt x="1810" y="186" on="1"/>
        <pt x="1878" y="186" on="0"/>
        <pt x="1951" y="274" on="0"/>
        <pt x="1989" y="367" on="1"/>
        <pt x="2075" y="367" on="1"/>
        <pt x="1999" y="141" on="0"/>
        <pt x="1882" y="50" on="1"/>
        <pt x="1803" y="-12" on="0"/>
        <pt x="1714" y="-12" on="1"/>
        <pt x="1567" y="-12" on="0"/>
        <pt x="1452" y="121" on="0"/>
        <pt x="1452" y="299" on="0"/>
        <pt x="1544" y="667" on="0"/>
        <pt x="1544" y="741" on="1"/>
        <pt x="1544" y="846" on="0"/>
        <pt x="1396" y="846" on="0"/>
        <pt x="1342" y="736" on="1"/>
        <pt x="1326" y="705" on="0"/>
        <pt x="1315" y="670" on="1"/>
        <pt x="1190" y="0" on="1"/>
        <pt x="895" y="0" on="1"/>
        <pt x="1176" y="1307" on="1"/>
        <pt x="1112" y="1311" on="0"/>
        <pt x="1044" y="1321" on="1"/>
        <pt x="905" y="1341" on="1"/>
        <pt x="616" y="0" on="1"/>
        <pt x="322" y="0" on="1"/>
        <pt x="614" y="1360" on="1"/>
        <pt x="422" y="1353" on="0"/>
        <pt x="322" y="1268" on="1"/>
        <pt x="203" y="1168" on="0"/>
        <pt x="203" y="949" on="1"/>
        <pt x="203" y="942" on="1"/>
        <pt x="203" y="859" on="0"/>
        <pt x="226" y="817" on="1"/>
        <pt x="231" y="809" on="0"/>
        <pt x="231" y="803" on="1"/>
        <pt x="67" y="803" on="0"/>
        <pt x="26" y="908" on="1"/>
        <pt x="12" y="946" on="0"/>
        <pt x="12" y="1104" on="0"/>
        <pt x="95" y="1296" on="0"/>
        <pt x="182" y="1370" on="1"/>
        <pt x="376" y="1534" on="0"/>
        <pt x="733" y="1534" on="1"/>
        <pt x="768" y="1534" on="0"/>
        <pt x="830" y="1526" on="1"/>
        <pt x="1151" y="1481" on="0"/>
        <pt x="1461" y="1481" on="0"/>
        <pt x="1534" y="1530" on="1"/>
        <pt x="1499" y="1460" on="1"/>
        <pt x="1458" y="1372" on="0"/>
        <pt x="1394" y="1070" on="1"/>
        <pt x="1362" y="913" on="1"/>
        <pt x="1462" y="1032" on="0"/>
        <pt x="1606" y="1032" on="1"/>
        <pt x="1703" y="1032" on="0"/>
        <pt x="1768" y="978" on="1"/>
        <pt x="1833" y="924" on="0"/>
        <pt x="1833" y="716" on="0"/>
        <pt x="1800" y="580" on="1"/>
        <pt x="1750" y="380" on="1"/>
        <pt x="1735" y="315" on="0"/>
      </contour>
    </TTGlyph>
    <TTGlyph name="T_i" xMin="12" yMin="-12" xMax="1610" yMax="1534">
      <contour>
        <pt x="1473" y="1530" on="1"/>
        <pt x="1495" y="1458" on="0"/>
        <pt x="1495" y="1395" on="1"/>
        <pt x="1495" y="1284" on="0"/>
        <pt x="1417" y="1230" on="1"/>
        <pt x="1360" y="1190" on="0"/>
        <pt x="1213" y="1190" on="0"/>
        <pt x="1144" y="1216" on="1"/>
        <pt x="897" y="1305" on="1"/>
        <pt x="616" y="0" on="1"/>
        <pt x="322" y="0" on="1"/>
        <pt x="616" y="1374" on="1"/>
        <pt x="572" y="1380" on="0"/>
        <pt x="518" y="1380" on="1"/>
        <pt x="379" y="1380" on="0"/>
        <pt x="203" y="1180" on="0"/>
        <pt x="203" y="942" on="1"/>
        <pt x="203" y="859" on="0"/>
        <pt x="226" y="817" on="1"/>
        <pt x="231" y="809" on="0"/>
        <pt x="231" y="803" on="1"/>
        <pt x="67" y="803" on="0"/>
        <pt x="26" y="908" on="1"/>
        <pt x="12" y="946" on="0"/>
        <pt x="12" y="1104" on="0"/>
        <pt x="88" y="1296" on="0"/>
        <pt x="172" y="1370" on="1"/>
        <pt x="357" y="1534" on="0"/>
        <pt x="711" y="1534" on="1"/>
        <pt x="742" y="1534" on="0"/>
        <pt x="800" y="1529" on="1"/>
        <pt x="929" y="1518" on="1"/>
        <pt x="1112" y="1501" on="0"/>
        <pt x="1401" y="1501" on="0"/>
      </contour>
      <contour>
        <pt x="1610" y="367" on="1"/>
        <pt x="1478" y="-12" on="0"/>
        <pt x="1168" y="-12" on="1"/>
        <pt x="1088" y="-12" on="0"/>
        <pt x="1024" y="46" on="1"/>
        <pt x="961" y="104" on="0"/>
        <pt x="961" y="233" on="1"/>
        <pt x="961" y="291" on="0"/>
        <pt x="977" y="367" on="1"/>
        <pt x="1116" y="1024" on="1"/>
        <pt x="1411" y="1024" on="1"/>
        <pt x="1264" y="328" on="1"/>
        <pt x="1256" y="291" on="0"/>
        <pt x="1256" y="255" on="1"/>
        <pt x="1256" y="186" on="0"/>
        <pt x="1339" y="186" on="1"/>
        <pt x="1399" y="186" on="0"/>
        <pt x="1502" y="290" on="0"/>
        <pt x="1524" y="367" on="1"/>
      </contour>
    </TTGlyph>
    <TTGlyph name="Thorn" xMin="12" yMin="0" xMax="1214" yMax="1536">
      <contour>
        <pt x="438" y="1151" on="1"/>
        <pt x="203" y="1028" on="0"/>
        <pt x="203" y="719" on="1"/>
        <pt x="203" y="636" on="0"/>
        <pt x="226" y="594" on="1"/>
        <pt x="231" y="586" on="0"/>
        <pt x="231" y="580" on="1"/>
        <pt x="67" y="580" on="0"/>
        <pt x="26" y="685" on="1"/>
        <pt x="12" y="723" on="0"/>
        <pt x="12" y="853" on="0"/>
        <pt x="84" y="999" on="0"/>
        <pt x="146" y="1062" on="1"/>
        <pt x="273" y="1194" on="0"/>
        <pt x="461" y="1262" on="1"/>
        <pt x="512" y="1495" on="1"/>
        <pt x="815" y="1536" on="1"/>
        <pt x="766" y="1311" on="1"/>
        <pt x="988" y="1300" on="0"/>
        <pt x="1214" y="1072" on="0"/>
        <pt x="1214" y="907" on="1"/>
        <pt x="1214" y="699" on="0"/>
        <pt x="886" y="358" on="0"/>
        <pt x="623" y="358" on="1"/>
        <pt x="563" y="358" on="1"/>
        <pt x="487" y="0" on="1"/>
        <pt x="193" y="0" on="1"/>
      </contour>
      <contour>
        <pt x="608" y="434" on="1"/>
        <pt x="710" y="434" on="0"/>
        <pt x="802" y="515" on="1"/>
        <pt x="931" y="629" on="0"/>
        <pt x="974" y="823" on="1"/>
        <pt x="987" y="882" on="0"/>
        <pt x="987" y="938" on="1"/>
        <pt x="987" y="1057" on="0"/>
        <pt x="868" y="1211" on="0"/>
        <pt x="748" y="1217" on="1"/>
        <pt x="580" y="434" on="1"/>
      </contour>
    </TTGlyph>
    <TTGlyph name="U" xMin="0" yMin="-14" xMax="1559" yMax="1536">
      <contour>
        <pt x="1270" y="1532" on="1"/>
        <pt x="1559" y="1532" on="1"/>
        <pt x="1423" y="893" on="1"/>
        <pt x="1345" y="512" on="0"/>
        <pt x="1263" y="332" on="1"/>
        <pt x="1165" y="117" on="0"/>
        <pt x="1000" y="40" on="1"/>
        <pt x="882" y="-14" on="0"/>
        <pt x="602" y="-14" on="0"/>
        <pt x="451" y="29" on="0"/>
        <pt x="404" y="70" on="1"/>
        <pt x="317" y="149" on="0"/>
        <pt x="317" y="465" on="0"/>
        <pt x="368" y="675" on="1"/>
        <pt x="553" y="1417" on="1"/>
        <pt x="384" y="1372" on="0"/>
        <pt x="190" y="1134" on="0"/>
        <pt x="190" y="946" on="1"/>
        <pt x="190" y="859" on="0"/>
        <pt x="214" y="818" on="1"/>
        <pt x="219" y="811" on="0"/>
        <pt x="219" y="805" on="1"/>
        <pt x="57" y="805" on="0"/>
        <pt x="15" y="905" on="1"/>
        <pt x="0" y="941" on="0"/>
        <pt x="0" y="993" on="1"/>
        <pt x="0" y="1102" on="0"/>
        <pt x="65" y="1200" on="1"/>
        <pt x="202" y="1403" on="0"/>
        <pt x="485" y="1492" on="1"/>
        <pt x="626" y="1536" on="0"/>
        <pt x="774" y="1536" on="1"/>
        <pt x="819" y="1536" on="0"/>
        <pt x="872" y="1526" on="1"/>
        <pt x="663" y="748" on="1"/>
        <pt x="596" y="489" on="0"/>
        <pt x="596" y="283" on="0"/>
        <pt x="659" y="186" on="0"/>
        <pt x="837" y="186" on="0"/>
        <pt x="877" y="216" on="1"/>
        <pt x="950" y="271" on="0"/>
        <pt x="1058" y="560" on="0"/>
        <pt x="1133" y="899" on="1"/>
      </contour>
    </TTGlyph>
    <TTGlyph name="Uacute" xMin="0" yMin="-14" xMax="1559" yMax="2048">
      <contour>
        <pt x="1270" y="1532" on="1"/>
        <pt x="1559" y="1532" on="1"/>
        <pt x="1423" y="893" on="1"/>
        <pt x="1345" y="512" on="0"/>
        <pt x="1263" y="332" on="1"/>
        <pt x="1165" y="117" on="0"/>
        <pt x="1000" y="40" on="1"/>
        <pt x="882" y="-14" on="0"/>
        <pt x="602" y="-14" on="0"/>
        <pt x="451" y="29" on="0"/>
        <pt x="404" y="70" on="1"/>
        <pt x="317" y="149" on="0"/>
        <pt x="317" y="465" on="0"/>
        <pt x="368" y="675" on="1"/>
        <pt x="553" y="1417" on="1"/>
        <pt x="384" y="1372" on="0"/>
        <pt x="190" y="1134" on="0"/>
        <pt x="190" y="946" on="1"/>
        <pt x="190" y="859" on="0"/>
        <pt x="214" y="818" on="1"/>
        <pt x="219" y="811" on="0"/>
        <pt x="219" y="805" on="1"/>
        <pt x="57" y="805" on="0"/>
        <pt x="15" y="905" on="1"/>
        <pt x="0" y="941" on="0"/>
        <pt x="0" y="993" on="1"/>
        <pt x="0" y="1102" on="0"/>
        <pt x="65" y="1200" on="1"/>
        <pt x="202" y="1403" on="0"/>
        <pt x="485" y="1492" on="1"/>
        <pt x="626" y="1536" on="0"/>
        <pt x="774" y="1536" on="1"/>
        <pt x="819" y="1536" on="0"/>
        <pt x="872" y="1526" on="1"/>
        <pt x="663" y="748" on="1"/>
        <pt x="596" y="489" on="0"/>
        <pt x="596" y="283" on="0"/>
        <pt x="659" y="186" on="0"/>
        <pt x="837" y="186" on="0"/>
        <pt x="877" y="216" on="1"/>
        <pt x="950" y="271" on="0"/>
        <pt x="1058" y="560" on="0"/>
        <pt x="1133" y="899" on="1"/>
      </contour>
      <contour>
        <pt x="924" y="1661" on="1"/>
        <pt x="1110" y="2048" on="1"/>
        <pt x="1325" y="2048" on="1"/>
        <pt x="1077" y="1661" on="1"/>
      </contour>
    </TTGlyph>
    <TTGlyph name="Ucircumflex" xMin="0" yMin="-14" xMax="1559" yMax="2048">
      <contour>
        <pt x="1270" y="1532" on="1"/>
        <pt x="1559" y="1532" on="1"/>
        <pt x="1423" y="893" on="1"/>
        <pt x="1345" y="512" on="0"/>
        <pt x="1263" y="332" on="1"/>
        <pt x="1165" y="117" on="0"/>
        <pt x="1000" y="40" on="1"/>
        <pt x="882" y="-14" on="0"/>
        <pt x="602" y="-14" on="0"/>
        <pt x="451" y="29" on="0"/>
        <pt x="404" y="70" on="1"/>
        <pt x="317" y="149" on="0"/>
        <pt x="317" y="465" on="0"/>
        <pt x="368" y="675" on="1"/>
        <pt x="553" y="1417" on="1"/>
        <pt x="384" y="1372" on="0"/>
        <pt x="190" y="1134" on="0"/>
        <pt x="190" y="946" on="1"/>
        <pt x="190" y="859" on="0"/>
        <pt x="214" y="818" on="1"/>
        <pt x="219" y="811" on="0"/>
        <pt x="219" y="805" on="1"/>
        <pt x="57" y="805" on="0"/>
        <pt x="15" y="905" on="1"/>
        <pt x="0" y="941" on="0"/>
        <pt x="0" y="993" on="1"/>
        <pt x="0" y="1102" on="0"/>
        <pt x="65" y="1200" on="1"/>
        <pt x="202" y="1403" on="0"/>
        <pt x="485" y="1492" on="1"/>
        <pt x="626" y="1536" on="0"/>
        <pt x="774" y="1536" on="1"/>
        <pt x="819" y="1536" on="0"/>
        <pt x="872" y="1526" on="1"/>
        <pt x="663" y="748" on="1"/>
        <pt x="596" y="489" on="0"/>
        <pt x="596" y="283" on="0"/>
        <pt x="659" y="186" on="0"/>
        <pt x="837" y="186" on="0"/>
        <pt x="877" y="216" on="1"/>
        <pt x="950" y="271" on="0"/>
        <pt x="1058" y="560" on="0"/>
        <pt x="1133" y="899" on="1"/>
      </contour>
      <contour>
        <pt x="1278" y="1661" on="1"/>
        <pt x="1155" y="1825" on="1"/>
        <pt x="833" y="1661" on="1"/>
        <pt x="743" y="1661" on="1"/>
        <pt x="1177" y="2048" on="1"/>
        <pt x="1220" y="2048" on="1"/>
        <pt x="1343" y="1661" on="1"/>
      </contour>
    </TTGlyph>
    <TTGlyph name="Udieresis" xMin="0" yMin="-14" xMax="1559" yMax="1935">
      <contour>
        <pt x="1270" y="1532" on="1"/>
        <pt x="1559" y="1532" on="1"/>
        <pt x="1423" y="893" on="1"/>
        <pt x="1345" y="512" on="0"/>
        <pt x="1263" y="332" on="1"/>
        <pt x="1165" y="117" on="0"/>
        <pt x="1000" y="40" on="1"/>
        <pt x="882" y="-14" on="0"/>
        <pt x="602" y="-14" on="0"/>
        <pt x="451" y="29" on="0"/>
        <pt x="404" y="70" on="1"/>
        <pt x="317" y="149" on="0"/>
        <pt x="317" y="465" on="0"/>
        <pt x="368" y="675" on="1"/>
        <pt x="553" y="1417" on="1"/>
        <pt x="384" y="1372" on="0"/>
        <pt x="190" y="1134" on="0"/>
        <pt x="190" y="946" on="1"/>
        <pt x="190" y="859" on="0"/>
        <pt x="214" y="818" on="1"/>
        <pt x="219" y="811" on="0"/>
        <pt x="219" y="805" on="1"/>
        <pt x="57" y="805" on="0"/>
        <pt x="15" y="905" on="1"/>
        <pt x="0" y="941" on="0"/>
        <pt x="0" y="993" on="1"/>
        <pt x="0" y="1102" on="0"/>
        <pt x="65" y="1200" on="1"/>
        <pt x="202" y="1403" on="0"/>
        <pt x="485" y="1492" on="1"/>
        <pt x="626" y="1536" on="0"/>
        <pt x="774" y="1536" on="1"/>
        <pt x="819" y="1536" on="0"/>
        <pt x="872" y="1526" on="1"/>
        <pt x="663" y="748" on="1"/>
        <pt x="596" y="489" on="0"/>
        <pt x="596" y="283" on="0"/>
        <pt x="659" y="186" on="0"/>
        <pt x="837" y="186" on="0"/>
        <pt x="877" y="216" on="1"/>
        <pt x="950" y="271" on="0"/>
        <pt x="1058" y="560" on="0"/>
        <pt x="1133" y="899" on="1"/>
      </contour>
      <contour>
        <pt x="977" y="1721" on="1"/>
        <pt x="939" y="1686" on="0"/>
        <pt x="900" y="1686" on="1"/>
        <pt x="834" y="1686" on="0"/>
        <pt x="764" y="1757" on="0"/>
        <pt x="764" y="1861" on="0"/>
        <pt x="799" y="1898" on="1"/>
        <pt x="835" y="1935" on="0"/>
        <pt x="940" y="1935" on="0"/>
        <pt x="1014" y="1862" on="0"/>
        <pt x="1014" y="1757" on="0"/>
      </contour>
      <contour>
        <pt x="1345" y="1721" on="1"/>
        <pt x="1307" y="1686" on="0"/>
        <pt x="1268" y="1686" on="1"/>
        <pt x="1204" y="1686" on="0"/>
        <pt x="1132" y="1756" on="0"/>
        <pt x="1132" y="1862" on="0"/>
        <pt x="1204" y="1935" on="0"/>
        <pt x="1308" y="1935" on="0"/>
        <pt x="1382" y="1862" on="0"/>
        <pt x="1382" y="1757" on="0"/>
      </contour>
    </TTGlyph>
    <TTGlyph name="Ugrave" xMin="0" yMin="-14" xMax="1559" yMax="2048">
      <contour>
        <pt x="1270" y="1532" on="1"/>
        <pt x="1559" y="1532" on="1"/>
        <pt x="1423" y="893" on="1"/>
        <pt x="1345" y="512" on="0"/>
        <pt x="1263" y="332" on="1"/>
        <pt x="1165" y="117" on="0"/>
        <pt x="1000" y="40" on="1"/>
        <pt x="882" y="-14" on="0"/>
        <pt x="602" y="-14" on="0"/>
        <pt x="451" y="29" on="0"/>
        <pt x="404" y="70" on="1"/>
        <pt x="317" y="149" on="0"/>
        <pt x="317" y="465" on="0"/>
        <pt x="368" y="675" on="1"/>
        <pt x="553" y="1417" on="1"/>
        <pt x="384" y="1372" on="0"/>
        <pt x="190" y="1134" on="0"/>
        <pt x="190" y="946" on="1"/>
        <pt x="190" y="859" on="0"/>
        <pt x="214" y="818" on="1"/>
        <pt x="219" y="811" on="0"/>
        <pt x="219" y="805" on="1"/>
        <pt x="57" y="805" on="0"/>
        <pt x="15" y="905" on="1"/>
        <pt x="0" y="941" on="0"/>
        <pt x="0" y="993" on="1"/>
        <pt x="0" y="1102" on="0"/>
        <pt x="65" y="1200" on="1"/>
        <pt x="202" y="1403" on="0"/>
        <pt x="485" y="1492" on="1"/>
        <pt x="626" y="1536" on="0"/>
        <pt x="774" y="1536" on="1"/>
        <pt x="819" y="1536" on="0"/>
        <pt x="872" y="1526" on="1"/>
        <pt x="663" y="748" on="1"/>
        <pt x="596" y="489" on="0"/>
        <pt x="596" y="283" on="0"/>
        <pt x="659" y="186" on="0"/>
        <pt x="837" y="186" on="0"/>
        <pt x="877" y="216" on="1"/>
        <pt x="950" y="271" on="0"/>
        <pt x="1058" y="560" on="0"/>
        <pt x="1133" y="899" on="1"/>
      </contour>
      <contour>
        <pt x="961" y="1661" on="1"/>
        <pt x="840" y="2048" on="1"/>
        <pt x="1055" y="2048" on="1"/>
        <pt x="1115" y="1661" on="1"/>
      </contour>
    </TTGlyph>
    <TTGlyph name="V" xMin="12" yMin="0" xMax="1405" yMax="1536">
      <contour>
        <pt x="541" y="0" on="1"/>
        <pt x="508" y="1399" on="1"/>
        <pt x="364" y="1345" on="0"/>
        <pt x="203" y="1115" on="0"/>
        <pt x="203" y="944" on="1"/>
        <pt x="203" y="861" on="0"/>
        <pt x="226" y="819" on="1"/>
        <pt x="231" y="811" on="0"/>
        <pt x="231" y="805" on="1"/>
        <pt x="67" y="805" on="0"/>
        <pt x="26" y="910" on="1"/>
        <pt x="12" y="948" on="0"/>
        <pt x="12" y="1004" on="1"/>
        <pt x="12" y="1107" on="0"/>
        <pt x="141" y="1298" on="0"/>
        <pt x="243" y="1372" on="1"/>
        <pt x="476" y="1536" on="0"/>
        <pt x="731" y="1536" on="1"/>
        <pt x="773" y="1536" on="0"/>
        <pt x="813" y="1532" on="1"/>
        <pt x="831" y="272" on="1"/>
        <pt x="1262" y="1526" on="1"/>
        <pt x="1405" y="1526" on="1"/>
        <pt x="836" y="0" on="1"/>
      </contour>
    </TTGlyph>
    <TTGlyph name="W" xMin="12" yMin="0" xMax="2114" yMax="1536">
      <contour>
        <pt x="1249" y="0" on="1"/>
        <pt x="1225" y="1042" on="1"/>
        <pt x="836" y="0" on="1"/>
        <pt x="541" y="0" on="1"/>
        <pt x="508" y="1399" on="1"/>
        <pt x="364" y="1345" on="0"/>
        <pt x="203" y="1115" on="0"/>
        <pt x="203" y="944" on="1"/>
        <pt x="203" y="861" on="0"/>
        <pt x="226" y="819" on="1"/>
        <pt x="231" y="811" on="0"/>
        <pt x="231" y="805" on="1"/>
        <pt x="67" y="805" on="0"/>
        <pt x="26" y="910" on="1"/>
        <pt x="12" y="948" on="0"/>
        <pt x="12" y="1004" on="1"/>
        <pt x="12" y="1107" on="0"/>
        <pt x="141" y="1298" on="0"/>
        <pt x="243" y="1372" on="1"/>
        <pt x="476" y="1536" on="0"/>
        <pt x="731" y="1536" on="1"/>
        <pt x="773" y="1536" on="0"/>
        <pt x="813" y="1532" on="1"/>
        <pt x="831" y="272" on="1"/>
        <pt x="1262" y="1526" on="1"/>
        <pt x="1522" y="1526" on="1"/>
        <pt x="1540" y="272" on="1"/>
        <pt x="1970" y="1526" on="1"/>
        <pt x="2114" y="1526" on="1"/>
        <pt x="1544" y="0" on="1"/>
      </contour>
    </TTGlyph>
    <TTGlyph name="X" xMin="12" yMin="0" xMax="1282" yMax="1536">
      <contour>
        <pt x="805" y="0" on="1"/>
        <pt x="696" y="512" on="1"/>
        <pt x="399" y="0" on="1"/>
        <pt x="274" y="0" on="1"/>
        <pt x="659" y="680" on="1"/>
        <pt x="508" y="1399" on="1"/>
        <pt x="364" y="1345" on="0"/>
        <pt x="203" y="1115" on="0"/>
        <pt x="203" y="944" on="1"/>
        <pt x="203" y="861" on="0"/>
        <pt x="226" y="819" on="1"/>
        <pt x="231" y="811" on="0"/>
        <pt x="231" y="805" on="1"/>
        <pt x="67" y="805" on="0"/>
        <pt x="26" y="910" on="1"/>
        <pt x="12" y="948" on="0"/>
        <pt x="12" y="1004" on="1"/>
        <pt x="12" y="1107" on="0"/>
        <pt x="141" y="1298" on="0"/>
        <pt x="243" y="1372" on="1"/>
        <pt x="476" y="1536" on="0"/>
        <pt x="731" y="1536" on="1"/>
        <pt x="773" y="1536" on="0"/>
        <pt x="813" y="1532" on="1"/>
        <pt x="901" y="1106" on="1"/>
        <pt x="1139" y="1526" on="1"/>
        <pt x="1282" y="1526" on="1"/>
        <pt x="938" y="930" on="1"/>
        <pt x="1130" y="0" on="1"/>
      </contour>
    </TTGlyph>
    <TTGlyph name="Y" xMin="12" yMin="0" xMax="1430" yMax="1536">
      <contour>
        <pt x="569" y="0" on="1"/>
        <pt x="705" y="631" on="1"/>
        <pt x="508" y="1399" on="1"/>
        <pt x="364" y="1345" on="0"/>
        <pt x="203" y="1115" on="0"/>
        <pt x="203" y="944" on="1"/>
        <pt x="203" y="861" on="0"/>
        <pt x="226" y="819" on="1"/>
        <pt x="231" y="811" on="0"/>
        <pt x="231" y="805" on="1"/>
        <pt x="67" y="805" on="0"/>
        <pt x="26" y="910" on="1"/>
        <pt x="12" y="948" on="0"/>
        <pt x="12" y="1004" on="1"/>
        <pt x="12" y="1107" on="0"/>
        <pt x="141" y="1298" on="0"/>
        <pt x="243" y="1372" on="1"/>
        <pt x="476" y="1536" on="0"/>
        <pt x="731" y="1536" on="1"/>
        <pt x="773" y="1536" on="0"/>
        <pt x="813" y="1532" on="1"/>
        <pt x="991" y="799" on="1"/>
        <pt x="1294" y="1526" on="1"/>
        <pt x="1430" y="1526" on="1"/>
        <pt x="1032" y="631" on="1"/>
        <pt x="897" y="0" on="1"/>
      </contour>
    </TTGlyph>
    <TTGlyph name="Yacute" xMin="12" yMin="0" xMax="1430" yMax="2048">
      <contour>
        <pt x="569" y="0" on="1"/>
        <pt x="705" y="631" on="1"/>
        <pt x="508" y="1399" on="1"/>
        <pt x="364" y="1345" on="0"/>
        <pt x="203" y="1115" on="0"/>
        <pt x="203" y="944" on="1"/>
        <pt x="203" y="861" on="0"/>
        <pt x="226" y="819" on="1"/>
        <pt x="231" y="811" on="0"/>
        <pt x="231" y="805" on="1"/>
        <pt x="67" y="805" on="0"/>
        <pt x="26" y="910" on="1"/>
        <pt x="12" y="948" on="0"/>
        <pt x="12" y="1004" on="1"/>
        <pt x="12" y="1107" on="0"/>
        <pt x="141" y="1298" on="0"/>
        <pt x="243" y="1372" on="1"/>
        <pt x="476" y="1536" on="0"/>
        <pt x="731" y="1536" on="1"/>
        <pt x="773" y="1536" on="0"/>
        <pt x="813" y="1532" on="1"/>
        <pt x="991" y="799" on="1"/>
        <pt x="1294" y="1526" on="1"/>
        <pt x="1430" y="1526" on="1"/>
        <pt x="1032" y="631" on="1"/>
        <pt x="897" y="0" on="1"/>
      </contour>
      <contour>
        <pt x="928" y="1661" on="1"/>
        <pt x="1114" y="2048" on="1"/>
        <pt x="1329" y="2048" on="1"/>
        <pt x="1081" y="1661" on="1"/>
      </contour>
    </TTGlyph>
    <TTGlyph name="Ydieresis" xMin="12" yMin="0" xMax="1430" yMax="1935">
      <contour>
        <pt x="569" y="0" on="1"/>
        <pt x="705" y="631" on="1"/>
        <pt x="508" y="1399" on="1"/>
        <pt x="364" y="1345" on="0"/>
        <pt x="203" y="1115" on="0"/>
        <pt x="203" y="944" on="1"/>
        <pt x="203" y="861" on="0"/>
        <pt x="226" y="819" on="1"/>
        <pt x="231" y="811" on="0"/>
        <pt x="231" y="805" on="1"/>
        <pt x="67" y="805" on="0"/>
        <pt x="26" y="910" on="1"/>
        <pt x="12" y="948" on="0"/>
        <pt x="12" y="1004" on="1"/>
        <pt x="12" y="1107" on="0"/>
        <pt x="141" y="1298" on="0"/>
        <pt x="243" y="1372" on="1"/>
        <pt x="476" y="1536" on="0"/>
        <pt x="731" y="1536" on="1"/>
        <pt x="773" y="1536" on="0"/>
        <pt x="813" y="1532" on="1"/>
        <pt x="991" y="799" on="1"/>
        <pt x="1294" y="1526" on="1"/>
        <pt x="1430" y="1526" on="1"/>
        <pt x="1032" y="631" on="1"/>
        <pt x="897" y="0" on="1"/>
      </contour>
      <contour>
        <pt x="990" y="1721" on="1"/>
        <pt x="952" y="1686" on="0"/>
        <pt x="914" y="1686" on="1"/>
        <pt x="848" y="1686" on="0"/>
        <pt x="777" y="1757" on="0"/>
        <pt x="777" y="1861" on="0"/>
        <pt x="812" y="1898" on="1"/>
        <pt x="848" y="1935" on="0"/>
        <pt x="953" y="1935" on="0"/>
        <pt x="1027" y="1862" on="0"/>
        <pt x="1027" y="1757" on="0"/>
      </contour>
      <contour>
        <pt x="1358" y="1721" on="1"/>
        <pt x="1320" y="1686" on="0"/>
        <pt x="1282" y="1686" on="1"/>
        <pt x="1217" y="1686" on="0"/>
        <pt x="1145" y="1756" on="0"/>
        <pt x="1145" y="1862" on="0"/>
        <pt x="1217" y="1935" on="0"/>
        <pt x="1321" y="1935" on="0"/>
        <pt x="1395" y="1862" on="0"/>
        <pt x="1395" y="1757" on="0"/>
      </contour>
    </TTGlyph>
    <TTGlyph name="Z" xMin="23" yMin="0" xMax="1130" yMax="1536">
      <contour>
        <pt x="424" y="133" on="1"/>
        <pt x="621" y="129" on="1"/>
        <pt x="692" y="129" on="0"/>
        <pt x="812" y="144" on="0"/>
        <pt x="834" y="174" on="1"/>
        <pt x="823" y="174" on="0"/>
        <pt x="797" y="201" on="0"/>
        <pt x="797" y="236" on="1"/>
        <pt x="797" y="297" on="0"/>
        <pt x="871" y="356" on="0"/>
        <pt x="977" y="356" on="0"/>
        <pt x="1024" y="280" on="0"/>
        <pt x="1024" y="240" on="1"/>
        <pt x="1024" y="152" on="0"/>
        <pt x="876" y="0" on="0"/>
        <pt x="762" y="0" on="1"/>
        <pt x="23" y="0" on="1"/>
        <pt x="739" y="1425" on="1"/>
        <pt x="555" y="1430" on="1"/>
        <pt x="367" y="1430" on="0"/>
        <pt x="367" y="1384" on="1"/>
        <pt x="377" y="1384" on="0"/>
        <pt x="401" y="1356" on="0"/>
        <pt x="401" y="1320" on="1"/>
        <pt x="401" y="1259" on="0"/>
        <pt x="326" y="1202" on="0"/>
        <pt x="220" y="1202" on="0"/>
        <pt x="176" y="1279" on="0"/>
        <pt x="176" y="1320" on="1"/>
        <pt x="176" y="1406" on="0"/>
        <pt x="310" y="1536" on="0"/>
        <pt x="428" y="1536" on="1"/>
        <pt x="1130" y="1536" on="1"/>
      </contour>
    </TTGlyph>
    <TTGlyph name="Zacute" xMin="23" yMin="0" xMax="1145" yMax="2048">
      <contour>
        <pt x="424" y="133" on="1"/>
        <pt x="621" y="129" on="1"/>
        <pt x="692" y="129" on="0"/>
        <pt x="812" y="144" on="0"/>
        <pt x="834" y="174" on="1"/>
        <pt x="823" y="174" on="0"/>
        <pt x="797" y="201" on="0"/>
        <pt x="797" y="236" on="1"/>
        <pt x="797" y="297" on="0"/>
        <pt x="871" y="356" on="0"/>
        <pt x="977" y="356" on="0"/>
        <pt x="1024" y="280" on="0"/>
        <pt x="1024" y="240" on="1"/>
        <pt x="1024" y="152" on="0"/>
        <pt x="876" y="0" on="0"/>
        <pt x="762" y="0" on="1"/>
        <pt x="23" y="0" on="1"/>
        <pt x="739" y="1425" on="1"/>
        <pt x="555" y="1430" on="1"/>
        <pt x="367" y="1430" on="0"/>
        <pt x="367" y="1384" on="1"/>
        <pt x="377" y="1384" on="0"/>
        <pt x="401" y="1356" on="0"/>
        <pt x="401" y="1320" on="1"/>
        <pt x="401" y="1259" on="0"/>
        <pt x="326" y="1202" on="0"/>
        <pt x="220" y="1202" on="0"/>
        <pt x="176" y="1279" on="0"/>
        <pt x="176" y="1320" on="1"/>
        <pt x="176" y="1406" on="0"/>
        <pt x="310" y="1536" on="0"/>
        <pt x="428" y="1536" on="1"/>
        <pt x="1130" y="1536" on="1"/>
      </contour>
      <contour>
        <pt x="744" y="1661" on="1"/>
        <pt x="930" y="2048" on="1"/>
        <pt x="1145" y="2048" on="1"/>
        <pt x="897" y="1661" on="1"/>
      </contour>
    </TTGlyph>
    <TTGlyph name="Zcaron" xMin="23" yMin="0" xMax="1223" yMax="2048">
      <contour>
        <pt x="424" y="133" on="1"/>
        <pt x="621" y="129" on="1"/>
        <pt x="692" y="129" on="0"/>
        <pt x="812" y="144" on="0"/>
        <pt x="834" y="174" on="1"/>
        <pt x="823" y="174" on="0"/>
        <pt x="797" y="201" on="0"/>
        <pt x="797" y="236" on="1"/>
        <pt x="797" y="297" on="0"/>
        <pt x="871" y="356" on="0"/>
        <pt x="977" y="356" on="0"/>
        <pt x="1024" y="280" on="0"/>
        <pt x="1024" y="240" on="1"/>
        <pt x="1024" y="152" on="0"/>
        <pt x="876" y="0" on="0"/>
        <pt x="762" y="0" on="1"/>
        <pt x="23" y="0" on="1"/>
        <pt x="739" y="1425" on="1"/>
        <pt x="555" y="1430" on="1"/>
        <pt x="367" y="1430" on="0"/>
        <pt x="367" y="1384" on="1"/>
        <pt x="377" y="1384" on="0"/>
        <pt x="401" y="1356" on="0"/>
        <pt x="401" y="1320" on="1"/>
        <pt x="401" y="1259" on="0"/>
        <pt x="326" y="1202" on="0"/>
        <pt x="220" y="1202" on="0"/>
        <pt x="176" y="1279" on="0"/>
        <pt x="176" y="1320" on="1"/>
        <pt x="176" y="1406" on="0"/>
        <pt x="310" y="1536" on="0"/>
        <pt x="428" y="1536" on="1"/>
        <pt x="1130" y="1536" on="1"/>
      </contour>
      <contour>
        <pt x="789" y="1661" on="1"/>
        <pt x="746" y="1661" on="1"/>
        <pt x="623" y="2048" on="1"/>
        <pt x="688" y="2048" on="1"/>
        <pt x="811" y="1884" on="1"/>
        <pt x="1133" y="2048" on="1"/>
        <pt x="1223" y="2048" on="1"/>
      </contour>
    </TTGlyph>
    <TTGlyph name="Zdotaccent" xMin="23" yMin="0" xMax="1130" yMax="1935">
      <contour>
        <pt x="748" y="1686" on="1"/>
        <pt x="653" y="1686" on="0"/>
        <pt x="622" y="1760" on="1"/>
        <pt x="612" y="1783" on="0"/>
        <pt x="612" y="1862" on="0"/>
        <pt x="684" y="1935" on="0"/>
        <pt x="788" y="1935" on="0"/>
        <pt x="862" y="1862" on="0"/>
        <pt x="862" y="1757" on="0"/>
        <pt x="825" y="1721" on="1"/>
        <pt x="787" y="1686" on="0"/>
      </contour>
      <contour>
        <pt x="424" y="133" on="1"/>
        <pt x="621" y="129" on="1"/>
        <pt x="692" y="129" on="0"/>
        <pt x="812" y="144" on="0"/>
        <pt x="834" y="174" on="1"/>
        <pt x="823" y="174" on="0"/>
        <pt x="797" y="201" on="0"/>
        <pt x="797" y="236" on="1"/>
        <pt x="797" y="297" on="0"/>
        <pt x="871" y="356" on="0"/>
        <pt x="977" y="356" on="0"/>
        <pt x="1024" y="280" on="0"/>
        <pt x="1024" y="240" on="1"/>
        <pt x="1024" y="152" on="0"/>
        <pt x="876" y="0" on="0"/>
        <pt x="762" y="0" on="1"/>
        <pt x="23" y="0" on="1"/>
        <pt x="739" y="1425" on="1"/>
        <pt x="555" y="1430" on="1"/>
        <pt x="367" y="1430" on="0"/>
        <pt x="367" y="1384" on="1"/>
        <pt x="377" y="1384" on="0"/>
        <pt x="401" y="1356" on="0"/>
        <pt x="401" y="1320" on="1"/>
        <pt x="401" y="1259" on="0"/>
        <pt x="326" y="1202" on="0"/>
        <pt x="220" y="1202" on="0"/>
        <pt x="176" y="1279" on="0"/>
        <pt x="176" y="1320" on="1"/>
        <pt x="176" y="1406" on="0"/>
        <pt x="310" y="1536" on="0"/>
        <pt x="428" y="1536" on="1"/>
        <pt x="1130" y="1536" on="1"/>
      </contour>
    </TTGlyph>
    <TTGlyph name="a" xMin="-27" yMin="-12" xMax="1163" yMax="1034">
      <contour>
        <pt x="1163" y="367" on="1"/>
        <pt x="1033" y="-12" on="0"/>
        <pt x="752" y="-12" on="1"/>
        <pt x="571" y="-12" on="0"/>
        <pt x="551" y="176" on="1"/>
        <pt x="417" y="-12" on="0"/>
        <pt x="60" y="-12" on="0"/>
        <pt x="-4" y="163" on="1"/>
        <pt x="-27" y="226" on="0"/>
        <pt x="-27" y="387" on="0"/>
        <pt x="1" y="548" on="0"/>
        <pt x="30" y="628" on="1"/>
        <pt x="94" y="804" on="0"/>
        <pt x="332" y="1034" on="0"/>
        <pt x="500" y="1034" on="1"/>
        <pt x="588" y="1034" on="0"/>
        <pt x="666" y="975" on="0"/>
        <pt x="666" y="930" on="1"/>
        <pt x="666" y="915" on="1"/>
        <pt x="688" y="1024" on="1"/>
        <pt x="983" y="1024" on="1"/>
        <pt x="836" y="328" on="1"/>
        <pt x="827" y="293" on="0"/>
        <pt x="827" y="262" on="1"/>
        <pt x="827" y="174" on="0"/>
        <pt x="911" y="174" on="1"/>
        <pt x="1020" y="174" on="0"/>
        <pt x="1077" y="367" on="1"/>
      </contour>
      <contour>
        <pt x="647" y="829" on="1"/>
        <pt x="647" y="848" on="0"/>
        <pt x="612" y="907" on="0"/>
        <pt x="498" y="907" on="0"/>
        <pt x="444" y="846" on="1"/>
        <pt x="314" y="699" on="0"/>
        <pt x="281" y="424" on="1"/>
        <pt x="276" y="382" on="0"/>
        <pt x="276" y="335" on="1"/>
        <pt x="276" y="244" on="0"/>
        <pt x="314" y="208" on="1"/>
        <pt x="336" y="186" on="0"/>
        <pt x="369" y="186" on="1"/>
        <pt x="430" y="186" on="0"/>
        <pt x="530" y="283" on="0"/>
        <pt x="549" y="367" on="1"/>
      </contour>
    </TTGlyph>
    <TTGlyph name="a.end" xMin="-27" yMin="-12" xMax="983" yMax="1034">
      <contour>
        <pt x="551" y="178" on="1"/>
        <pt x="424" y="-12" on="0"/>
        <pt x="60" y="-12" on="0"/>
        <pt x="-4" y="163" on="1"/>
        <pt x="-27" y="226" on="0"/>
        <pt x="-27" y="387" on="0"/>
        <pt x="1" y="548" on="0"/>
        <pt x="30" y="628" on="1"/>
        <pt x="94" y="804" on="0"/>
        <pt x="332" y="1034" on="0"/>
        <pt x="500" y="1034" on="1"/>
        <pt x="588" y="1034" on="0"/>
        <pt x="666" y="975" on="0"/>
        <pt x="666" y="930" on="1"/>
        <pt x="666" y="915" on="1"/>
        <pt x="688" y="1024" on="1"/>
        <pt x="983" y="1024" on="1"/>
        <pt x="836" y="328" on="1"/>
        <pt x="827" y="293" on="0"/>
        <pt x="827" y="256" on="1"/>
        <pt x="827" y="186" on="0"/>
        <pt x="911" y="186" on="1"/>
        <pt x="938" y="186" on="0"/>
        <pt x="956" y="195" on="1"/>
        <pt x="913" y="80" on="0"/>
        <pt x="883" y="46" on="1"/>
        <pt x="830" y="-12" on="0"/>
        <pt x="667" y="-12" on="0"/>
        <pt x="563" y="87" on="0"/>
      </contour>
      <contour>
        <pt x="647" y="829" on="1"/>
        <pt x="647" y="848" on="0"/>
        <pt x="612" y="907" on="0"/>
        <pt x="498" y="907" on="0"/>
        <pt x="444" y="846" on="1"/>
        <pt x="314" y="699" on="0"/>
        <pt x="281" y="424" on="1"/>
        <pt x="276" y="382" on="0"/>
        <pt x="276" y="335" on="1"/>
        <pt x="276" y="244" on="0"/>
        <pt x="314" y="208" on="1"/>
        <pt x="336" y="186" on="0"/>
        <pt x="369" y="186" on="1"/>
        <pt x="430" y="186" on="0"/>
        <pt x="530" y="283" on="0"/>
        <pt x="549" y="367" on="1"/>
      </contour>
    </TTGlyph>
    <TTGlyph name="a_x" xMin="-27" yMin="-12" xMax="1927" yMax="1139">
      <contour>
        <pt x="1653" y="928" on="1"/>
        <pt x="1556" y="928" on="0"/>
        <pt x="1556" y="1042" on="1"/>
        <pt x="1556" y="1088" on="0"/>
        <pt x="1621" y="1139" on="0"/>
        <pt x="1740" y="1139" on="0"/>
        <pt x="1810" y="1032" on="0"/>
        <pt x="1810" y="944" on="1"/>
        <pt x="1810" y="815" on="0"/>
        <pt x="1649" y="618" on="1"/>
        <pt x="1594" y="550" on="0"/>
        <pt x="1518" y="469" on="1"/>
        <pt x="1536" y="367" on="1"/>
        <pt x="1548" y="306" on="1"/>
        <pt x="1573" y="186" on="0"/>
        <pt x="1657" y="186" on="1"/>
        <pt x="1716" y="186" on="0"/>
        <pt x="1767" y="237" on="1"/>
        <pt x="1818" y="288" on="0"/>
        <pt x="1841" y="367" on="1"/>
        <pt x="1927" y="367" on="1"/>
        <pt x="1795" y="-12" on="0"/>
        <pt x="1505" y="-12" on="1"/>
        <pt x="1408" y="-12" on="0"/>
        <pt x="1302" y="118" on="0"/>
        <pt x="1268" y="262" on="1"/>
        <pt x="1050" y="-12" on="0"/>
        <pt x="786" y="-12" on="1"/>
        <pt x="701" y="-12" on="0"/>
        <pt x="570" y="87" on="0"/>
        <pt x="553" y="180" on="1"/>
        <pt x="425" y="-12" on="0"/>
        <pt x="60" y="-12" on="0"/>
        <pt x="-4" y="163" on="1"/>
        <pt x="-27" y="226" on="0"/>
        <pt x="-27" y="387" on="0"/>
        <pt x="1" y="548" on="0"/>
        <pt x="30" y="628" on="1"/>
        <pt x="94" y="804" on="0"/>
        <pt x="332" y="1034" on="0"/>
        <pt x="500" y="1034" on="1"/>
        <pt x="588" y="1034" on="0"/>
        <pt x="666" y="975" on="0"/>
        <pt x="666" y="930" on="1"/>
        <pt x="666" y="915" on="1"/>
        <pt x="688" y="1024" on="1"/>
        <pt x="983" y="1024" on="1"/>
        <pt x="836" y="328" on="1"/>
        <pt x="829" y="301" on="0"/>
        <pt x="829" y="238" on="0"/>
        <pt x="866" y="186" on="0"/>
        <pt x="912" y="186" on="1"/>
        <pt x="995" y="186" on="0"/>
        <pt x="1178" y="297" on="0"/>
        <pt x="1245" y="379" on="1"/>
        <pt x="1126" y="1024" on="1"/>
        <pt x="1415" y="1024" on="1"/>
        <pt x="1495" y="582" on="1"/>
        <pt x="1690" y="790" on="0"/>
        <pt x="1690" y="907" on="1"/>
        <pt x="1690" y="922" on="0"/>
        <pt x="1688" y="932" on="1"/>
        <pt x="1668" y="928" on="0"/>
      </contour>
      <contour>
        <pt x="647" y="829" on="1"/>
        <pt x="647" y="848" on="0"/>
        <pt x="612" y="907" on="0"/>
        <pt x="498" y="907" on="0"/>
        <pt x="444" y="846" on="1"/>
        <pt x="314" y="699" on="0"/>
        <pt x="281" y="424" on="1"/>
        <pt x="276" y="382" on="0"/>
        <pt x="276" y="335" on="1"/>
        <pt x="276" y="244" on="0"/>
        <pt x="314" y="208" on="1"/>
        <pt x="336" y="186" on="0"/>
        <pt x="369" y="186" on="1"/>
        <pt x="430" y="186" on="0"/>
        <pt x="530" y="283" on="0"/>
        <pt x="549" y="367" on="1"/>
      </contour>
    </TTGlyph>
    <TTGlyph name="a_x.end" xMin="-27" yMin="-12" xMax="1810" yMax="1139">
      <contour>
        <pt x="1653" y="928" on="1"/>
        <pt x="1556" y="928" on="0"/>
        <pt x="1556" y="1042" on="1"/>
        <pt x="1556" y="1088" on="0"/>
        <pt x="1621" y="1139" on="0"/>
        <pt x="1740" y="1139" on="0"/>
        <pt x="1810" y="1032" on="0"/>
        <pt x="1810" y="944" on="1"/>
        <pt x="1810" y="815" on="0"/>
        <pt x="1649" y="618" on="1"/>
        <pt x="1594" y="550" on="0"/>
        <pt x="1518" y="469" on="1"/>
        <pt x="1536" y="367" on="1"/>
        <pt x="1552" y="275" on="0"/>
        <pt x="1574" y="230" on="1"/>
        <pt x="1597" y="186" on="0"/>
        <pt x="1665" y="186" on="1"/>
        <pt x="1694" y="186" on="0"/>
        <pt x="1707" y="190" on="1"/>
        <pt x="1731" y="199" on="1"/>
        <pt x="1722" y="96" on="0"/>
        <pt x="1595" y="-12" on="0"/>
        <pt x="1408" y="-12" on="0"/>
        <pt x="1302" y="118" on="0"/>
        <pt x="1268" y="262" on="1"/>
        <pt x="1050" y="-12" on="0"/>
        <pt x="786" y="-12" on="1"/>
        <pt x="701" y="-12" on="0"/>
        <pt x="570" y="87" on="0"/>
        <pt x="553" y="180" on="1"/>
        <pt x="425" y="-12" on="0"/>
        <pt x="60" y="-12" on="0"/>
        <pt x="-4" y="163" on="1"/>
        <pt x="-27" y="226" on="0"/>
        <pt x="-27" y="387" on="0"/>
        <pt x="1" y="548" on="0"/>
        <pt x="30" y="628" on="1"/>
        <pt x="94" y="804" on="0"/>
        <pt x="332" y="1034" on="0"/>
        <pt x="500" y="1034" on="1"/>
        <pt x="588" y="1034" on="0"/>
        <pt x="666" y="975" on="0"/>
        <pt x="666" y="930" on="1"/>
        <pt x="666" y="915" on="1"/>
        <pt x="688" y="1024" on="1"/>
        <pt x="983" y="1024" on="1"/>
        <pt x="836" y="328" on="1"/>
        <pt x="829" y="301" on="0"/>
        <pt x="829" y="238" on="0"/>
        <pt x="866" y="186" on="0"/>
        <pt x="912" y="186" on="1"/>
        <pt x="995" y="186" on="0"/>
        <pt x="1178" y="297" on="0"/>
        <pt x="1245" y="379" on="1"/>
        <pt x="1126" y="1024" on="1"/>
        <pt x="1415" y="1024" on="1"/>
        <pt x="1495" y="582" on="1"/>
        <pt x="1690" y="790" on="0"/>
        <pt x="1690" y="907" on="1"/>
        <pt x="1690" y="922" on="0"/>
        <pt x="1688" y="932" on="1"/>
        <pt x="1668" y="928" on="0"/>
      </contour>
      <contour>
        <pt x="647" y="829" on="1"/>
        <pt x="647" y="848" on="0"/>
        <pt x="612" y="907" on="0"/>
        <pt x="498" y="907" on="0"/>
        <pt x="444" y="846" on="1"/>
        <pt x="314" y="699" on="0"/>
        <pt x="281" y="424" on="1"/>
        <pt x="276" y="382" on="0"/>
        <pt x="276" y="335" on="1"/>
        <pt x="276" y="244" on="0"/>
        <pt x="314" y="208" on="1"/>
        <pt x="336" y="186" on="0"/>
        <pt x="369" y="186" on="1"/>
        <pt x="430" y="186" on="0"/>
        <pt x="530" y="283" on="0"/>
        <pt x="549" y="367" on="1"/>
      </contour>
    </TTGlyph>
    <TTGlyph name="a_z" xMin="-27" yMin="-12" xMax="1856" yMax="1034">
      <contour>
        <pt x="551" y="178" on="1"/>
        <pt x="424" y="-12" on="0"/>
        <pt x="60" y="-12" on="0"/>
        <pt x="-4" y="163" on="1"/>
        <pt x="-27" y="226" on="0"/>
        <pt x="-27" y="387" on="0"/>
        <pt x="1" y="548" on="0"/>
        <pt x="30" y="628" on="1"/>
        <pt x="94" y="804" on="0"/>
        <pt x="332" y="1034" on="0"/>
        <pt x="500" y="1034" on="1"/>
        <pt x="588" y="1034" on="0"/>
        <pt x="666" y="975" on="0"/>
        <pt x="666" y="930" on="1"/>
        <pt x="666" y="915" on="1"/>
        <pt x="688" y="1024" on="1"/>
        <pt x="983" y="1024" on="1"/>
        <pt x="836" y="328" on="1"/>
        <pt x="827" y="293" on="0"/>
        <pt x="827" y="256" on="1"/>
        <pt x="827" y="186" on="0"/>
        <pt x="911" y="186" on="1"/>
        <pt x="938" y="186" on="0"/>
        <pt x="956" y="195" on="1"/>
        <pt x="913" y="80" on="0"/>
        <pt x="883" y="46" on="1"/>
        <pt x="830" y="-12" on="0"/>
        <pt x="667" y="-12" on="0"/>
        <pt x="563" y="87" on="0"/>
      </contour>
      <contour>
        <pt x="647" y="829" on="1"/>
        <pt x="647" y="848" on="0"/>
        <pt x="612" y="907" on="0"/>
        <pt x="498" y="907" on="0"/>
        <pt x="444" y="846" on="1"/>
        <pt x="314" y="699" on="0"/>
        <pt x="281" y="424" on="1"/>
        <pt x="276" y="382" on="0"/>
        <pt x="276" y="335" on="1"/>
        <pt x="276" y="244" on="0"/>
        <pt x="314" y="208" on="1"/>
        <pt x="336" y="186" on="0"/>
        <pt x="369" y="186" on="1"/>
        <pt x="430" y="186" on="0"/>
        <pt x="530" y="283" on="0"/>
        <pt x="549" y="367" on="1"/>
      </contour>
      <contour>
        <pt x="1681" y="317" on="1"/>
        <pt x="1772" y="317" on="0"/>
        <pt x="1772" y="219" on="1"/>
        <pt x="1772" y="140" on="0"/>
        <pt x="1632" y="0" on="0"/>
        <pt x="1522" y="0" on="1"/>
        <pt x="979" y="0" on="1"/>
        <pt x="1501" y="913" on="1"/>
        <pt x="1387" y="913" on="1"/>
        <pt x="1339" y="913" on="0"/>
        <pt x="1274" y="903" on="0"/>
        <pt x="1274" y="881" on="1"/>
        <pt x="1274" y="876" on="0"/>
        <pt x="1281" y="874" on="0"/>
        <pt x="1296" y="863" on="0"/>
        <pt x="1296" y="778" on="0"/>
        <pt x="1227" y="727" on="0"/>
        <pt x="1198" y="727" on="1"/>
        <pt x="1147" y="727" on="0"/>
        <pt x="1092" y="775" on="0"/>
        <pt x="1092" y="812" on="1"/>
        <pt x="1092" y="891" on="0"/>
        <pt x="1228" y="1024" on="0"/>
        <pt x="1329" y="1024" on="1"/>
        <pt x="1856" y="1024" on="1"/>
        <pt x="1354" y="158" on="1"/>
        <pt x="1367" y="157" on="0"/>
        <pt x="1385" y="155" on="1"/>
        <pt x="1424" y="150" on="1"/>
        <pt x="1470" y="145" on="0"/>
        <pt x="1508" y="145" on="1"/>
        <pt x="1599" y="145" on="0"/>
        <pt x="1606" y="186" on="1"/>
        <pt x="1567" y="190" on="0"/>
        <pt x="1567" y="229" on="1"/>
        <pt x="1567" y="259" on="0"/>
        <pt x="1623" y="317" on="0"/>
      </contour>
    </TTGlyph>
    <TTGlyph name="aacute" xMin="-27" yMin="-12" xMax="1163" yMax="1536">
      <contour>
        <pt x="1163" y="367" on="1"/>
        <pt x="1033" y="-12" on="0"/>
        <pt x="752" y="-12" on="1"/>
        <pt x="571" y="-12" on="0"/>
        <pt x="551" y="176" on="1"/>
        <pt x="417" y="-12" on="0"/>
        <pt x="60" y="-12" on="0"/>
        <pt x="-4" y="163" on="1"/>
        <pt x="-27" y="226" on="0"/>
        <pt x="-27" y="387" on="0"/>
        <pt x="1" y="548" on="0"/>
        <pt x="30" y="628" on="1"/>
        <pt x="94" y="804" on="0"/>
        <pt x="332" y="1034" on="0"/>
        <pt x="500" y="1034" on="1"/>
        <pt x="588" y="1034" on="0"/>
        <pt x="666" y="975" on="0"/>
        <pt x="666" y="930" on="1"/>
        <pt x="666" y="915" on="1"/>
        <pt x="688" y="1024" on="1"/>
        <pt x="983" y="1024" on="1"/>
        <pt x="836" y="328" on="1"/>
        <pt x="827" y="293" on="0"/>
        <pt x="827" y="262" on="1"/>
        <pt x="827" y="174" on="0"/>
        <pt x="911" y="174" on="1"/>
        <pt x="1020" y="174" on="0"/>
        <pt x="1077" y="367" on="1"/>
      </contour>
      <contour>
        <pt x="647" y="829" on="1"/>
        <pt x="647" y="848" on="0"/>
        <pt x="612" y="907" on="0"/>
        <pt x="498" y="907" on="0"/>
        <pt x="444" y="846" on="1"/>
        <pt x="314" y="699" on="0"/>
        <pt x="281" y="424" on="1"/>
        <pt x="276" y="382" on="0"/>
        <pt x="276" y="335" on="1"/>
        <pt x="276" y="244" on="0"/>
        <pt x="314" y="208" on="1"/>
        <pt x="336" y="186" on="0"/>
        <pt x="369" y="186" on="1"/>
        <pt x="430" y="186" on="0"/>
        <pt x="530" y="283" on="0"/>
        <pt x="549" y="367" on="1"/>
      </contour>
      <contour>
        <pt x="502" y="1149" on="1"/>
        <pt x="688" y="1536" on="1"/>
        <pt x="903" y="1536" on="1"/>
        <pt x="655" y="1149" on="1"/>
      </contour>
    </TTGlyph>
    <TTGlyph name="aacute.end" xMin="-38" yMin="-12" xMax="972" yMax="1536">
      <contour>
        <pt x="540" y="178" on="1"/>
        <pt x="413" y="-12" on="0"/>
        <pt x="49" y="-12" on="0"/>
        <pt x="-15" y="163" on="1"/>
        <pt x="-38" y="226" on="0"/>
        <pt x="-38" y="387" on="0"/>
        <pt x="-10" y="548" on="0"/>
        <pt x="19" y="628" on="1"/>
        <pt x="84" y="806" on="0"/>
        <pt x="194" y="910" on="1"/>
        <pt x="321" y="1034" on="0"/>
        <pt x="489" y="1034" on="1"/>
        <pt x="577" y="1034" on="0"/>
        <pt x="655" y="975" on="0"/>
        <pt x="655" y="930" on="1"/>
        <pt x="655" y="915" on="1"/>
        <pt x="677" y="1024" on="1"/>
        <pt x="972" y="1024" on="1"/>
        <pt x="825" y="328" on="1"/>
        <pt x="816" y="293" on="0"/>
        <pt x="816" y="256" on="1"/>
        <pt x="816" y="186" on="0"/>
        <pt x="900" y="186" on="1"/>
        <pt x="927" y="186" on="0"/>
        <pt x="945" y="195" on="1"/>
        <pt x="902" y="80" on="0"/>
        <pt x="872" y="46" on="1"/>
        <pt x="819" y="-12" on="0"/>
        <pt x="656" y="-12" on="0"/>
        <pt x="552" y="87" on="0"/>
      </contour>
      <contour>
        <pt x="636" y="829" on="1"/>
        <pt x="636" y="848" on="0"/>
        <pt x="601" y="907" on="0"/>
        <pt x="487" y="907" on="0"/>
        <pt x="434" y="846" on="1"/>
        <pt x="303" y="699" on="0"/>
        <pt x="270" y="424" on="1"/>
        <pt x="265" y="382" on="0"/>
        <pt x="265" y="335" on="1"/>
        <pt x="265" y="244" on="0"/>
        <pt x="303" y="208" on="1"/>
        <pt x="325" y="186" on="0"/>
        <pt x="358" y="186" on="1"/>
        <pt x="418" y="186" on="0"/>
        <pt x="519" y="283" on="0"/>
        <pt x="538" y="367" on="1"/>
      </contour>
      <contour>
        <pt x="508" y="1149" on="1"/>
        <pt x="694" y="1536" on="1"/>
        <pt x="909" y="1536" on="1"/>
        <pt x="661" y="1149" on="1"/>
      </contour>
    </TTGlyph>
    <TTGlyph name="acircumflex" xMin="-27" yMin="-12" xMax="1163" yMax="1536">
      <contour>
        <pt x="1163" y="367" on="1"/>
        <pt x="1033" y="-12" on="0"/>
        <pt x="752" y="-12" on="1"/>
        <pt x="571" y="-12" on="0"/>
        <pt x="551" y="176" on="1"/>
        <pt x="417" y="-12" on="0"/>
        <pt x="60" y="-12" on="0"/>
        <pt x="-4" y="163" on="1"/>
        <pt x="-27" y="226" on="0"/>
        <pt x="-27" y="387" on="0"/>
        <pt x="1" y="548" on="0"/>
        <pt x="30" y="628" on="1"/>
        <pt x="94" y="804" on="0"/>
        <pt x="332" y="1034" on="0"/>
        <pt x="500" y="1034" on="1"/>
        <pt x="588" y="1034" on="0"/>
        <pt x="666" y="975" on="0"/>
        <pt x="666" y="930" on="1"/>
        <pt x="666" y="915" on="1"/>
        <pt x="688" y="1024" on="1"/>
        <pt x="983" y="1024" on="1"/>
        <pt x="836" y="328" on="1"/>
        <pt x="827" y="293" on="0"/>
        <pt x="827" y="262" on="1"/>
        <pt x="827" y="174" on="0"/>
        <pt x="911" y="174" on="1"/>
        <pt x="1020" y="174" on="0"/>
        <pt x="1077" y="367" on="1"/>
      </contour>
      <contour>
        <pt x="647" y="829" on="1"/>
        <pt x="647" y="848" on="0"/>
        <pt x="612" y="907" on="0"/>
        <pt x="498" y="907" on="0"/>
        <pt x="444" y="846" on="1"/>
        <pt x="314" y="699" on="0"/>
        <pt x="281" y="424" on="1"/>
        <pt x="276" y="382" on="0"/>
        <pt x="276" y="335" on="1"/>
        <pt x="276" y="244" on="0"/>
        <pt x="314" y="208" on="1"/>
        <pt x="336" y="186" on="0"/>
        <pt x="369" y="186" on="1"/>
        <pt x="430" y="186" on="0"/>
        <pt x="530" y="283" on="0"/>
        <pt x="549" y="367" on="1"/>
      </contour>
      <contour>
        <pt x="834" y="1149" on="1"/>
        <pt x="711" y="1313" on="1"/>
        <pt x="389" y="1149" on="1"/>
        <pt x="299" y="1149" on="1"/>
        <pt x="733" y="1536" on="1"/>
        <pt x="776" y="1536" on="1"/>
        <pt x="899" y="1149" on="1"/>
      </contour>
    </TTGlyph>
    <TTGlyph name="acute" xMin="246" yMin="1149" xMax="647" yMax="1536">
      <contour>
        <pt x="246" y="1149" on="1"/>
        <pt x="432" y="1536" on="1"/>
        <pt x="647" y="1536" on="1"/>
        <pt x="399" y="1149" on="1"/>
      </contour>
    </TTGlyph>
    <TTGlyph name="adieresis" xMin="-27" yMin="-12" xMax="1163" yMax="1423">
      <contour>
        <pt x="1163" y="367" on="1"/>
        <pt x="1033" y="-12" on="0"/>
        <pt x="752" y="-12" on="1"/>
        <pt x="571" y="-12" on="0"/>
        <pt x="551" y="176" on="1"/>
        <pt x="417" y="-12" on="0"/>
        <pt x="60" y="-12" on="0"/>
        <pt x="-4" y="163" on="1"/>
        <pt x="-27" y="226" on="0"/>
        <pt x="-27" y="387" on="0"/>
        <pt x="1" y="548" on="0"/>
        <pt x="30" y="628" on="1"/>
        <pt x="94" y="804" on="0"/>
        <pt x="332" y="1034" on="0"/>
        <pt x="500" y="1034" on="1"/>
        <pt x="588" y="1034" on="0"/>
        <pt x="666" y="975" on="0"/>
        <pt x="666" y="930" on="1"/>
        <pt x="666" y="915" on="1"/>
        <pt x="688" y="1024" on="1"/>
        <pt x="983" y="1024" on="1"/>
        <pt x="836" y="328" on="1"/>
        <pt x="827" y="293" on="0"/>
        <pt x="827" y="262" on="1"/>
        <pt x="827" y="174" on="0"/>
        <pt x="911" y="174" on="1"/>
        <pt x="1020" y="174" on="0"/>
        <pt x="1077" y="367" on="1"/>
      </contour>
      <contour>
        <pt x="647" y="829" on="1"/>
        <pt x="647" y="848" on="0"/>
        <pt x="612" y="907" on="0"/>
        <pt x="498" y="907" on="0"/>
        <pt x="444" y="846" on="1"/>
        <pt x="314" y="699" on="0"/>
        <pt x="281" y="424" on="1"/>
        <pt x="276" y="382" on="0"/>
        <pt x="276" y="335" on="1"/>
        <pt x="276" y="244" on="0"/>
        <pt x="314" y="208" on="1"/>
        <pt x="336" y="186" on="0"/>
        <pt x="369" y="186" on="1"/>
        <pt x="430" y="186" on="0"/>
        <pt x="530" y="283" on="0"/>
        <pt x="549" y="367" on="1"/>
      </contour>
      <contour>
        <pt x="582" y="1209" on="1"/>
        <pt x="544" y="1174" on="0"/>
        <pt x="506" y="1174" on="1"/>
        <pt x="440" y="1174" on="0"/>
        <pt x="369" y="1245" on="0"/>
        <pt x="369" y="1349" on="0"/>
        <pt x="404" y="1386" on="1"/>
        <pt x="440" y="1423" on="0"/>
        <pt x="545" y="1423" on="0"/>
        <pt x="619" y="1350" on="0"/>
        <pt x="619" y="1245" on="0"/>
      </contour>
      <contour>
        <pt x="950" y="1209" on="1"/>
        <pt x="912" y="1174" on="0"/>
        <pt x="874" y="1174" on="1"/>
        <pt x="809" y="1174" on="0"/>
        <pt x="737" y="1244" on="0"/>
        <pt x="737" y="1350" on="0"/>
        <pt x="809" y="1423" on="0"/>
        <pt x="913" y="1423" on="0"/>
        <pt x="987" y="1350" on="0"/>
        <pt x="987" y="1245" on="0"/>
      </contour>
    </TTGlyph>
    <TTGlyph name="ae" xMin="-16" yMin="-12" xMax="1401" yMax="1042">
      <contour>
        <pt x="797" y="952" on="1"/>
        <pt x="915" y="1042" on="0"/>
        <pt x="1256" y="1042" on="0"/>
        <pt x="1287" y="918" on="1"/>
        <pt x="1296" y="881" on="0"/>
        <pt x="1296" y="754" on="0"/>
        <pt x="1218" y="604" on="0"/>
        <pt x="1153" y="547" on="1"/>
        <pt x="1015" y="426" on="0"/>
        <pt x="825" y="414" on="1"/>
        <pt x="821" y="380" on="0"/>
        <pt x="821" y="348" on="1"/>
        <pt x="821" y="233" on="0"/>
        <pt x="889" y="160" on="0"/>
        <pt x="954" y="160" on="1"/>
        <pt x="1080" y="160" on="0"/>
        <pt x="1230" y="254" on="0"/>
        <pt x="1331" y="367" on="1"/>
        <pt x="1401" y="367" on="1"/>
        <pt x="1173" y="-8" on="0"/>
        <pt x="836" y="-8" on="1"/>
        <pt x="588" y="-8" on="0"/>
        <pt x="535" y="184" on="1"/>
        <pt x="485" y="92" on="0"/>
        <pt x="440" y="56" on="1"/>
        <pt x="355" y="-12" on="0"/>
        <pt x="244" y="-12" on="1"/>
        <pt x="68" y="-12" on="0"/>
        <pt x="8" y="122" on="1"/>
        <pt x="-16" y="173" on="0"/>
        <pt x="-16" y="261" on="1"/>
        <pt x="-16" y="433" on="0"/>
        <pt x="229" y="594" on="0"/>
        <pt x="438" y="594" on="1"/>
        <pt x="507" y="594" on="0"/>
        <pt x="545" y="586" on="1"/>
        <pt x="588" y="678" on="0"/>
        <pt x="588" y="866" on="0"/>
        <pt x="520" y="900" on="1"/>
        <pt x="496" y="911" on="0"/>
        <pt x="433" y="911" on="1"/>
        <pt x="322" y="911" on="0"/>
        <pt x="215" y="815" on="1"/>
        <pt x="158" y="874" on="1"/>
        <pt x="302" y="1021" on="0"/>
        <pt x="445" y="1031" on="1"/>
        <pt x="487" y="1034" on="0"/>
        <pt x="530" y="1034" on="1"/>
        <pt x="694" y="1034" on="0"/>
      </contour>
      <contour>
        <pt x="1090" y="934" on="1"/>
        <pt x="1015" y="934" on="0"/>
        <pt x="877" y="681" on="0"/>
        <pt x="840" y="512" on="1"/>
        <pt x="957" y="520" on="0"/>
        <pt x="1139" y="721" on="0"/>
        <pt x="1139" y="934" on="0"/>
      </contour>
      <contour>
        <pt x="530" y="467" on="1"/>
        <pt x="520" y="469" on="0"/>
        <pt x="513" y="469" on="1"/>
        <pt x="496" y="469" on="1"/>
        <pt x="394" y="469" on="0"/>
        <pt x="333" y="420" on="1"/>
        <pt x="272" y="371" on="0"/>
        <pt x="272" y="229" on="0"/>
        <pt x="335" y="186" on="0"/>
        <pt x="364" y="186" on="1"/>
        <pt x="422" y="186" on="0"/>
        <pt x="500" y="308" on="0"/>
      </contour>
    </TTGlyph>
    <TTGlyph name="afii10017" xMin="-20" yMin="-233" xMax="1378" yMax="1536">
      <contour>
        <pt x="399" y="70" on="1"/>
        <pt x="379" y="-39" on="0"/>
        <pt x="379" y="-196" on="0"/>
        <pt x="408" y="-233" on="1"/>
        <pt x="286" y="-233" on="0"/>
        <pt x="237" y="-208" on="1"/>
        <pt x="133" y="-156" on="0"/>
        <pt x="133" y="-16" on="1"/>
        <pt x="133" y="196" on="0"/>
        <pt x="312" y="580" on="1"/>
        <pt x="367" y="700" on="0"/>
        <pt x="434" y="817" on="1"/>
        <pt x="338" y="811" on="0"/>
        <pt x="215" y="764" on="0"/>
        <pt x="195" y="711" on="1"/>
        <pt x="203" y="711" on="0"/>
        <pt x="221" y="670" on="0"/>
        <pt x="221" y="610" on="0"/>
        <pt x="154" y="567" on="0"/>
        <pt x="53" y="567" on="0"/>
        <pt x="-20" y="627" on="0"/>
        <pt x="-20" y="682" on="1"/>
        <pt x="-20" y="789" on="0"/>
        <pt x="98" y="864" on="1"/>
        <pt x="218" y="938" on="0"/>
        <pt x="397" y="938" on="1"/>
        <pt x="438" y="938" on="0"/>
        <pt x="504" y="932" on="1"/>
        <pt x="769" y="1351" on="0"/>
        <pt x="1034" y="1488" on="1"/>
        <pt x="1127" y="1536" on="0"/>
        <pt x="1315" y="1536" on="0"/>
        <pt x="1378" y="1507" on="1"/>
        <pt x="1057" y="0" on="1"/>
        <pt x="762" y="0" on="1"/>
        <pt x="920" y="743" on="1"/>
        <pt x="782" y="805" on="0"/>
        <pt x="645" y="817" on="1"/>
        <pt x="461" y="410" on="0"/>
      </contour>
      <contour>
        <pt x="688" y="905" on="1"/>
        <pt x="826" y="879" on="0"/>
        <pt x="938" y="834" on="1"/>
        <pt x="1057" y="1391" on="1"/>
        <pt x="881" y="1295" on="0"/>
      </contour>
    </TTGlyph>
    <TTGlyph name="afii10018" xMin="25" yMin="-35" xMax="1309" yMax="1536">
      <contour>
        <pt x="936" y="520" on="1"/>
        <pt x="936" y="772" on="0"/>
        <pt x="741" y="772" on="1"/>
        <pt x="691" y="772" on="0"/>
        <pt x="643" y="752" on="1"/>
        <pt x="481" y="0" on="1"/>
        <pt x="186" y="0" on="1"/>
        <pt x="481" y="1368" on="1"/>
        <pt x="352" y="1364" on="0"/>
        <pt x="215" y="1176" on="0"/>
        <pt x="215" y="944" on="1"/>
        <pt x="215" y="863" on="0"/>
        <pt x="240" y="819" on="1"/>
        <pt x="244" y="811" on="0"/>
        <pt x="244" y="805" on="1"/>
        <pt x="78" y="805" on="0"/>
        <pt x="39" y="910" on="1"/>
        <pt x="25" y="948" on="0"/>
        <pt x="25" y="1106" on="0"/>
        <pt x="101" y="1298" on="0"/>
        <pt x="184" y="1372" on="1"/>
        <pt x="368" y="1536" on="0"/>
        <pt x="723" y="1536" on="1"/>
        <pt x="754" y="1536" on="0"/>
        <pt x="800" y="1532" on="1"/>
        <pt x="900" y="1524" on="1"/>
        <pt x="1048" y="1511" on="0"/>
        <pt x="1232" y="1511" on="0"/>
        <pt x="1309" y="1536" on="1"/>
        <pt x="1294" y="1462" on="1"/>
        <pt x="1275" y="1364" on="0"/>
        <pt x="1211" y="1316" on="1"/>
        <pt x="1175" y="1290" on="0"/>
        <pt x="1114" y="1290" on="1"/>
        <pt x="978" y="1290" on="0"/>
        <pt x="768" y="1331" on="1"/>
        <pt x="666" y="856" on="1"/>
        <pt x="789" y="893" on="0"/>
        <pt x="876" y="893" on="1"/>
        <pt x="1046" y="893" on="0"/>
        <pt x="1221" y="685" on="0"/>
        <pt x="1221" y="330" on="0"/>
        <pt x="1118" y="164" on="1"/>
        <pt x="1066" y="80" on="0"/>
        <pt x="899" y="-35" on="0"/>
        <pt x="647" y="-35" on="0"/>
        <pt x="597" y="46" on="1"/>
        <pt x="573" y="86" on="0"/>
        <pt x="573" y="181" on="0"/>
        <pt x="596" y="236" on="1"/>
        <pt x="654" y="162" on="0"/>
        <pt x="789" y="162" on="0"/>
        <pt x="828" y="196" on="1"/>
        <pt x="936" y="292" on="0"/>
      </contour>
    </TTGlyph>
    <TTGlyph name="afii10019" xMin="25" yMin="-35" xMax="1241" yMax="1536">
      <contour>
        <pt x="956" y="530" on="1"/>
        <pt x="956" y="791" on="0"/>
        <pt x="762" y="791" on="1"/>
        <pt x="717" y="791" on="0"/>
        <pt x="668" y="784" on="1"/>
        <pt x="500" y="0" on="1"/>
        <pt x="205" y="0" on="1"/>
        <pt x="483" y="1303" on="1"/>
        <pt x="786" y="1343" on="1"/>
        <pt x="690" y="889" on="1"/>
        <pt x="702" y="889" on="1"/>
        <pt x="820" y="889" on="0"/>
        <pt x="997" y="1101" on="0"/>
        <pt x="997" y="1221" on="1"/>
        <pt x="997" y="1371" on="0"/>
        <pt x="852" y="1424" on="1"/>
        <pt x="800" y="1442" on="0"/>
        <pt x="667" y="1442" on="0"/>
        <pt x="544" y="1415" on="0"/>
        <pt x="488" y="1388" on="1"/>
        <pt x="363" y="1327" on="0"/>
        <pt x="215" y="1102" on="0"/>
        <pt x="215" y="944" on="1"/>
        <pt x="215" y="863" on="0"/>
        <pt x="240" y="819" on="1"/>
        <pt x="244" y="811" on="0"/>
        <pt x="244" y="805" on="1"/>
        <pt x="82" y="805" on="0"/>
        <pt x="40" y="905" on="1"/>
        <pt x="25" y="941" on="0"/>
        <pt x="25" y="993" on="1"/>
        <pt x="25" y="1101" on="0"/>
        <pt x="147" y="1294" on="0"/>
        <pt x="250" y="1370" on="1"/>
        <pt x="479" y="1536" on="0"/>
        <pt x="768" y="1536" on="1"/>
        <pt x="982" y="1536" on="0"/>
        <pt x="1204" y="1347" on="0"/>
        <pt x="1204" y="1210" on="1"/>
        <pt x="1204" y="1118" on="0"/>
        <pt x="1152" y="1030" on="1"/>
        <pt x="1100" y="942" on="0"/>
        <pt x="999" y="885" on="1"/>
        <pt x="1123" y="860" on="0"/>
        <pt x="1241" y="680" on="0"/>
        <pt x="1241" y="555" on="1"/>
        <pt x="1241" y="482" on="0"/>
        <pt x="1220" y="380" on="1"/>
        <pt x="1172" y="154" on="0"/>
        <pt x="1008" y="29" on="1"/>
        <pt x="923" y="-35" on="0"/>
        <pt x="658" y="-35" on="0"/>
        <pt x="610" y="40" on="1"/>
        <pt x="590" y="70" on="0"/>
        <pt x="590" y="167" on="0"/>
        <pt x="616" y="236" on="1"/>
        <pt x="685" y="162" on="0"/>
        <pt x="748" y="162" on="1"/>
        <pt x="856" y="162" on="0"/>
        <pt x="911" y="288" on="1"/>
        <pt x="956" y="390" on="0"/>
      </contour>
    </TTGlyph>
    <TTGlyph name="afii10020" xMin="25" yMin="0" xMax="1286" yMax="1536">
      <contour>
        <pt x="1183" y="1315" on="0"/>
        <pt x="1124" y="1290" on="0"/>
        <pt x="968" y="1290" on="0"/>
        <pt x="768" y="1331" on="1"/>
        <pt x="481" y="0" on="1"/>
        <pt x="186" y="0" on="1"/>
        <pt x="481" y="1368" on="1"/>
        <pt x="349" y="1364" on="0"/>
        <pt x="215" y="1178" on="0"/>
        <pt x="215" y="944" on="1"/>
        <pt x="215" y="863" on="0"/>
        <pt x="240" y="819" on="1"/>
        <pt x="244" y="811" on="0"/>
        <pt x="244" y="805" on="1"/>
        <pt x="78" y="805" on="0"/>
        <pt x="39" y="910" on="1"/>
        <pt x="25" y="948" on="0"/>
        <pt x="25" y="1072" on="0"/>
        <pt x="55" y="1204" on="0"/>
        <pt x="90" y="1263" on="1"/>
        <pt x="166" y="1390" on="0"/>
        <pt x="482" y="1536" on="0"/>
        <pt x="735" y="1536" on="1"/>
        <pt x="806" y="1536" on="0"/>
        <pt x="989" y="1511" on="0"/>
        <pt x="1206" y="1511" on="0"/>
        <pt x="1286" y="1536" on="1"/>
        <pt x="1278" y="1514" on="0"/>
        <pt x="1266" y="1461" on="0"/>
        <pt x="1249" y="1407" on="0"/>
        <pt x="1223" y="1355" on="0"/>
      </contour>
    </TTGlyph>
    <TTGlyph name="afii10021" xMin="-51" yMin="-55" xMax="1333" yMax="1536">
      <contour>
        <pt x="489" y="102" on="1"/>
        <pt x="389" y="-55" on="0"/>
        <pt x="190" y="-55" on="1"/>
        <pt x="94" y="-55" on="0"/>
        <pt x="-51" y="70" on="0"/>
        <pt x="-51" y="286" on="0"/>
        <pt x="106" y="432" on="0"/>
        <pt x="215" y="432" on="1"/>
        <pt x="259" y="432" on="0"/>
        <pt x="291" y="416" on="1"/>
        <pt x="483" y="1303" on="1"/>
        <pt x="786" y="1343" on="1"/>
        <pt x="563" y="293" on="1"/>
        <pt x="549" y="230" on="0"/>
        <pt x="537" y="197" on="1"/>
        <pt x="585" y="154" on="0"/>
        <pt x="750" y="154" on="0"/>
        <pt x="822" y="236" on="1"/>
        <pt x="960" y="392" on="0"/>
        <pt x="1023" y="739" on="1"/>
        <pt x="1051" y="897" on="0"/>
        <pt x="1051" y="1028" on="1"/>
        <pt x="1051" y="1254" on="0"/>
        <pt x="968" y="1354" on="1"/>
        <pt x="892" y="1442" on="0"/>
        <pt x="764" y="1442" on="1"/>
        <pt x="516" y="1442" on="0"/>
        <pt x="215" y="1172" on="0"/>
        <pt x="215" y="944" on="1"/>
        <pt x="215" y="863" on="0"/>
        <pt x="240" y="819" on="1"/>
        <pt x="244" y="811" on="0"/>
        <pt x="244" y="805" on="1"/>
        <pt x="141" y="805" on="0"/>
        <pt x="25" y="891" on="0"/>
        <pt x="25" y="995" on="1"/>
        <pt x="25" y="1000" on="1"/>
        <pt x="25" y="1136" on="0"/>
        <pt x="130" y="1260" on="1"/>
        <pt x="292" y="1453" on="0"/>
        <pt x="586" y="1516" on="1"/>
        <pt x="683" y="1536" on="0"/>
        <pt x="935" y="1536" on="0"/>
        <pt x="1039" y="1488" on="1"/>
        <pt x="1333" y="1352" on="0"/>
        <pt x="1333" y="946" on="1"/>
        <pt x="1333" y="768" on="0"/>
        <pt x="1286" y="594" on="1"/>
        <pt x="1189" y="229" on="0"/>
        <pt x="982" y="59" on="1"/>
        <pt x="878" y="-27" on="0"/>
        <pt x="766" y="-27" on="1"/>
        <pt x="611" y="-27" on="0"/>
      </contour>
      <contour>
        <pt x="274" y="338" on="1"/>
        <pt x="239" y="358" on="0"/>
        <pt x="212" y="358" on="1"/>
        <pt x="155" y="358" on="0"/>
        <pt x="61" y="261" on="0"/>
        <pt x="61" y="195" on="1"/>
        <pt x="61" y="164" on="0"/>
        <pt x="109" y="127" on="0"/>
        <pt x="175" y="127" on="0"/>
        <pt x="246" y="195" on="0"/>
        <pt x="264" y="287" on="1"/>
      </contour>
    </TTGlyph>
    <TTGlyph name="afii10022" xMin="14" yMin="-37" xMax="1010" yMax="1540">
      <contour>
        <pt x="393" y="854" on="1"/>
        <pt x="268" y="945" on="0"/>
        <pt x="268" y="1265" on="0"/>
        <pt x="528" y="1540" on="0"/>
        <pt x="717" y="1540" on="1"/>
        <pt x="844" y="1540" on="0"/>
        <pt x="1010" y="1407" on="0"/>
        <pt x="1010" y="1192" on="0"/>
        <pt x="920" y="1071" on="0"/>
        <pt x="802" y="1071" on="0"/>
        <pt x="762" y="1126" on="1"/>
        <pt x="798" y="1140" on="0"/>
        <pt x="852" y="1248" on="0"/>
        <pt x="852" y="1367" on="0"/>
        <pt x="816" y="1393" on="1"/>
        <pt x="779" y="1419" on="0"/>
        <pt x="736" y="1419" on="1"/>
        <pt x="650" y="1419" on="0"/>
        <pt x="530" y="1242" on="0"/>
        <pt x="530" y="1130" on="1"/>
        <pt x="530" y="976" on="0"/>
        <pt x="642" y="898" on="1"/>
        <pt x="682" y="870" on="0"/>
        <pt x="737" y="856" on="1"/>
        <pt x="581" y="822" on="0"/>
        <pt x="371" y="516" on="0"/>
        <pt x="371" y="367" on="1"/>
        <pt x="371" y="281" on="0"/>
        <pt x="461" y="160" on="0"/>
        <pt x="667" y="160" on="0"/>
        <pt x="888" y="270" on="0"/>
        <pt x="944" y="369" on="1"/>
        <pt x="991" y="348" on="1"/>
        <pt x="910" y="170" on="0"/>
        <pt x="579" y="-37" on="0"/>
        <pt x="204" y="-37" on="0"/>
        <pt x="14" y="170" on="0"/>
        <pt x="14" y="494" on="0"/>
        <pt x="224" y="812" on="0"/>
      </contour>
    </TTGlyph>
    <TTGlyph name="afii10022_afii10073" xMin="14" yMin="-512" xMax="2011" yMax="1540">
      <contour>
        <pt x="393" y="854" on="1"/>
        <pt x="268" y="945" on="0"/>
        <pt x="268" y="1265" on="0"/>
        <pt x="528" y="1540" on="0"/>
        <pt x="717" y="1540" on="1"/>
        <pt x="844" y="1540" on="0"/>
        <pt x="1010" y="1407" on="0"/>
        <pt x="1010" y="1192" on="0"/>
        <pt x="920" y="1071" on="0"/>
        <pt x="802" y="1071" on="0"/>
        <pt x="762" y="1126" on="1"/>
        <pt x="798" y="1140" on="0"/>
        <pt x="852" y="1248" on="0"/>
        <pt x="852" y="1367" on="0"/>
        <pt x="816" y="1393" on="1"/>
        <pt x="779" y="1419" on="0"/>
        <pt x="736" y="1419" on="1"/>
        <pt x="650" y="1419" on="0"/>
        <pt x="530" y="1242" on="0"/>
        <pt x="530" y="1130" on="1"/>
        <pt x="530" y="976" on="0"/>
        <pt x="642" y="898" on="1"/>
        <pt x="682" y="870" on="0"/>
        <pt x="737" y="856" on="1"/>
        <pt x="581" y="822" on="0"/>
        <pt x="371" y="516" on="0"/>
        <pt x="371" y="367" on="1"/>
        <pt x="371" y="281" on="0"/>
        <pt x="461" y="160" on="0"/>
        <pt x="646" y="160" on="0"/>
        <pt x="763" y="219" on="0"/>
        <pt x="808" y="271" on="1"/>
        <pt x="868" y="342" on="0"/>
        <pt x="954" y="540" on="1"/>
        <pt x="1014" y="677" on="1"/>
        <pt x="1111" y="894" on="0"/>
        <pt x="1315" y="1042" on="0"/>
        <pt x="1602" y="1042" on="0"/>
        <pt x="1690" y="957" on="1"/>
        <pt x="1778" y="872" on="0"/>
        <pt x="1778" y="537" on="0"/>
        <pt x="1650" y="396" on="1"/>
        <pt x="1584" y="324" on="0"/>
        <pt x="1480" y="268" on="0"/>
        <pt x="1460" y="264" on="1"/>
        <pt x="1509" y="247" on="0"/>
        <pt x="1609" y="141" on="0"/>
        <pt x="1628" y="59" on="1"/>
        <pt x="1745" y="95" on="0"/>
        <pt x="1844" y="190" on="0"/>
        <pt x="1901" y="292" on="0"/>
        <pt x="1925" y="367" on="1"/>
        <pt x="2011" y="367" on="1"/>
        <pt x="1932" y="99" on="0"/>
        <pt x="1736" y="13" on="1"/>
        <pt x="1684" y="-10" on="0"/>
        <pt x="1636" y="-23" on="1"/>
        <pt x="1632" y="-252" on="0"/>
        <pt x="1422" y="-512" on="0"/>
        <pt x="1249" y="-512" on="1"/>
        <pt x="1154" y="-512" on="0"/>
        <pt x="1087" y="-463" on="1"/>
        <pt x="1020" y="-414" on="0"/>
        <pt x="1020" y="-313" on="1"/>
        <pt x="1020" y="-153" on="0"/>
        <pt x="1226" y="-58" on="1"/>
        <pt x="1284" y="-31" on="0"/>
        <pt x="1341" y="-12" on="1"/>
        <pt x="1335" y="205" on="0"/>
        <pt x="1194" y="205" on="1"/>
        <pt x="1130" y="205" on="1"/>
        <pt x="1157" y="328" on="1"/>
        <pt x="1217" y="328" on="1"/>
        <pt x="1326" y="328" on="0"/>
        <pt x="1468" y="532" on="0"/>
        <pt x="1468" y="680" on="1"/>
        <pt x="1468" y="856" on="0"/>
        <pt x="1343" y="856" on="1"/>
        <pt x="1207" y="856" on="0"/>
        <pt x="1110" y="684" on="1"/>
        <pt x="1075" y="622" on="0"/>
        <pt x="1034" y="518" on="1"/>
        <pt x="931" y="263" on="0"/>
        <pt x="800" y="130" on="1"/>
        <pt x="634" y="-37" on="0"/>
        <pt x="391" y="-37" on="1"/>
        <pt x="204" y="-37" on="0"/>
        <pt x="14" y="170" on="0"/>
        <pt x="14" y="494" on="0"/>
        <pt x="224" y="812" on="0"/>
      </contour>
      <contour>
        <pt x="1335" y="-111" on="1"/>
        <pt x="1133" y="-182" on="0"/>
        <pt x="1133" y="-285" on="1"/>
        <pt x="1133" y="-313" on="0"/>
        <pt x="1167" y="-352" on="0"/>
        <pt x="1196" y="-352" on="1"/>
        <pt x="1247" y="-352" on="0"/>
        <pt x="1323" y="-210" on="0"/>
      </contour>
    </TTGlyph>
    <TTGlyph name="afii10022_afii10087" xMin="14" yMin="-33" xMax="1718" yMax="1540">
      <contour>
        <pt x="1348" y="1042" on="1"/>
        <pt x="1348" y="1139" on="0"/>
        <pt x="1473" y="1139" on="1"/>
        <pt x="1532" y="1139" on="0"/>
        <pt x="1602" y="1032" on="0"/>
        <pt x="1602" y="857" on="0"/>
        <pt x="1460" y="629" on="0"/>
        <pt x="1309" y="469" on="1"/>
        <pt x="1327" y="367" on="1"/>
        <pt x="1340" y="306" on="1"/>
        <pt x="1364" y="186" on="0"/>
        <pt x="1448" y="186" on="1"/>
        <pt x="1507" y="186" on="0"/>
        <pt x="1558" y="237" on="1"/>
        <pt x="1609" y="288" on="0"/>
        <pt x="1632" y="367" on="1"/>
        <pt x="1718" y="367" on="1"/>
        <pt x="1586" y="-12" on="0"/>
        <pt x="1296" y="-12" on="1"/>
        <pt x="1198" y="-12" on="0"/>
        <pt x="1095" y="116" on="0"/>
        <pt x="1061" y="258" on="1"/>
        <pt x="953" y="131" on="0"/>
        <pt x="579" y="-33" on="0"/>
        <pt x="403" y="-33" on="1"/>
        <pt x="133" y="-33" on="0"/>
        <pt x="45" y="159" on="1"/>
        <pt x="14" y="227" on="0"/>
        <pt x="14" y="316" on="1"/>
        <pt x="14" y="494" on="0"/>
        <pt x="224" y="812" on="0"/>
        <pt x="393" y="854" on="1"/>
        <pt x="268" y="945" on="0"/>
        <pt x="268" y="1265" on="0"/>
        <pt x="528" y="1540" on="0"/>
        <pt x="717" y="1540" on="1"/>
        <pt x="844" y="1540" on="0"/>
        <pt x="1010" y="1407" on="0"/>
        <pt x="1010" y="1192" on="0"/>
        <pt x="920" y="1071" on="0"/>
        <pt x="802" y="1071" on="0"/>
        <pt x="762" y="1126" on="1"/>
        <pt x="798" y="1140" on="0"/>
        <pt x="852" y="1248" on="0"/>
        <pt x="852" y="1367" on="0"/>
        <pt x="816" y="1393" on="1"/>
        <pt x="779" y="1419" on="0"/>
        <pt x="736" y="1419" on="1"/>
        <pt x="650" y="1419" on="0"/>
        <pt x="530" y="1242" on="0"/>
        <pt x="530" y="1130" on="1"/>
        <pt x="530" y="976" on="0"/>
        <pt x="642" y="898" on="1"/>
        <pt x="682" y="870" on="0"/>
        <pt x="737" y="856" on="1"/>
        <pt x="581" y="822" on="0"/>
        <pt x="371" y="516" on="0"/>
        <pt x="371" y="257" on="0"/>
        <pt x="488" y="158" on="0"/>
        <pt x="562" y="158" on="1"/>
        <pt x="690" y="158" on="0"/>
        <pt x="943" y="282" on="0"/>
        <pt x="1034" y="385" on="1"/>
        <pt x="932" y="946" on="1"/>
        <pt x="1221" y="946" on="1"/>
        <pt x="1286" y="582" on="1"/>
        <pt x="1481" y="790" on="0"/>
        <pt x="1481" y="907" on="1"/>
        <pt x="1481" y="922" on="0"/>
        <pt x="1479" y="932" on="1"/>
        <pt x="1459" y="928" on="0"/>
        <pt x="1444" y="928" on="1"/>
        <pt x="1348" y="928" on="0"/>
      </contour>
    </TTGlyph>
    <TTGlyph name="afii10023" xMin="14" yMin="-37" xMax="1106" yMax="1935">
      <contour>
        <pt x="393" y="854" on="1"/>
        <pt x="268" y="945" on="0"/>
        <pt x="268" y="1265" on="0"/>
        <pt x="528" y="1540" on="0"/>
        <pt x="717" y="1540" on="1"/>
        <pt x="844" y="1540" on="0"/>
        <pt x="1010" y="1407" on="0"/>
        <pt x="1010" y="1192" on="0"/>
        <pt x="920" y="1071" on="0"/>
        <pt x="802" y="1071" on="0"/>
        <pt x="762" y="1126" on="1"/>
        <pt x="798" y="1140" on="0"/>
        <pt x="852" y="1248" on="0"/>
        <pt x="852" y="1367" on="0"/>
        <pt x="816" y="1393" on="1"/>
        <pt x="779" y="1419" on="0"/>
        <pt x="736" y="1419" on="1"/>
        <pt x="650" y="1419" on="0"/>
        <pt x="530" y="1242" on="0"/>
        <pt x="530" y="1130" on="1"/>
        <pt x="530" y="976" on="0"/>
        <pt x="642" y="898" on="1"/>
        <pt x="682" y="870" on="0"/>
        <pt x="737" y="856" on="1"/>
        <pt x="581" y="822" on="0"/>
        <pt x="371" y="516" on="0"/>
        <pt x="371" y="367" on="1"/>
        <pt x="371" y="281" on="0"/>
        <pt x="461" y="160" on="0"/>
        <pt x="667" y="160" on="0"/>
        <pt x="888" y="270" on="0"/>
        <pt x="944" y="369" on="1"/>
        <pt x="991" y="348" on="1"/>
        <pt x="910" y="170" on="0"/>
        <pt x="579" y="-37" on="0"/>
        <pt x="204" y="-37" on="0"/>
        <pt x="14" y="170" on="0"/>
        <pt x="14" y="494" on="0"/>
        <pt x="224" y="812" on="0"/>
      </contour>
      <contour>
        <pt x="624" y="1686" on="1"/>
        <pt x="528" y="1686" on="0"/>
        <pt x="496" y="1760" on="1"/>
        <pt x="487" y="1783" on="0"/>
        <pt x="487" y="1862" on="0"/>
        <pt x="559" y="1935" on="0"/>
        <pt x="664" y="1935" on="0"/>
        <pt x="737" y="1862" on="0"/>
        <pt x="737" y="1757" on="0"/>
        <pt x="663" y="1686" on="0"/>
      </contour>
      <contour>
        <pt x="1069" y="1721" on="1"/>
        <pt x="1031" y="1686" on="0"/>
        <pt x="992" y="1686" on="1"/>
        <pt x="928" y="1686" on="0"/>
        <pt x="856" y="1756" on="0"/>
        <pt x="856" y="1862" on="0"/>
        <pt x="928" y="1935" on="0"/>
        <pt x="1032" y="1935" on="0"/>
        <pt x="1106" y="1862" on="0"/>
        <pt x="1106" y="1757" on="0"/>
      </contour>
    </TTGlyph>
</ttFont>
